<?xml version="1.0" encoding="utf-8"?>
<!-- Generator: Adobe Illustrator 23.0.1, SVG Export Plug-In . SVG Version: 6.00 Build 0)  -->
<svg version="1.1" id="Layer_1" xmlns="http://www.w3.org/2000/svg" xmlns:xlink="http://www.w3.org/1999/xlink" x="0px" y="0px"
	 viewBox="0 0 405.5 155.9" style="enable-background:new 0 0 405.5 155.9;" xml:space="preserve">
<style type="text/css">
	.st0{fill:#267E3E;}
</style>
<title>idi-logo-horiz</title>
<g>
	<rect x="221.9" y="126.1" class="st0" width="2.6" height="12.2"/>
	<path class="st0" d="M232.9,138.3v-5.4c0.1-0.8-0.4-1.5-1.2-1.6c-0.2,0-0.3,0-0.5,0c-0.8,0-1.5,0.4-2,1v6h-2.3v-8.9h2.3v1.2
		c0.8-0.9,1.9-1.4,3.1-1.4c1.4-0.2,2.7,0.8,2.9,2.2c0,0.2,0,0.4,0,0.6v6.3L232.9,138.3L232.9,138.3z"/>
	<path class="st0" d="M237,133.9c-0.1-2.5,1.9-4.6,4.4-4.6c0.1,0,0.2,0,0.3,0c1.4-0.1,2.7,0.5,3.5,1.6l-1.5,1.4
		c-0.4-0.6-1.1-1-1.9-1c-1.4,0.1-2.5,1.3-2.4,2.7c0.1,1.3,1.1,2.3,2.4,2.4c0.8,0,1.5-0.4,1.9-1l1.5,1.4c-0.8,1.1-2.1,1.7-3.5,1.6
		c-2.5,0.1-4.6-1.8-4.7-4.3C237,134,237,133.9,237,133.9"/>
	<path class="st0" d="M246.1,133.9c0-2.6,2.1-4.7,4.7-4.7s4.7,2.1,4.7,4.7c0,2.6-2.1,4.7-4.7,4.7l0,0c-2.5,0.1-4.6-1.8-4.7-4.3
		C246.1,134.1,246.1,134,246.1,133.9 M253.1,133.9c-0.2-1.3-1.3-2.1-2.6-2c-1.3,0.2-2.1,1.3-2,2.6c0.2,1.1,1.1,2,2.3,2
		c1.3,0,2.3-1.1,2.3-2.4C253.1,134,253.1,133.9,253.1,133.9"/>
	<path class="st0" d="M263.2,138.3v-5.4c0.1-0.8-0.4-1.5-1.2-1.6c-0.2,0-0.3,0-0.5,0c-0.8,0-1.5,0.4-2,1v6h-2.3v-8.9h2.3v1.2
		c0.8-0.9,1.9-1.4,3.1-1.4c1.4-0.2,2.7,0.8,2.9,2.2c0,0.2,0,0.4,0,0.6v6.3L263.2,138.3L263.2,138.3z"/>
	<path class="st0" d="M268.3,136.1v-4.6h-1.5v-2h1.5v-2.4h2.4v2.4h1.8v2h-1.8v4c0,0.5,0.3,1,0.8,1c0.3,0,0.6-0.1,0.8-0.3l0.5,1.8
		c-0.6,0.4-1.2,0.6-1.9,0.6c-1.2,0.2-2.3-0.7-2.5-1.9C268.3,136.5,268.3,136.3,268.3,136.1"/>
	<path class="st0" d="M274.1,138.3v-8.9h2.3v1.2c0.7-0.9,1.7-1.4,2.8-1.4v2.3c-0.2,0-0.4-0.1-0.6-0.1c-0.8,0-1.6,0.4-2.2,1v5.9
		H274.1z"/>
	<path class="st0" d="M280.1,133.9c0-2.6,2.1-4.7,4.7-4.7s4.7,2.1,4.7,4.7c0,2.6-2.1,4.7-4.7,4.7l0,0c-2.5,0.1-4.6-1.8-4.7-4.3
		C280.1,134.1,280.1,134,280.1,133.9 M287.1,133.9c-0.2-1.3-1.3-2.1-2.6-2c-1.3,0.2-2.1,1.3-2,2.6c0.2,1.1,1.1,2,2.3,2
		c1.3,0,2.3-1.1,2.3-2.4C287.1,134,287.1,133.9,287.1,133.9"/>
	<path class="st0" d="M296,138.3V126h4.8c3.8,0,6.5,2.4,6.5,6.1s-2.7,6.1-6.5,6.1L296,138.3z M304.7,132.2c0.1-2-1.3-3.7-3.3-3.8
		c-0.2,0-0.4,0-0.5,0h-2.2v7.6h2.2c2,0.1,3.7-1.5,3.8-3.5C304.7,132.5,304.7,132.3,304.7,132.2"/>
	<path class="st0" d="M308.5,133.9c-0.1-2.5,1.9-4.6,4.4-4.6c0.1,0,0.1,0,0.2,0c2.6,0,4.4,2,4.4,4.9v0.5h-6.6c0.2,1.2,1.3,2.1,2.6,2
		c0.9,0,1.7-0.3,2.4-0.9l1,1.5c-1,0.8-2.3,1.3-3.7,1.2c-2.5,0.1-4.6-1.8-4.7-4.2C308.5,134.1,308.5,134,308.5,133.9 M313.1,131.1
		c-1.2,0-2.1,0.9-2.2,2h4.4c0-1.1-0.9-2-2-2C313.2,131.1,313.1,131.1,313.1,131.1"/>
	<polygon class="st0" points="321.3,138.3 317.8,129.4 320.3,129.4 322.6,135.6 324.9,129.4 327.4,129.4 323.8,138.3 	"/>
	<path class="st0" d="M328.4,132.2c0-3.5,2.8-6.4,6.3-6.5c3.5,0,6.4,2.8,6.5,6.3c0,3.5-2.8,6.4-6.3,6.5h-0.1
		c-3.4,0.1-6.3-2.5-6.4-5.9C328.4,132.5,328.4,132.3,328.4,132.2 M338.5,132.2c-0.1-2.1-1.9-3.6-4-3.5s-3.6,1.9-3.5,4
		c0.1,2,1.8,3.5,3.7,3.5c2,0,3.7-1.6,3.7-3.7C338.5,132.4,338.5,132.3,338.5,132.2"/>
	<path class="st0" d="M345.3,137.2v4.5H343v-12.3h2.3v1.1c0.7-0.9,1.7-1.3,2.7-1.3c2.3,0,3.9,1.7,3.9,4.6s-1.7,4.7-3.9,4.7
		C346.9,138.5,345.9,138,345.3,137.2 M349.5,133.9c0.1-1.3-0.7-2.4-2-2.5c-0.1,0-0.2,0-0.2,0c-0.8,0-1.5,0.4-2,1v3.1
		c0.5,0.6,1.2,1,2,1c1.3,0,2.3-1.1,2.3-2.3C349.5,134,349.5,133.9,349.5,133.9"/>
	<path class="st0" d="M352.9,137.1l1-1.6c0.9,0.7,1.9,1.2,3.1,1.2c1,0,1.5-0.4,1.5-1c0-1.5-5.3-0.3-5.3-3.8c0-1.5,1.3-2.8,3.6-2.8
		c1.3,0,2.6,0.4,3.6,1.2l-0.9,1.6c-0.7-0.7-1.7-1-2.6-1c-0.8,0-1.4,0.4-1.4,0.9c0,1.3,5.3,0.2,5.3,3.8c0,1.6-1.4,2.8-3.8,2.8
		C355.4,138.5,353.9,138.1,352.9,137.1"/>
	<rect x="367.1" y="126.1" class="st0" width="2.6" height="12.2"/>
	<path class="st0" d="M372.6,136.1v-4.6h-1.5v-2h1.5v-2.4h2.3v2.4h1.8v2h-1.8v4c0,0.5,0.3,1,0.8,1c0.3,0,0.6-0.1,0.8-0.3l0.5,1.8
		c-0.6,0.4-1.2,0.6-1.9,0.6c-1.2,0.2-2.3-0.7-2.5-1.9C372.6,136.5,372.6,136.3,372.6,136.1"/>
	<path class="st0" d="M383.8,138.3v-1c-0.7,0.8-1.7,1.2-2.8,1.1c-1.7,0.1-3-1.3-3.1-2.9l0,0c0-1.6,1.2-2.9,2.8-2.9
		c0.1,0,0.2,0,0.3,0c1-0.1,2.1,0.3,2.8,1.1v-1.2c0-0.9-0.8-1.5-1.9-1.5c-1,0-1.9,0.4-2.6,1l-0.9-1.6c1.1-0.9,2.5-1.4,3.9-1.4
		c2,0,3.9,0.8,3.9,3.4v5.8L383.8,138.3L383.8,138.3z M383.8,136.2v-1.1c-0.5-0.5-1.1-0.8-1.8-0.8c-0.9,0-1.7,0.5-1.7,1.3
		s0.8,1.3,1.7,1.3C382.7,137,383.4,136.8,383.8,136.2"/>
	<rect x="388.5" y="126.1" class="st0" width="2.3" height="12.2"/>
	<path class="st0" d="M392.9,127.1c0.1-0.8,0.7-1.3,1.5-1.3c0.7,0.1,1.2,0.6,1.3,1.3c0.1,0.8-0.5,1.4-1.3,1.5s-1.4-0.5-1.5-1.3
		C392.9,127.2,392.9,127.2,392.9,127.1 M393.1,129.4h2.3v8.9h-2.3V129.4z"/>
	<path class="st0" d="M403.1,138.3v-1c-0.7,0.8-1.7,1.2-2.8,1.1c-1.7,0.1-3-1.3-3.1-2.9l0,0c0-1.6,1.2-2.9,2.8-2.9
		c0.1,0,0.2,0,0.3,0c1-0.1,2.1,0.3,2.8,1.1v-1.2c0-0.9-0.8-1.5-1.9-1.5c-1,0-1.9,0.4-2.6,1l-0.9-1.6c1.1-0.9,2.5-1.4,3.9-1.4
		c2,0,3.9,0.8,3.9,3.4v5.8L403.1,138.3L403.1,138.3z M403.1,136.2v-1.1c-0.5-0.5-1.2-0.8-1.9-0.8c-0.9,0-1.7,0.5-1.7,1.3
		s0.8,1.3,1.7,1.3C401.9,137,402.6,136.8,403.1,136.2"/>
	<path class="st0" d="M259.4,28.3h-35.9c-0.9,0-1.6,0.7-1.6,1.6l0,0v82.7c0,0.9,0.7,1.5,1.6,1.6h0.1c20.9-0.9,37.4-18.1,37.4-39
		V29.9C261,29,260.3,28.3,259.4,28.3L259.4,28.3"/>
	<path class="st0" d="M315.6,28.3h-41.4c-0.4,0-0.8,0.2-1.1,0.5c-0.3,0.3-0.4,0.7-0.4,1.1c0.9,20.9,18.1,37.4,39,37.4h3.9
		c2.2,0.1,3.8,1.9,3.7,4.1c-0.1,2-1.7,3.6-3.7,3.7h-41.4c-0.9,0-1.6,0.7-1.6,1.6v35.9c0,0.9,0.7,1.6,1.6,1.6h41.4
		c23.7,0,42.9-19.2,42.9-42.9S339.3,28.3,315.6,28.3"/>
	<path class="st0" d="M404.9,28.8c-0.3-0.3-0.7-0.4-1.1-0.4h-0.1c-20.9,0.9-37.4,18.1-37.4,39v45.3c0,0.9,0.7,1.6,1.6,1.6h35.9
		c0.9,0,1.6-0.7,1.6-1.6V29.9C405.4,29.5,405.2,29,404.9,28.8"/>
	<rect x="221.9" y="126.1" class="st0" width="2.6" height="12.2"/>
	<path class="st0" d="M232.9,138.3v-5.4c0.1-0.8-0.4-1.5-1.2-1.6c-0.2,0-0.3,0-0.5,0c-0.8,0-1.5,0.4-2,1v6h-2.3v-8.9h2.3v1.2
		c0.8-0.9,1.9-1.4,3.1-1.4c1.4-0.2,2.7,0.8,2.9,2.2c0,0.2,0,0.4,0,0.6v6.3L232.9,138.3L232.9,138.3z"/>
	<path class="st0" d="M237,133.9c-0.1-2.5,1.9-4.6,4.4-4.6c0.1,0,0.2,0,0.3,0c1.4-0.1,2.7,0.5,3.5,1.6l-1.5,1.4
		c-0.4-0.6-1.1-1-1.9-1c-1.4,0.1-2.5,1.3-2.4,2.7c0.1,1.3,1.1,2.3,2.4,2.4c0.8,0,1.5-0.4,1.9-1l1.5,1.4c-0.8,1.1-2.1,1.7-3.5,1.6
		c-2.5,0.1-4.6-1.8-4.7-4.3C237,134,237,133.9,237,133.9"/>
	<path class="st0" d="M246.1,133.9c0-2.6,2.1-4.7,4.7-4.7s4.7,2.1,4.7,4.7c0,2.6-2.1,4.7-4.7,4.7l0,0c-2.5,0.1-4.6-1.8-4.7-4.3
		C246.1,134.1,246.1,134,246.1,133.9 M253.1,133.9c-0.2-1.3-1.3-2.1-2.6-2c-1.3,0.2-2.1,1.3-2,2.6c0.2,1.1,1.1,2,2.3,2
		c1.3,0,2.3-1.1,2.3-2.4C253.1,134,253.1,133.9,253.1,133.9"/>
	<path class="st0" d="M263.2,138.3v-5.4c0.1-0.8-0.4-1.5-1.2-1.6c-0.2,0-0.3,0-0.5,0c-0.8,0-1.5,0.4-2,1v6h-2.3v-8.9h2.3v1.2
		c0.8-0.9,1.9-1.4,3.1-1.4c1.4-0.2,2.7,0.8,2.9,2.2c0,0.2,0,0.4,0,0.6v6.3L263.2,138.3L263.2,138.3z"/>
	<path class="st0" d="M268.3,136.1v-4.6h-1.5v-2h1.5v-2.4h2.4v2.4h1.8v2h-1.8v4c0,0.5,0.3,1,0.8,1c0.3,0,0.6-0.1,0.8-0.3l0.5,1.8
		c-0.6,0.4-1.2,0.6-1.9,0.6c-1.2,0.2-2.3-0.7-2.5-1.9C268.3,136.5,268.3,136.3,268.3,136.1"/>
	<path class="st0" d="M274.1,138.3v-8.9h2.3v1.2c0.7-0.9,1.7-1.4,2.8-1.4v2.3c-0.2,0-0.4-0.1-0.6-0.1c-0.8,0-1.6,0.4-2.2,1v5.9
		H274.1z"/>
	<path class="st0" d="M280.1,133.9c0-2.6,2.1-4.7,4.7-4.7s4.7,2.1,4.7,4.7c0,2.6-2.1,4.7-4.7,4.7l0,0c-2.5,0.1-4.6-1.8-4.7-4.3
		C280.1,134.1,280.1,134,280.1,133.9 M287.1,133.9c-0.2-1.3-1.3-2.1-2.6-2c-1.3,0.2-2.1,1.3-2,2.6c0.2,1.1,1.1,2,2.3,2
		c1.3,0,2.3-1.1,2.3-2.4C287.1,134,287.1,133.9,287.1,133.9"/>
	<path class="st0" d="M296,138.3V126h4.8c3.8,0,6.5,2.4,6.5,6.1s-2.7,6.1-6.5,6.1L296,138.3z M304.7,132.2c0.1-2-1.3-3.7-3.3-3.8
		c-0.2,0-0.4,0-0.5,0h-2.2v7.6h2.2c2,0.1,3.7-1.5,3.8-3.5C304.7,132.5,304.7,132.3,304.7,132.2"/>
	<path class="st0" d="M308.5,133.9c-0.1-2.5,1.9-4.6,4.4-4.6c0.1,0,0.1,0,0.2,0c2.6,0,4.4,2,4.4,4.9v0.5h-6.6c0.2,1.2,1.3,2.1,2.6,2
		c0.9,0,1.7-0.3,2.4-0.9l1,1.5c-1,0.8-2.3,1.3-3.7,1.2c-2.5,0.1-4.6-1.8-4.7-4.2C308.5,134.1,308.5,134,308.5,133.9 M313.1,131.1
		c-1.2,0-2.1,0.9-2.2,2h4.4c0-1.1-0.9-2-2-2C313.2,131.1,313.1,131.1,313.1,131.1"/>
	<polygon class="st0" points="321.3,138.3 317.8,129.4 320.3,129.4 322.6,135.6 324.9,129.4 327.4,129.4 323.8,138.3 	"/>
	<path class="st0" d="M328.4,132.2c0-3.5,2.8-6.4,6.3-6.5c3.5,0,6.4,2.8,6.5,6.3c0,3.5-2.8,6.4-6.3,6.5h-0.1
		c-3.4,0.1-6.3-2.5-6.4-5.9C328.4,132.5,328.4,132.3,328.4,132.2 M338.5,132.2c-0.1-2.1-1.9-3.6-4-3.5s-3.6,1.9-3.5,4
		c0.1,2,1.8,3.5,3.7,3.5c2,0,3.7-1.6,3.7-3.7C338.5,132.4,338.5,132.3,338.5,132.2"/>
	<path class="st0" d="M345.3,137.2v4.5H343v-12.3h2.3v1.1c0.7-0.9,1.7-1.3,2.7-1.3c2.3,0,3.9,1.7,3.9,4.6s-1.7,4.7-3.9,4.7
		C346.9,138.5,345.9,138,345.3,137.2 M349.5,133.9c0.1-1.3-0.7-2.4-2-2.5c-0.1,0-0.2,0-0.2,0c-0.8,0-1.5,0.4-2,1v3.1
		c0.5,0.6,1.2,1,2,1c1.3,0,2.3-1.1,2.3-2.3C349.5,134,349.5,133.9,349.5,133.9"/>
	<path class="st0" d="M352.9,137.1l1-1.6c0.9,0.7,1.9,1.2,3.1,1.2c1,0,1.5-0.4,1.5-1c0-1.5-5.3-0.3-5.3-3.8c0-1.5,1.3-2.8,3.6-2.8
		c1.3,0,2.6,0.4,3.6,1.2l-0.9,1.6c-0.7-0.7-1.7-1-2.6-1c-0.8,0-1.4,0.4-1.4,0.9c0,1.3,5.3,0.2,5.3,3.8c0,1.6-1.4,2.8-3.8,2.8
		C355.4,138.5,353.9,138.1,352.9,137.1"/>
	<rect x="367.1" y="126.1" class="st0" width="2.6" height="12.2"/>
	<path class="st0" d="M372.6,136.1v-4.6h-1.5v-2h1.5v-2.4h2.3v2.4h1.8v2h-1.8v4c0,0.5,0.3,1,0.8,1c0.3,0,0.6-0.1,0.8-0.3l0.5,1.8
		c-0.6,0.4-1.2,0.6-1.9,0.6c-1.2,0.2-2.3-0.7-2.5-1.9C372.6,136.5,372.6,136.3,372.6,136.1"/>
	<path class="st0" d="M383.8,138.3v-1c-0.7,0.8-1.7,1.2-2.8,1.1c-1.7,0.1-3-1.3-3.1-2.9l0,0c0-1.6,1.2-2.9,2.8-2.9
		c0.1,0,0.2,0,0.3,0c1-0.1,2.1,0.3,2.8,1.1v-1.2c0-0.9-0.8-1.5-1.9-1.5c-1,0-1.9,0.4-2.6,1l-0.9-1.6c1.1-0.9,2.5-1.4,3.9-1.4
		c2,0,3.9,0.8,3.9,3.4v5.8L383.8,138.3L383.8,138.3z M383.8,136.2v-1.1c-0.5-0.5-1.1-0.8-1.8-0.8c-0.9,0-1.7,0.5-1.7,1.3
		s0.8,1.3,1.7,1.3C382.7,137,383.4,136.8,383.8,136.2"/>
	<rect x="388.5" y="126.1" class="st0" width="2.3" height="12.2"/>
	<path class="st0" d="M392.9,127.1c0.1-0.8,0.7-1.3,1.5-1.3c0.7,0.1,1.2,0.6,1.3,1.3c0.1,0.8-0.5,1.4-1.3,1.5s-1.4-0.5-1.5-1.3
		C392.9,127.2,392.9,127.2,392.9,127.1 M393.1,129.4h2.3v8.9h-2.3V129.4z"/>
	<path class="st0" d="M403.1,138.3v-1c-0.7,0.8-1.7,1.2-2.8,1.1c-1.7,0.1-3-1.3-3.1-2.9l0,0c0-1.6,1.2-2.9,2.8-2.9
		c0.1,0,0.2,0,0.3,0c1-0.1,2.1,0.3,2.8,1.1v-1.2c0-0.9-0.8-1.5-1.9-1.5c-1,0-1.9,0.4-2.6,1l-0.9-1.6c1.1-0.9,2.5-1.4,3.9-1.4
		c2,0,3.9,0.8,3.9,3.4v5.8L403.1,138.3L403.1,138.3z M403.1,136.2v-1.1c-0.5-0.5-1.2-0.8-1.9-0.8c-0.9,0-1.7,0.5-1.7,1.3
		s0.8,1.3,1.7,1.3C401.9,137,402.6,136.8,403.1,136.2"/>
	<path class="st0" d="M203.1,66.2c-1.4,0.6-11.2,7-17.5,6.3c-5-0.5-3.5-4-3.5-4l0,0c27.4-29.3,12.4-68.2,9.5-68.5
		c-4.5-0.4,1.3,17.5-5.8,38.2c-1.5,5.5-23.9,49.6-35.3-11.2c0,0-0.2-4.2-2.9-4.3c-2.2,0-3,2.1-3,4.7c0,0,4.1,48.5-40.6,48
		c-44.7,0.5-40.6-48-40.6-48c-0.1-2.6-0.8-4.8-3-4.7c-2.7,0.1-2.9,4.3-2.9,4.3C45.9,87.8,23.5,43.7,22,38.2
		C14.9,17.5,20.7-0.4,16.2,0c-2.9,0.3-17.9,39.2,9.5,68.5l0,0c0,0,1.5,3.5-3.5,4c-6.4,0.7-16.1-5.7-17.5-6.3c-5.9-2.6-6.3,3-1.1,7.5
		c0,0,18.1,16.1,40.4,8.8c3.5,1.9,7.2,3.6,10.9,5c-12.1,6.5-19.7,13.8-18,18c1.6,3.9,11,3.9,23.1,0.6c-2.7,5.4-4.1,11.4-4.2,17.4
		c0,23.6,24.5,32.4,48.1,32.4s48.1-8.8,48.1-32.4c-0.1-6.4-1.7-12.6-4.6-18.3c13.5,4.2,24.4,4.5,26.2,0.3s-6.4-11.9-19.1-18.6
		c3.2-1.3,6.3-2.8,9.4-4.4c22.3,7.4,40.4-8.8,40.4-8.8C209.3,69.2,208.9,63.6,203.1,66.2 M116.7,95.6c2.1,0,3.9,1.7,3.9,3.9
		s-1.7,3.9-3.9,3.9s-3.9-1.7-3.9-3.9l0,0C112.8,97.4,114.5,95.6,116.7,95.6 M91,95.8c2,0,3.7,1.7,3.7,3.7s-1.7,3.7-3.7,3.7
		s-3.7-1.7-3.7-3.7S89,95.8,91,95.8L91,95.8 M69.6,137.3c0,0-7-8.9,0.5-25.2c0,0,6.9-14.6,5.4-1.8c0,0-0.9,9-0.7,12.4
		s1.5,10.3,10.4,19.4C85.2,142.1,75.3,143.8,69.6,137.3 M113.8,142.3c-0.3,0-0.6,0-0.9,0h-0.4h-0.4c-0.6,0-1.3-0.1-1.6-0.2l-0.8-0.1
		l-0.4-0.1l-0.6-0.1l-0.7-0.1l-0.6-0.1l-0.6-0.1h-0.3H106c-0.7-0.1-1.4-0.1-2-0.1h-0.3c-0.5,0-1.1,0-1.7,0.1h-0.6h-0.5h-0.3
		l-0.6,0.1l-0.6,0.1l-0.7,0.1l-0.6,0.1l-0.4,0.1l-0.8,0.1c-0.2,0-1,0.1-1.5,0.2H95h-0.4c-0.3,0-0.6,0-0.9,0c-0.6,0-1.2-0.1-1.8-0.3
		c-4.1-1-7.4-4.1-8.7-8.1c-0.1-0.3-0.2-0.6-0.2-0.9l-0.1-0.6c-0.1-0.7-0.2-1.4-0.2-2.1c0-8.5,7.6-11.5,9.2-12.9
		c6.2-5.4,7.7-6.9,11.8-6.9s5.6,1.4,11.8,6.9c1.6,1.4,9.2,4.5,9.2,12.9c0,0.7-0.1,1.4-0.2,2.1c0,0.2-0.1,0.4-0.1,0.6
		c-0.1,0.3-0.1,0.6-0.2,0.9C122.9,138.6,118.7,142,113.8,142.3 M138.1,137.3c-5.7,6.5-15.7,4.8-15.7,4.8
		c8.9-9.1,10.2-15.9,10.4-19.4s-0.7-12.4-0.7-12.4c-1.4-12.8,5.4,1.8,5.4,1.8C145.2,128.5,138.1,137.3,138.1,137.3"/>
	<path class="st0" d="M94.8,126.7c-2,0-3.7,1.7-3.7,3.7s1.7,3.7,3.7,3.7s3.7-1.7,3.7-3.7l0,0C98.5,128.3,96.9,126.7,94.8,126.7"/>
	<path class="st0" d="M112.9,126.5c-2.1,0-3.9,1.7-3.9,3.9c0,2.1,1.7,3.9,3.9,3.9s3.9-1.7,3.9-3.9l0,0
		C116.8,128.2,115,126.5,112.9,126.5"/>
</g>
</svg>
