<?xml version="1.0" encoding="UTF-8"?>
<svg width="386px" height="57px" viewBox="0 0 386 57" version="1.1" xmlns="http://www.w3.org/2000/svg" xmlns:xlink="http://www.w3.org/1999/xlink">
    <!-- Generator: Sketch 50.2 (55047) - http://www.bohemiancoding.com/sketch -->
    <title>Group</title>
    <desc>Created with Sketch.</desc>
    <defs></defs>
    <g id="Page-1" stroke="none" stroke-width="1" fill="none" fill-rule="evenodd">
        <g id="4devops-logo-final_ok" transform="translate(-228.000000, -269.000000)" fill="#343534">
            <g id="Group" transform="translate(228.000000, 269.000000)">
                <path d="M120.0632,45.4662 C119.6372,45.4662 119.4242,45.2532 119.4242,44.8282 L119.4242,1.3262 C119.4242,0.8552 119.6372,0.6182 120.0632,0.6182 L157.8952,0.6182 C158.2752,0.6182 158.4632,0.8552 158.4632,1.3262 L158.4632,5.7892 C158.4632,6.2622 158.2752,6.4982 157.8952,6.4982 L125.1632,6.4982 L125.1632,19.4642 L156.8352,19.4642 C157.2102,19.4642 157.4002,19.7012 157.4002,20.1722 L157.4002,24.6362 C157.4002,25.1092 157.2102,25.3452 156.8352,25.3452 L125.1632,25.3452 L125.1632,39.6562 L157.8952,39.6562 C158.2752,39.6562 158.4632,39.8692 158.4632,40.2942 L158.4632,44.8282 C158.4632,45.2532 158.2752,45.4662 157.8952,45.4662 L120.0632,45.4662 Z" id="Fill-1"></path>
                <path d="M171.1538,0.7599 L171.2248,0.8299 L171.1538,0.8299 L171.1538,0.7599 Z M194.6068,45.3239 C194.5108,45.4189 194.3688,45.4659 194.1808,45.4659 L187.8748,45.4659 C187.6868,45.4659 187.5448,45.4189 187.4488,45.3239 L165.2018,1.5379 L165.2018,1.6799 C165.1078,1.5859 165.0598,1.4449 165.0598,1.2559 C165.0598,1.1139 165.1188,0.9719 165.2398,0.8299 C165.3568,0.6889 165.5108,0.6179 165.6988,0.6179 L170.7988,0.6179 C171.0368,0.6179 171.1408,0.6419 171.1188,0.6889 C171.0958,0.7359 171.1078,0.7839 171.1538,0.8299 L190.7798,39.3029 L191.1338,39.3029 L210.9728,0.7599 C210.9728,0.6649 211.0668,0.6179 211.2568,0.6179 L216.3568,0.6179 C216.5928,0.6179 216.7698,0.6889 216.8868,0.8299 C217.0058,0.9719 217.0668,1.1139 217.0668,1.2559 C217.0668,1.4449 217.0188,1.5859 216.9248,1.6799 L216.9248,1.5379 L194.6068,45.3239 Z" id="Fill-3"></path>
                <path d="M266.6724,21.023 C266.6724,18.614 266.5764,16.536 266.3884,14.788 C266.2004,13.04 265.8464,11.67 265.3264,10.678 C264.6644,8.742 263.1744,7.514 260.8624,6.995 C259.0214,6.523 255.4534,6.286 250.1644,6.286 L243.3614,6.286 C238.0734,6.286 234.4814,6.523 232.5924,6.995 C230.3264,7.514 228.7904,8.742 227.9894,10.678 C227.0894,12.758 226.6404,16.205 226.6404,21.023 L226.6404,24.919 C226.6404,29.737 227.0894,33.186 227.9894,35.264 C228.8364,37.154 230.3974,38.358 232.6634,38.877 C234.5044,39.349 238.0734,39.585 243.3614,39.585 L250.1644,39.585 C255.4074,39.585 258.9504,39.349 260.7914,38.877 C263.1034,38.358 264.6184,37.154 265.3264,35.264 C265.8464,34.272 266.2004,32.903 266.3884,31.154 C266.5764,29.407 266.6724,27.329 266.6724,24.919 L266.6724,21.023 Z M271.9144,32.642 C271.6314,34.863 271.1594,36.705 270.4974,38.168 C269.7904,39.585 268.8424,40.802 267.6634,41.817 C266.4824,42.834 265.0904,43.578 263.4834,44.049 L263.4834,44.12 C262.1144,44.545 260.3404,44.877 258.1704,45.112 C255.9954,45.349 253.3534,45.466 250.2354,45.466 L243.3614,45.466 C236.1824,45.466 231.1984,44.806 228.4124,43.483 C225.2964,42.113 223.1934,39.585 222.1084,35.902 C221.7284,34.532 221.4564,32.619 221.2924,30.163 C221.1274,27.707 221.0434,24.661 221.0434,21.023 C221.0434,18.047 221.1734,15.45 221.4344,13.229 C221.6924,11.01 222.1544,9.191 222.8154,7.774 C223.5234,6.357 224.4554,5.141 225.6144,4.125 C226.7704,3.11 228.1994,2.318 229.9004,1.751 L229.9714,1.751 C232.6154,0.855 237.0794,0.405 243.3614,0.405 L250.2354,0.405 C257.1314,0.405 262.0894,1.091 265.1134,2.46 C266.6244,3.122 267.9124,4.09 268.9744,5.365 C270.0364,6.64 270.8274,8.223 271.3474,10.111 C271.6314,11.435 271.8684,13.324 272.0564,15.78 C272.2444,18.236 272.3404,21.283 272.3404,24.919 C272.3404,27.848 272.1984,30.423 271.9144,32.642 Z" id="Fill-5"></path>
                <path d="M319.9351,12.5918 C319.9351,11.3638 319.7241,10.3248 319.2991,9.4738 C318.8751,8.6238 318.1881,7.9628 317.2431,7.4898 C316.5351,7.1608 315.6611,6.9118 314.6221,6.7468 C313.5821,6.5818 312.3091,6.4978 310.7961,6.4978 L286.7781,6.4978 L286.7781,20.8808 L310.7961,20.8808 C313.7241,20.8808 315.8741,20.5748 317.2431,19.9598 L317.2431,20.0308 C318.1881,19.5588 318.8751,18.8738 319.2991,17.9758 C319.7241,17.0798 319.9351,16.0168 319.9351,14.7888 L319.9351,12.5918 Z M311.0091,26.7618 L286.7781,26.7618 L286.7781,44.8288 C286.7781,45.2538 286.5401,45.4658 286.0701,45.4658 L281.3231,45.4658 C280.8971,45.4658 280.6841,45.2538 280.6841,44.8288 L280.6841,1.3268 C280.6841,0.8548 280.8971,0.6178 281.3231,0.6178 L311.0091,0.6178 C313.6531,0.6178 315.9451,0.8778 317.8811,1.3978 C319.8181,1.9168 321.3541,2.7198 322.4871,3.8058 C323.5751,4.8928 324.4221,6.3688 325.0381,8.2338 C325.6511,10.1008 325.9581,12.3558 325.9581,14.9998 C325.9581,22.8418 320.9741,26.7618 311.0091,26.7618 Z" id="Fill-7"></path>
                <path d="M381.986,42.916 C380.851,43.813 379.373,44.463 377.558,44.864 C375.738,45.266 373.576,45.466 371.073,45.466 L349.108,45.466 C344.67,45.466 341.22,44.451 338.766,42.419 C335.886,40.153 334.444,36.847 334.444,32.5 C334.444,32.075 334.633,31.863 335.009,31.863 L339.475,31.863 C339.901,31.863 340.112,32.075 340.112,32.5 C340.16,33.917 340.418,35.122 340.89,36.114 C341.362,37.106 342.142,37.861 343.23,38.381 C343.983,38.76 344.976,39.067 346.205,39.302 C347.433,39.539 348.873,39.656 350.528,39.656 L370.863,39.656 C372.465,39.656 373.814,39.539 374.899,39.302 C375.986,39.067 376.883,38.736 377.591,38.31 C378.536,37.744 379.198,36.964 379.576,35.972 C379.953,34.98 380.141,33.8 380.141,32.43 C380.141,29.549 378.843,27.589 376.247,26.549 C375.208,26.078 373.837,25.747 372.136,25.557 C370.437,25.369 368.452,25.274 366.184,25.274 L364.485,25.274 C363.871,25.274 363.137,25.298 362.29,25.345 L361.154,25.345 L359.879,25.345 C359.785,25.345 359.666,25.357 359.526,25.381 C359.384,25.405 359.218,25.415 359.03,25.415 L358.107,25.415 C357.116,25.463 356.242,25.486 355.486,25.486 L353.645,25.486 C347.598,25.486 343.088,24.777 340.112,23.36 C336.096,21.472 334.091,17.976 334.091,12.875 C334.091,4.704 338.695,0.618 347.906,0.618 L370.295,0.618 C380.402,0.618 385.457,4.94 385.457,13.583 C385.457,13.962 385.292,14.151 384.96,14.151 L380.354,14.151 C379.976,14.151 379.788,13.962 379.788,13.583 C379.74,12.214 379.482,11.021 379.01,10.005 C378.536,8.991 377.758,8.223 376.671,7.703 C375.066,6.9 372.655,6.498 369.444,6.498 L347.764,6.498 C346.299,6.498 345.083,6.617 344.116,6.853 C343.146,7.09 342.38,7.396 341.812,7.774 C340.489,8.624 339.83,10.348 339.83,12.946 C339.83,15.544 341.128,17.363 343.724,18.401 C345.899,19.299 349.227,19.748 353.716,19.748 L355.912,19.748 C356.903,19.748 358.082,19.724 359.455,19.677 C359.597,19.677 359.748,19.665 359.915,19.641 C360.079,19.617 360.257,19.606 360.445,19.606 L361.367,19.606 C362.219,19.559 362.972,19.535 363.633,19.535 L365.194,19.535 C368.404,19.535 371.192,19.724 373.555,20.102 C375.915,20.48 377.9,21.023 379.505,21.732 C383.71,23.81 385.809,27.424 385.809,32.571 C385.809,37.343 384.536,40.79 381.986,42.916" id="Fill-9"></path>
                <path d="M39.9201,39.5017 L8.9371,39.5017 L39.9201,7.6307 L39.9201,39.5017 Z M110.5781,16.3457 C110.3881,14.0787 110.1761,12.2607 109.9401,10.8907 C109.0421,7.2067 107.0351,4.5387 103.9171,2.8847 C100.8951,1.2317 96.3371,0.4047 90.2431,0.4047 L61.7611,0.4047 C61.3351,0.4047 61.1221,0.6417 61.1221,1.1137 L61.1221,34.5297 L66.8611,34.5297 L66.8611,6.2847 L90.8821,6.2847 C96.8341,6.2847 100.7281,7.2067 102.5711,9.0477 C104.3181,10.8437 105.1941,14.8347 105.1941,21.0217 L105.1941,24.7067 C105.1941,26.9737 105.1441,28.9117 105.0521,30.5167 C104.9561,32.1227 104.7681,33.3277 104.4851,34.1297 C104.0131,36.2557 102.9031,37.6257 101.1541,38.2387 C99.5011,39.0427 96.4541,39.5017 92.0131,39.5017 L45.6591,39.5017 L45.6591,1.1137 C45.6591,0.6417 45.4461,0.4047 45.0231,0.4047 L40.9451,0.4047 C40.2831,0.4047 39.7871,0.6707 39.3281,1.1307 C38.8101,1.6487 0.5551,39.4517 0.5551,39.4517 C0.5041,39.5197 0.0801,39.9297 0.0801,40.5077 L0.0801,44.6727 C0.0801,44.9857 0.3341,45.2397 0.6471,45.2397 L39.9201,45.2397 L39.9201,56.8697 L39.9211,56.8717 L45.6591,56.8717 L45.6591,45.2397 L91.5181,45.2397 C95.5321,45.2397 98.8621,44.8757 101.5091,44.1197 C104.1531,43.3647 106.1121,42.2777 107.3901,40.8607 C108.6171,39.4917 109.5011,37.4717 110.0461,34.8027 C110.5891,32.1347 110.8621,28.7697 110.8621,24.7067 C110.8621,21.4007 110.7661,18.6137 110.5781,16.3457 Z" id="Fill-11"></path>
            </g>
        </g>
    </g>
</svg>