<?xml version="1.0" encoding="utf-8"?>
<!-- Generator: Adobe Illustrator 15.1.0, SVG Export Plug-In . SVG Version: 6.00 Build 0)  -->
<!DOCTYPE svg PUBLIC "-//W3C//DTD SVG 1.1//EN" "http://www.w3.org/Graphics/SVG/1.1/DTD/svg11.dtd">
<svg version="1.1" id="Layer_1" xmlns="http://www.w3.org/2000/svg" xmlns:xlink="http://www.w3.org/1999/xlink" x="0px" y="0px"
	 width="329px" height="279px" viewBox="0 0 329 279" enable-background="new 0 0 329 279" xml:space="preserve">
<g>
	<path fill="#2F559A" d="M64.711,170.108c2.822,0,5.213,0.38,7.173,1.138c1.961,0.757,3.567,1.791,4.822,3.096
		c1.255,1.309,2.156,2.838,2.705,4.588c0.549,1.75,0.824,3.645,0.824,5.682c0,1.726-0.419,3.529-1.255,5.412
		c-0.837,1.882-2.222,3.396-4.156,4.546c1.882,1.149,3.254,2.655,4.116,4.508c0.863,1.857,1.294,3.753,1.294,5.687
		c0,1.828-0.274,3.617-0.824,5.37c-0.549,1.752-1.438,3.307-2.666,4.664c-1.229,1.36-2.835,2.458-4.822,3.294
		c-1.986,0.836-4.39,1.255-7.212,1.255H40.17v-8.625h25.794c1.673,0,3.031-0.562,4.078-1.687c1.045-1.125,1.567-2.6,1.567-4.429
		c0-1.515-0.548-2.848-1.646-4c-1.098-1.147-2.404-1.726-3.92-1.726H40.17v-8.622h25.794c1.673,0,3.031-0.562,4.078-1.687
		c1.045-1.123,1.567-2.495,1.567-4.115c0-1.518-0.548-2.851-1.646-3.998c-1.098-1.151-2.404-1.726-3.92-1.726H40.17v-8.625H64.711z"
		/>
	<path fill="#2F559A" d="M86.506,170.108h8.624v49.238h-8.624V170.108z"/>
	<path fill="#2F559A" d="M127.667,170.108c14.792,0,22.267,8.154,22.423,24.461v0.235c0,16.36-7.447,24.542-22.345,24.542h-3.92
		c-14.896,0-22.345-8.182-22.345-24.542v-0.235c0.052-8.101,1.934-14.203,5.645-18.307c3.711-4.103,9.304-6.154,16.778-6.154
		H127.667z M129.941,210.722c7.683,0,11.524-5.279,11.524-15.838c0-5.54-0.955-9.615-2.861-12.23
		c-1.908-2.613-4.822-3.92-8.742-3.92h-8.154c-3.92,0-6.835,1.307-8.742,3.92c-1.909,2.615-2.861,6.69-2.861,12.23
		c0,10.559,3.84,15.838,11.524,15.838H129.941z"/>
	<path fill="#414042" d="M176.747,170.108c14.897,0,22.343,8.18,22.343,24.54v0.235c-0.156,16.307-7.632,24.463-22.421,24.463
		H156.44v-49.238H176.747z M165.064,210.722h13.8c3.92,0,6.834-1.307,8.741-3.919c1.906-2.613,2.862-6.691,2.862-12.233
		c0-10.556-3.843-15.836-11.524-15.836h-13.879V210.722z"/>
	<path fill="#414042" d="M243.547,178.733h-25.873c-1.518,0-2.823,0.574-3.922,1.726c-1.098,1.147-1.645,2.48-1.645,3.998
		c0,1.62,0.522,2.992,1.566,4.115c1.047,1.125,2.404,1.687,4.078,1.687h25.795v8.622h-25.873c-1.518,0-2.823,0.578-3.922,1.726
		c-1.098,1.152-1.645,2.485-1.645,4c0,1.829,0.522,3.304,1.566,4.429c1.047,1.125,2.404,1.687,4.078,1.687h25.795v8.625h-24.539
		c-2.878,0-5.295-0.419-7.253-1.255c-1.961-0.836-3.557-1.946-4.782-3.333c-1.23-1.383-2.117-2.941-2.666-4.664
		c-0.55-1.726-0.824-3.503-0.824-5.331c0-1.934,0.417-3.829,1.255-5.687c0.836-1.853,2.196-3.358,4.079-4.508
		c-1.937-1.149-3.31-2.664-4.118-4.546c-0.812-1.883-1.216-3.687-1.216-5.412c0-2.037,0.287-3.943,0.863-5.721
		c0.573-1.777,1.475-3.318,2.705-4.628c1.226-1.304,2.821-2.323,4.782-3.056c1.958-0.733,4.351-1.099,7.175-1.099h24.539V178.733z"
		/>
	<path fill="#414042" d="M272.24,219.347c-14.895,0-22.346-8.182-22.346-24.542v-0.235c0.157-16.307,7.633-24.461,22.425-24.461
		h17.953v8.625h-20.147c-3.921,0-6.835,1.307-8.742,3.92c-1.909,2.615-2.86,6.69-2.86,12.23c0,10.559,3.838,15.838,11.524,15.838
		h20.147v8.625H272.24z"/>
</g>
<g>
	<path fill="#939598" d="M101.456,54.649c5.199,0,9.417,4.216,9.417,9.417c0,5.196-4.218,9.414-9.417,9.414
		s-9.414-4.218-9.414-9.414C92.042,58.865,96.257,54.649,101.456,54.649z"/>
	<circle fill="#939598" cx="101.456" cy="40.804" r="9.416"/>
	<circle fill="#939598" cx="101.456" cy="17.548" r="9.414"/>
	<path fill="#939598" d="M126.375,119.998c5.201,0,9.415,4.216,9.415,9.412c0,5.201-4.213,9.417-9.415,9.417
		c-5.199,0-9.414-4.215-9.414-9.417C116.961,124.213,121.176,119.998,126.375,119.998z"/>
	<path fill="#2F559A" d="M203.645,119.998c5.201,0,9.412,4.216,9.412,9.412c0,5.201-4.211,9.417-9.412,9.417
		s-9.417-4.215-9.417-9.417C194.228,124.213,198.443,119.998,203.645,119.998z"/>
	<circle fill="#939598" cx="126.375" cy="106.152" r="9.414"/>
	<path fill="#414042" d="M108.36,77.907c1.387,0,2.512,1.125,2.512,2.512v32.638c0,1.387-1.125,2.51-2.512,2.51H94.554
		c-1.387,0-2.512-1.123-2.512-2.51V80.419c0-1.387,1.125-2.512,2.512-2.512H108.36z"/>
	<path fill="#414042" d="M159.454,101.167c1.387,0,2.512,1.125,2.512,2.507v32.643c0,1.385-1.125,2.51-2.512,2.51h-13.807
		c-1.387,0-2.513-1.125-2.513-2.51v-32.643c0-1.382,1.125-2.507,2.513-2.507H159.454z"/>
	<path fill="#414042" d="M185.002,101.167c1.383,0,2.51,1.125,2.51,2.507v32.643c0,1.385-1.127,2.51-2.51,2.51h-13.809
		c-1.388,0-2.512-1.125-2.512-2.51v-32.643c0-1.382,1.124-2.507,2.512-2.507H185.002z"/>
	<path fill="#414042" d="M159.454,59.075c1.387,0,2.512,1.128,2.512,2.513v32.638c0,1.39-1.125,2.512-2.512,2.512h-13.807
		c-1.387,0-2.513-1.123-2.513-2.512V61.588c0-1.385,1.125-2.513,2.513-2.513H159.454z"/>
	<path fill="#414042" d="M159.454,16.291c1.387,0,2.512,1.123,2.512,2.51v32.643c0,1.382-1.125,2.51-2.512,2.51h-13.807
		c-1.387,0-2.513-1.128-2.513-2.51V18.8c0-1.387,1.125-2.51,2.513-2.51H159.454z"/>
	<path fill="#939598" d="M177.531,77.941c5.201,0,9.412,4.218,9.412,9.415c0,5.201-4.211,9.417-9.412,9.417
		c-5.196,0-9.416-4.216-9.416-9.417C168.115,82.159,172.335,77.941,177.531,77.941z"/>
	<path fill="#414042" d="M235.498,101.48c1.387,0,2.51,1.123,2.51,2.512v32.64c0,1.385-1.123,2.507-2.51,2.507h-13.81
		c-1.387,0-2.51-1.123-2.51-2.507v-32.64c0-1.39,1.123-2.512,2.51-2.512H235.498z"/>
	<path fill="#939598" d="M228.027,78.257c5.201,0,9.416,4.216,9.416,9.417s-4.215,9.414-9.416,9.414
		c-5.196,0-9.417-4.213-9.417-9.414S222.831,78.257,228.027,78.257z"/>
	<path fill="#414042" d="M235.213,35.854c1.388,0,2.516,1.123,2.516,2.507v32.64c0,1.387-1.128,2.51-2.516,2.51h-13.809
		c-1.387,0-2.51-1.123-2.51-2.51v-32.64c0-1.385,1.123-2.507,2.51-2.507H235.213z"/>
	<path fill="#939598" d="M227.748,12.629c5.195,0,9.411,4.216,9.411,9.414c0,5.201-4.216,9.415-9.411,9.415
		c-5.201,0-9.417-4.213-9.417-9.415C218.331,16.845,222.547,12.629,227.748,12.629z"/>
	<path fill="#939598" d="M177.531,54.683c5.201,0,9.412,4.216,9.412,9.412c0,5.201-4.211,9.417-9.412,9.417
		c-5.196,0-9.416-4.216-9.416-9.417C168.115,58.899,172.335,54.683,177.531,54.683z"/>
</g>
<g>
	<path fill="#808285" d="M11.24,251.889c-0.044-1.135-0.093-2.27-0.146-3.404c0.798,0.034,1.592,0.066,2.381,0.094
		c0.789,0.026,1.582,0.039,2.381,0.039c0.798,0,1.587-0.013,2.368-0.039c0.78-0.027,1.57-0.06,2.368-0.094
		c-0.054,0.265-0.08,0.532-0.08,0.797c0,0.267,0.026,0.531,0.08,0.799c-0.568-0.034-1.087-0.071-1.556-0.105
		c-0.471-0.037-0.967-0.071-1.49-0.107c-0.523-0.034-1.096-0.066-1.716-0.094c-0.621-0.026-1.366-0.039-2.235-0.039
		c-0.017,0.568-0.039,1.108-0.066,1.623c-0.027,0.515-0.04,1.101-0.04,1.755c0,0.693,0.004,1.367,0.012,2.021
		c0.01,0.657,0.014,1.155,0.014,1.49c0.781,0,1.481-0.007,2.102-0.026c0.622-0.018,1.189-0.039,1.704-0.066
		c0.514-0.027,0.988-0.054,1.423-0.078c0.435-0.027,0.847-0.06,1.238-0.094c-0.054,0.265-0.081,0.539-0.081,0.824
		c0,0.267,0.027,0.531,0.081,0.799c-0.462-0.054-0.999-0.099-1.61-0.135c-0.611-0.034-1.223-0.057-1.836-0.066
		c-0.611-0.008-1.188-0.018-1.729-0.027c-0.541-0.007-0.971-0.012-1.291-0.012c0,0.159-0.004,0.333-0.014,0.52
		c-0.008,0.187-0.012,0.422-0.012,0.703v1.039v1.596c0,1.01,0.004,1.846,0.012,2.5c0.01,0.657,0.022,1.154,0.041,1.49
		c0.586,0,1.206,0,1.863,0c0.673,0,1.333-0.012,1.982-0.039c0.647-0.026,1.258-0.062,1.835-0.107
		c0.576-0.044,1.077-0.11,1.502-0.199c-0.035,0.125-0.058,0.263-0.066,0.412c-0.009,0.152-0.014,0.289-0.014,0.412
		c0,0.284,0.027,0.515,0.08,0.693c-0.797-0.037-1.592-0.054-2.381-0.054c-0.79,0-1.592,0-2.407,0c-0.816,0-1.623,0-2.422,0
		c-0.798,0-1.605,0.017-2.42,0.054c0.053-1.135,0.102-2.268,0.146-3.393c0.044-1.127,0.066-2.274,0.066-3.445v-4.576
		C11.306,254.179,11.284,253.023,11.24,251.889z"/>
	<path fill="#808285" d="M25.26,260.482c-0.825-2.094-1.724-4.211-2.7-6.358c0.23,0.034,0.452,0.066,0.666,0.094
		c0.212,0.026,0.434,0.039,0.664,0.039c0.195,0,0.39-0.013,0.586-0.039c0.195-0.027,0.39-0.06,0.586-0.094
		c0.549,1.755,1.147,3.48,1.795,5.175c0.647,1.693,1.37,3.429,2.167,5.2c0.354-0.728,0.705-1.512,1.052-2.354
		c0.346-0.841,0.691-1.716,1.037-2.621c0.346-0.904,0.683-1.811,1.011-2.725c0.328-0.915,0.652-1.805,0.972-2.675
		c0.319,0.089,0.593,0.133,0.825,0.133c0.229,0,0.505-0.044,0.825-0.133c-0.958,2.147-1.898,4.265-2.821,6.358
		c-0.922,2.093-1.765,4.187-2.527,6.279c-0.266-0.037-0.542-0.054-0.825-0.054c-0.284,0-0.567,0.017-0.852,0.054
		C26.906,264.669,26.084,262.575,25.26,260.482z"/>
	<path fill="#808285" d="M36.329,257.408c0.381-0.84,0.881-1.524,1.502-2.046c0.622-0.524,1.317-0.904,2.088-1.145
		c0.772-0.24,1.539-0.36,2.301-0.36c0.781,0,1.552,0.12,2.315,0.36c0.762,0.24,1.453,0.62,2.075,1.145
		c0.62,0.521,1.121,1.206,1.503,2.046c0.381,0.844,0.571,1.868,0.571,3.074s-0.19,2.23-0.571,3.073
		c-0.382,0.844-0.883,1.524-1.503,2.049c-0.622,0.522-1.313,0.89-2.075,1.104c-0.764,0.213-1.535,0.318-2.315,0.318
		c-0.762,0-1.529-0.105-2.301-0.318c-0.771-0.214-1.467-0.581-2.088-1.104c-0.621-0.524-1.121-1.205-1.502-2.049
		c-0.382-0.843-0.572-1.867-0.572-3.073S35.946,258.252,36.329,257.408z M38.297,262.637c0.134,0.691,0.359,1.309,0.679,1.851
		c0.319,0.539,0.744,0.971,1.277,1.289c0.532,0.318,1.188,0.478,1.968,0.478c0.781,0,1.437-0.159,1.968-0.478
		c0.533-0.318,0.958-0.75,1.278-1.289c0.319-0.542,0.545-1.159,0.678-1.851c0.133-0.691,0.2-1.409,0.2-2.154s-0.066-1.464-0.2-2.154
		c-0.132-0.691-0.359-1.31-0.678-1.851c-0.32-0.539-0.745-0.971-1.278-1.289c-0.532-0.319-1.188-0.479-1.968-0.479
		c-0.78,0-1.436,0.159-1.968,0.479c-0.533,0.318-0.958,0.75-1.277,1.289c-0.32,0.541-0.545,1.159-0.679,1.851
		c-0.134,0.69-0.2,1.409-0.2,2.154S38.163,261.945,38.297,262.637z"/>
	<path fill="#808285" d="M52.316,252.394c-0.008-0.708-0.022-1.409-0.039-2.101c-0.019-0.69-0.041-1.353-0.066-1.982
		c-0.027-0.63-0.059-1.167-0.093-1.61c0.496,0.091,0.895,0.135,1.197,0.135c0.3,0,0.7-0.044,1.196-0.135
		c-0.036,0.443-0.066,0.98-0.093,1.61c-0.026,0.63-0.049,1.292-0.066,1.982c-0.017,0.691-0.031,1.393-0.039,2.101
		c-0.01,0.711-0.014,1.368-0.014,1.971v4.814c0,0.603,0.004,1.26,0.014,1.968c0.008,0.711,0.022,1.412,0.039,2.103
		c0.017,0.691,0.041,1.349,0.066,1.969c0.027,0.622,0.058,1.135,0.093,1.544c-0.408-0.037-0.807-0.054-1.196-0.054
		c-0.391,0-0.791,0.017-1.197,0.054c0.034-0.409,0.066-0.922,0.093-1.544c0.026-0.62,0.048-1.277,0.066-1.969
		c0.017-0.69,0.031-1.392,0.039-2.103c0.01-0.708,0.014-1.365,0.014-1.968v-4.814C52.33,253.762,52.326,253.104,52.316,252.394z"/>
	<path fill="#808285" d="M60.271,260.482c-0.825-2.094-1.725-4.211-2.7-6.358c0.23,0.034,0.453,0.066,0.666,0.094
		c0.212,0.026,0.434,0.039,0.665,0.039c0.195,0,0.39-0.013,0.585-0.039c0.195-0.027,0.39-0.06,0.586-0.094
		c0.549,1.755,1.147,3.48,1.795,5.175c0.647,1.693,1.37,3.429,2.168,5.2c0.354-0.728,0.705-1.512,1.051-2.354
		c0.346-0.841,0.691-1.716,1.037-2.621c0.345-0.904,0.683-1.811,1.011-2.725c0.329-0.915,0.652-1.805,0.972-2.675
		c0.318,0.089,0.593,0.133,0.825,0.133c0.229,0,0.505-0.044,0.825-0.133c-0.958,2.147-1.898,4.265-2.821,6.358
		c-0.921,2.093-1.765,4.187-2.527,6.279c-0.266-0.037-0.542-0.054-0.825-0.054c-0.284,0-0.567,0.017-0.852,0.054
		C61.917,264.669,61.096,262.575,60.271,260.482z"/>
	<path fill="#808285" d="M73.056,248.536c0.266-0.265,0.586-0.397,0.958-0.397c0.372,0,0.691,0.133,0.957,0.397
		c0.266,0.267,0.399,0.586,0.399,0.958c0,0.373-0.133,0.691-0.399,0.959c-0.266,0.267-0.585,0.399-0.957,0.399
		c-0.373,0-0.692-0.133-0.958-0.399c-0.266-0.268-0.399-0.586-0.399-0.959C72.656,249.122,72.79,248.803,73.056,248.536z
		 M72.99,256.585c-0.027-0.877-0.084-1.698-0.173-2.461c0.496,0.089,0.895,0.133,1.197,0.133c0.3,0,0.7-0.044,1.196-0.133
		c-0.088,0.763-0.146,1.584-0.173,2.461c-0.026,0.878-0.04,1.716-0.04,2.515v2.765c0,0.8,0.014,1.638,0.04,2.515
		c0.027,0.878,0.084,1.672,0.173,2.383c-0.408-0.037-0.807-0.054-1.196-0.054c-0.391,0-0.791,0.017-1.197,0.054
		c0.088-0.711,0.146-1.505,0.173-2.383c0.026-0.877,0.039-1.715,0.039-2.515V259.1C73.029,258.301,73.016,257.463,72.99,256.585z"/>
	<path fill="#808285" d="M87.634,256.267c-0.515-0.684-1.223-1.024-2.127-1.024c-1.243,0-2.15,0.38-2.727,1.142
		c-0.577,0.765-0.865,1.836-0.865,3.221v2.26c0,0.8,0.014,1.638,0.041,2.515c0.025,0.878,0.083,1.672,0.173,2.383
		c-0.408-0.037-0.808-0.054-1.198-0.054c-0.391,0-0.789,0.017-1.197,0.054c0.088-0.711,0.146-1.505,0.173-2.383
		c0.027-0.877,0.041-1.715,0.041-2.515V259.1c0-0.799-0.013-1.637-0.041-2.515c-0.027-0.877-0.084-1.698-0.173-2.461
		c0.497,0.089,0.896,0.133,1.197,0.133c0.141,0,0.297-0.013,0.466-0.039c0.168-0.027,0.368-0.06,0.598-0.094
		c-0.053,0.709-0.08,1.419-0.08,2.128h0.053c0.499-0.763,1.094-1.351,1.788-1.77c0.693-0.417,1.521-0.625,2.483-0.625
		c0.498,0,1,0.07,1.507,0.213s0.965,0.388,1.374,0.733c0.41,0.345,0.743,0.815,1.001,1.409c0.257,0.593,0.387,1.353,0.387,2.274
		c0,0.762-0.019,1.546-0.053,2.355c-0.037,0.806-0.054,1.661-0.054,2.566v1.729c0,0.282,0.004,0.562,0.014,0.839
		c0.009,0.274,0.022,0.534,0.041,0.784c-0.36-0.037-0.737-0.054-1.131-0.054c-0.377,0-0.745,0.017-1.104,0.054
		c0.036-0.922,0.075-1.873,0.12-2.848c0.044-0.976,0.066-1.976,0.066-3.005v-1.623C88.406,257.955,88.149,256.948,87.634,256.267z"
		/>
	<path fill="#808285" d="M94.232,256.267c0.266-0.542,0.634-0.99,1.104-1.343c0.469-0.355,1.011-0.623,1.623-0.8
		c0.613-0.176,1.263-0.267,1.956-0.267c0.337,0,0.661,0.01,0.971,0.026c0.31,0.018,0.705,0.044,1.184,0.081
		c0.408,0.034,0.772,0.062,1.09,0.078c0.32,0.021,0.576,0.027,0.772,0.027c0.992,0,1.71-0.044,2.154-0.132
		c-0.017,0.088-0.031,0.181-0.039,0.279c-0.01,0.098-0.014,0.19-0.014,0.279c0,0.088,0.003,0.182,0.014,0.279
		c0.008,0.098,0.022,0.191,0.039,0.279c-0.515-0.037-1.015-0.076-1.502-0.12c-0.489-0.044-0.972-0.076-1.45-0.093l-0.054,0.054
		c0.55,0.302,0.994,0.768,1.331,1.396c0.336,0.628,0.505,1.28,0.505,1.954c0,1.331-0.449,2.372-1.343,3.127
		c-0.896,0.753-2.098,1.13-3.605,1.13c-0.249,0-0.491-0.01-0.731-0.026c-0.239-0.018-0.483-0.027-0.731-0.027
		c-0.319,0-0.617,0.115-0.891,0.346c-0.276,0.233-0.412,0.524-0.412,0.88c0,0.461,0.11,0.797,0.332,1.01
		c0.222,0.214,0.633,0.328,1.236,0.346c0.497,0.018,0.985,0.032,1.463,0.039c0.479,0.01,0.967,0.024,1.463,0.042
		c0.816,0.017,1.512,0.115,2.088,0.292c0.577,0.179,1.047,0.416,1.411,0.718c0.363,0.302,0.63,0.647,0.798,1.039
		c0.169,0.39,0.254,0.813,0.254,1.277c0,0.62-0.12,1.25-0.36,1.887c-0.239,0.64-0.612,1.216-1.117,1.73
		c-0.506,0.515-1.158,0.938-1.956,1.277c-0.797,0.336-1.756,0.505-2.872,0.505c-1.721,0-3.079-0.341-4.071-1.024
		c-0.994-0.684-1.49-1.618-1.49-2.807c0-0.461,0.084-0.888,0.253-1.277c0.168-0.39,0.385-0.735,0.651-1.036
		c0.267-0.304,0.567-0.542,0.906-0.719c0.336-0.179,0.683-0.311,1.037-0.399v-0.054c-0.55-0.159-0.967-0.427-1.25-0.799
		c-0.284-0.373-0.425-0.813-0.425-1.328c0-0.302,0.057-0.576,0.173-0.826c0.115-0.248,0.261-0.469,0.439-0.664
		c0.176-0.196,0.381-0.355,0.611-0.48c0.23-0.123,0.452-0.204,0.666-0.238v-0.054c-0.816-0.355-1.455-0.855-1.916-1.503
		c-0.462-0.646-0.692-1.458-0.692-2.434C93.833,257.45,93.967,256.806,94.232,256.267z M102.347,267.348
		c-0.622-0.427-1.649-0.64-3.086-0.64c-1.33,0-2.359,0.218-3.086,0.651c-0.728,0.435-1.091,1.219-1.091,2.355
		c0,0.601,0.102,1.115,0.306,1.542c0.205,0.427,0.479,0.772,0.825,1.037c0.347,0.267,0.758,0.463,1.238,0.586
		c0.479,0.125,0.992,0.186,1.542,0.186c0.532,0,1.055-0.071,1.57-0.213c0.514-0.143,0.971-0.353,1.37-0.638
		c0.398-0.284,0.722-0.645,0.971-1.078c0.249-0.434,0.373-0.953,0.373-1.557C103.278,268.517,102.968,267.771,102.347,267.348z
		 M101.044,255.507c-0.533-0.583-1.234-0.878-2.102-0.878c-0.958,0-1.704,0.324-2.235,0.971c-0.532,0.649-0.798,1.513-0.798,2.596
		c0,1.115,0.243,2,0.731,2.647c0.488,0.646,1.245,0.971,2.274,0.971c0.514,0,0.954-0.104,1.316-0.307
		c0.364-0.203,0.666-0.478,0.906-0.826c0.239-0.346,0.416-0.742,0.532-1.196c0.115-0.451,0.173-0.926,0.173-1.424
		C101.842,256.943,101.576,256.093,101.044,255.507z"/>
	<path fill="#808285" d="M115.741,251.928c-0.044-1.125-0.093-2.274-0.146-3.443c0.23,0.034,0.452,0.066,0.665,0.094
		c0.212,0.026,0.425,0.039,0.639,0.039c0.212,0,0.425-0.013,0.639-0.039c0.212-0.027,0.434-0.06,0.664-0.094
		c-0.053,1.169-0.102,2.318-0.146,3.443c-0.044,1.128-0.066,2.275-0.066,3.446v4.576c0,1.172,0.022,2.323,0.066,3.459
		c0.044,1.135,0.093,2.252,0.146,3.353c-0.408-0.037-0.842-0.054-1.303-0.054c-0.462,0-0.896,0.017-1.304,0.054
		c0.053-1.101,0.102-2.218,0.146-3.353c0.044-1.136,0.066-2.287,0.066-3.459v-4.576
		C115.808,254.203,115.786,253.056,115.741,251.928z"/>
	<path fill="#808285" d="M136.2,266.137c-0.346,0.167-0.763,0.318-1.25,0.451c-0.488,0.132-1.033,0.252-1.636,0.36
		c-0.603,0.105-1.233,0.159-1.89,0.159c-1.401,0-2.696-0.201-3.884-0.598c-1.189-0.4-2.213-1.008-3.072-1.824
		c-0.862-0.816-1.535-1.813-2.022-2.992c-0.488-1.18-0.732-2.522-0.732-4.029c0-1.508,0.244-2.854,0.732-4.032
		c0.487-1.179,1.17-2.177,2.048-2.993c0.878-0.815,1.929-1.436,3.153-1.862c1.223-0.427,2.571-0.638,4.044-0.638
		c1.17,0,2.239,0.118,3.205,0.358c0.967,0.24,1.824,0.529,2.567,0.865c-0.142,0.247-0.257,0.586-0.346,1.01
		c-0.088,0.427-0.159,0.781-0.213,1.066l-0.159,0.051c-0.178-0.213-0.425-0.451-0.745-0.718c-0.318-0.265-0.691-0.522-1.116-0.772
		c-0.427-0.247-0.904-0.456-1.438-0.625c-0.532-0.166-1.117-0.252-1.755-0.252c-1.048,0-2.019,0.169-2.915,0.505
		c-0.896,0.338-1.675,0.857-2.34,1.557c-0.666,0.7-1.184,1.588-1.557,2.661s-0.559,2.346-0.559,3.819
		c0,1.47,0.186,2.742,0.559,3.815c0.373,1.074,0.891,1.961,1.557,2.662c0.665,0.698,1.445,1.218,2.34,1.557
		c0.896,0.336,1.867,0.505,2.915,0.505c0.638,0,1.228-0.081,1.769-0.24c0.542-0.159,1.038-0.351,1.49-0.571
		c0.452-0.223,0.86-0.461,1.224-0.718c0.363-0.258,0.669-0.483,0.917-0.68l0.106,0.105l-0.239,1.571
		C136.799,265.813,136.545,265.968,136.2,266.137z"/>
	<path fill="#808285" d="M144.567,249.867c-0.462,0-0.944,0.005-1.449,0.015c-0.506,0.007-1.011,0.024-1.518,0.052
		c-0.505,0.026-0.993,0.059-1.463,0.093c-0.47,0.036-0.891,0.081-1.264,0.135c0.088-0.321,0.134-0.603,0.134-0.853
		c0-0.194-0.045-0.469-0.134-0.824c1.17,0.034,2.315,0.066,3.433,0.094c1.116,0.026,2.261,0.039,3.432,0.039
		c1.17,0,2.314-0.013,3.431-0.039c1.118-0.027,2.262-0.06,3.433-0.094c-0.089,0.355-0.133,0.638-0.133,0.851
		c0,0.23,0.044,0.505,0.133,0.826c-0.373-0.054-0.794-0.099-1.263-0.135c-0.471-0.034-0.958-0.066-1.463-0.093
		c-0.506-0.027-1.011-0.045-1.517-0.052c-0.505-0.01-0.989-0.015-1.45-0.015c-0.053,1.828-0.08,3.664-0.08,5.507v4.576
		c0,1.172,0.022,2.323,0.066,3.459c0.044,1.135,0.093,2.252,0.147,3.353c-0.408-0.037-0.843-0.054-1.304-0.054
		c-0.461,0-0.896,0.017-1.304,0.054c0.054-1.101,0.102-2.218,0.147-3.353c0.044-1.136,0.066-2.287,0.066-3.459v-4.576
		C144.647,253.531,144.62,251.695,144.567,249.867z"/>
	<path fill="#808285" d="M163.07,251.928c-0.044-1.125-0.093-2.274-0.146-3.443c0.23,0.034,0.452,0.066,0.665,0.094
		c0.212,0.026,0.425,0.039,0.639,0.039c0.212,0,0.425-0.013,0.639-0.039c0.212-0.027,0.434-0.06,0.664-0.094
		c-0.053,1.169-0.102,2.318-0.146,3.443c-0.044,1.128-0.066,2.275-0.066,3.446v4.576c0,1.172,0.022,2.323,0.066,3.459
		c0.044,1.135,0.093,2.252,0.146,3.353c-0.408-0.037-0.842-0.054-1.303-0.054c-0.462,0-0.896,0.017-1.304,0.054
		c0.052-1.101,0.102-2.218,0.146-3.353c0.044-1.136,0.066-2.287,0.066-3.459v-4.576C163.137,254.203,163.114,253.056,163.07,251.928
		z"/>
	<path fill="#808285" d="M177.85,256.267c-0.515-0.684-1.226-1.024-2.127-1.024c-1.245,0-2.152,0.38-2.729,1.142
		c-0.576,0.765-0.865,1.836-0.865,3.221v2.26c0,0.8,0.016,1.638,0.039,2.515c0.027,0.878,0.084,1.672,0.175,2.383
		c-0.409-0.037-0.807-0.054-1.199-0.054c-0.39,0-0.789,0.017-1.195,0.054c0.088-0.711,0.146-1.505,0.171-2.383
		c0.029-0.877,0.042-1.715,0.042-2.515V259.1c0-0.799-0.013-1.637-0.042-2.515c-0.024-0.877-0.083-1.698-0.171-2.461
		c0.495,0.089,0.896,0.133,1.195,0.133c0.143,0,0.3-0.013,0.466-0.039c0.17-0.027,0.368-0.06,0.599-0.094
		c-0.052,0.709-0.079,1.419-0.079,2.128h0.055c0.497-0.763,1.093-1.351,1.786-1.77c0.694-0.417,1.522-0.625,2.483-0.625
		c0.497,0,1,0.07,1.507,0.213c0.508,0.143,0.966,0.388,1.375,0.733c0.407,0.345,0.74,0.815,1,1.409
		c0.258,0.593,0.388,1.353,0.388,2.274c0,0.762-0.02,1.546-0.054,2.355c-0.034,0.806-0.055,1.661-0.055,2.566v1.729
		c0,0.282,0.005,0.562,0.015,0.839c0.01,0.274,0.022,0.534,0.04,0.784c-0.358-0.037-0.735-0.054-1.13-0.054
		c-0.378,0-0.745,0.017-1.105,0.054c0.036-0.922,0.076-1.873,0.122-2.848c0.044-0.976,0.063-1.976,0.063-3.005v-1.623
		C178.619,257.955,178.364,256.948,177.85,256.267z"/>
	<path fill="#808285" d="M188.916,248.512c-0.39,0-0.723,0.073-0.997,0.226c-0.274,0.149-0.5,0.346-0.679,0.586
		c-0.177,0.237-0.307,0.517-0.385,0.838c-0.079,0.318-0.121,0.654-0.121,1.01c0,0.318,0.032,0.782,0.101,1.382
		c0.069,0.605,0.149,1.182,0.245,1.73c0.461,0,0.917-0.005,1.37-0.012c0.454-0.01,0.909-0.015,1.37-0.015
		c-0.017,0.088-0.029,0.179-0.039,0.267c-0.01,0.089-0.015,0.177-0.015,0.266c0,0.09,0.005,0.179,0.015,0.267
		s0.022,0.177,0.039,0.265c-0.461-0.017-0.916-0.034-1.37-0.052c-0.453-0.02-0.909-0.026-1.37-0.026c0,1.934,0.005,3.853,0.015,5.76
		c0.008,1.907,0.04,3.826,0.094,5.76c-0.198-0.037-0.397-0.054-0.594-0.054c-0.195,0-0.387,0-0.563,0
		c-0.377,0-0.774,0.017-1.187,0.054c0.125-1.934,0.196-3.846,0.214-5.732c0.017-1.891,0.026-3.819,0.026-5.787
		c-0.318,0-0.637,0.007-0.956,0.026c-0.32,0.018-0.639,0.035-0.96,0.052c0.02-0.088,0.031-0.177,0.041-0.265
		c0.008-0.088,0.013-0.177,0.013-0.267c0-0.089-0.005-0.177-0.013-0.266c-0.01-0.088-0.021-0.179-0.041-0.267
		c0.321,0,0.642,0.005,0.971,0.015c0.328,0.007,0.645,0.012,0.945,0.012c0-0.515,0.055-1.073,0.159-1.676
		c0.105-0.604,0.263-1.196,0.466-1.782c0.204-0.586,0.449-1.14,0.733-1.662c0.284-0.524,0.603-0.963,0.956-1.318
		c0.318-0.318,0.723-0.603,1.21-0.851c0.488-0.247,0.99-0.372,1.506-0.372c0.193,0,0.372,0.026,0.529,0.078
		c-0.015,0.355-0.039,0.711-0.064,1.066c-0.029,0.355-0.041,0.708-0.041,1.063l-0.159,0.078
		C189.953,248.644,189.468,248.512,188.916,248.512z"/>
	<path fill="#808285" d="M197.708,256.014c-0.255-0.09-0.518-0.135-0.784-0.135c-0.427,0-0.807,0.099-1.143,0.295
		c-0.338,0.193-0.622,0.455-0.853,0.784c-0.23,0.328-0.407,0.718-0.532,1.169c-0.125,0.453-0.186,0.937-0.186,1.451v2.926
		c0,1.189,0.004,2.099,0.012,2.729c0.01,0.63,0.042,1.14,0.093,1.529c-0.353-0.037-0.708-0.054-1.063-0.054
		c-0.39,0-0.762,0.017-1.117,0.054c0.054-0.603,0.083-1.424,0.093-2.461c0.01-1.039,0.015-2.312,0.015-3.818v-0.851
		c0-0.691-0.005-1.49-0.015-2.395s-0.039-1.944-0.093-3.113c0.195,0.034,0.382,0.066,0.559,0.094
		c0.177,0.026,0.362,0.039,0.559,0.039c0.162,0,0.328-0.013,0.505-0.039c0.179-0.027,0.365-0.06,0.559-0.094
		c-0.068,0.638-0.11,1.145-0.117,1.518c-0.01,0.372-0.015,0.726-0.015,1.063l0.054,0.027c1.047-1.917,2.216-2.875,3.51-2.875
		c0.162,0,0.299,0.01,0.414,0.026c0.115,0.018,0.263,0.064,0.439,0.133c-0.089,0.213-0.143,0.537-0.159,0.973
		c-0.018,0.435-0.027,0.829-0.027,1.185l-0.187,0.132C198.14,256.2,197.965,256.103,197.708,256.014z"/>
	<path fill="#808285" d="M203.125,254.179c0.671-0.214,1.362-0.321,2.073-0.321c0.638,0,1.226,0.093,1.76,0.279
		c0.529,0.187,0.985,0.453,1.363,0.799c0.377,0.346,0.676,0.763,0.892,1.25c0.216,0.488,0.324,1.024,0.324,1.61
		c0,1.01-0.021,2.018-0.055,3.02c-0.036,1.003-0.054,2.062-0.054,3.179c0,0.214,0.005,0.439,0.015,0.68
		c0.008,0.237,0.049,0.45,0.117,0.637c0.071,0.187,0.175,0.344,0.307,0.466c0.135,0.125,0.334,0.187,0.601,0.187
		c0.089,0,0.182-0.005,0.279-0.013c0.096-0.01,0.189-0.041,0.28-0.093v0.583c-0.196,0.091-0.441,0.162-0.733,0.214
		c-0.292,0.054-0.615,0.08-0.973,0.08c-0.574,0-1.015-0.146-1.321-0.438c-0.307-0.294-0.485-0.669-0.539-1.132
		c-0.638,0.64-1.266,1.11-1.885,1.411c-0.618,0.302-1.378,0.451-2.28,0.451c-0.44,0-0.872-0.062-1.299-0.187
		c-0.421-0.122-0.799-0.328-1.125-0.61c-0.326-0.284-0.593-0.625-0.796-1.024c-0.201-0.399-0.305-0.855-0.305-1.37
		c0-1.063,0.331-1.89,0.995-2.476c0.662-0.586,1.576-0.976,2.743-1.169c0.953-0.159,1.701-0.297,2.24-0.414
		c0.539-0.115,0.938-0.232,1.193-0.357s0.412-0.271,0.463-0.439c0.055-0.169,0.081-0.387,0.081-0.651
		c0-0.444-0.054-0.87-0.161-1.277c-0.105-0.409-0.275-0.762-0.505-1.063c-0.23-0.302-0.532-0.547-0.902-0.733
		c-0.372-0.186-0.826-0.279-1.358-0.279c-0.71,0-1.372,0.159-1.982,0.48c-0.61,0.318-1.068,0.763-1.37,1.328h-0.294v-1.382
		C201.713,254.799,202.448,254.389,203.125,254.179z M206.441,260.404c-0.397,0.07-0.8,0.145-1.204,0.225
		c-0.406,0.079-0.809,0.182-1.206,0.307c-0.396,0.123-0.75,0.292-1.059,0.505c-0.309,0.214-0.557,0.479-0.74,0.797
		c-0.187,0.321-0.279,0.728-0.279,1.226c0,0.833,0.238,1.463,0.716,1.887c0.476,0.427,1.005,0.64,1.588,0.64
		c0.672,0,1.284-0.186,1.839-0.559c0.559-0.372,0.985-0.807,1.284-1.304l0.107-3.99
		C207.186,260.242,206.838,260.333,206.441,260.404z"/>
	<path fill="#808285" d="M214.257,264.872c0.187,0.213,0.407,0.412,0.667,0.598c0.255,0.187,0.549,0.344,0.878,0.466
		c0.328,0.125,0.676,0.187,1.049,0.187c0.338,0,0.661-0.054,0.971-0.159c0.312-0.105,0.585-0.258,0.825-0.451
		c0.238-0.196,0.43-0.443,0.571-0.745c0.143-0.302,0.214-0.647,0.214-1.039c0-0.549-0.154-0.971-0.466-1.263
		c-0.312-0.294-0.696-0.531-1.157-0.718c-0.463-0.187-0.968-0.351-1.517-0.493c-0.55-0.142-1.055-0.34-1.515-0.598
		c-0.461-0.258-0.849-0.601-1.157-1.024c-0.313-0.427-0.466-1.013-0.466-1.758c0-0.583,0.096-1.12,0.292-1.607
		c0.193-0.488,0.478-0.909,0.851-1.265c0.372-0.355,0.833-0.635,1.382-0.838c0.552-0.204,1.182-0.307,1.893-0.307
		c0.654,0,1.208,0.091,1.661,0.267c0.451,0.177,0.883,0.336,1.289,0.479c-0.142,0.267-0.274,0.596-0.396,0.985
		c-0.128,0.39-0.206,0.69-0.24,0.904h-0.318c-0.143-0.427-0.42-0.807-0.826-1.145c-0.409-0.336-0.914-0.505-1.518-0.505
		c-0.265,0-0.531,0.044-0.799,0.132c-0.265,0.091-0.505,0.224-0.716,0.399c-0.216,0.177-0.392,0.409-0.534,0.691
		c-0.143,0.284-0.211,0.623-0.211,1.013c0,0.565,0.154,1.005,0.466,1.315c0.309,0.312,0.696,0.555,1.157,0.73
		c0.461,0.18,0.966,0.334,1.515,0.466c0.549,0.135,1.056,0.321,1.517,0.559c0.461,0.24,0.846,0.574,1.157,0.998
		c0.312,0.427,0.466,1.013,0.466,1.758c0,0.515-0.11,1.02-0.331,1.517c-0.223,0.495-0.544,0.943-0.961,1.343
		c-0.416,0.397-0.917,0.709-1.5,0.932c-0.588,0.221-1.25,0.331-1.995,0.331c-0.818,0-1.5-0.078-2.049-0.237
		c-0.552-0.162-1.013-0.349-1.385-0.56c0.105-0.23,0.218-0.546,0.333-0.945s0.175-0.73,0.175-0.998h0.318
		C213.934,264.465,214.071,264.659,214.257,264.872z"/>
	<path fill="#808285" d="M226.748,250.559c-0.055,0.674-0.094,1.335-0.118,1.982c-0.029,0.647-0.059,1.299-0.093,1.956
		c0.193,0,0.559-0.005,1.088-0.015c0.534-0.008,1.107-0.029,1.73-0.066c-0.02,0.054-0.027,0.152-0.027,0.294v0.265v0.294
		c0,0.123,0.008,0.211,0.027,0.265c-0.23-0.017-0.471-0.029-0.718-0.039c-0.248-0.01-0.515-0.015-0.8-0.015h-1.301
		c-0.02,0.071-0.042,0.355-0.069,0.854c-0.024,0.495-0.049,1.086-0.065,1.77c-0.018,0.681-0.032,1.395-0.039,2.14
		c-0.011,0.745-0.013,1.412-0.013,1.995c0,0.497,0.013,0.985,0.039,1.463c0.024,0.48,0.11,0.909,0.253,1.292
		c0.14,0.382,0.355,0.687,0.64,0.917c0.281,0.229,0.69,0.345,1.22,0.345c0.143,0,0.334-0.017,0.574-0.051
		c0.24-0.037,0.446-0.081,0.625-0.135v0.64c-0.302,0.054-0.635,0.12-0.998,0.198c-0.362,0.081-0.715,0.12-1.051,0.12
		c-1.115,0-1.941-0.274-2.474-0.823c-0.534-0.549-0.799-1.358-0.799-2.422c0-0.478,0.01-0.997,0.027-1.557
		c0.017-0.559,0.041-1.171,0.065-1.836c0.027-0.664,0.05-1.399,0.069-2.208c0.015-0.807,0.024-1.706,0.024-2.701h-0.851
		c-0.143,0-0.292,0.005-0.454,0.015c-0.159,0.01-0.328,0.022-0.504,0.039c0.017-0.104,0.029-0.208,0.039-0.306
		c0.01-0.096,0.015-0.199,0.015-0.304c0-0.091-0.005-0.18-0.015-0.268s-0.022-0.177-0.039-0.268
		c0.799,0.055,1.382,0.081,1.754,0.081c-0.017-0.355-0.029-0.799-0.039-1.331c-0.01-0.531-0.029-1.08-0.065-1.649l2.208-0.931
		H226.748z"/>
	<path fill="#808285" d="M237.297,256.014c-0.258-0.09-0.52-0.135-0.784-0.135c-0.427,0-0.81,0.099-1.145,0.295
		c-0.336,0.193-0.62,0.455-0.851,0.784c-0.23,0.328-0.41,0.718-0.535,1.169c-0.122,0.453-0.186,0.937-0.186,1.451v2.926
		c0,1.189,0.005,2.099,0.015,2.729s0.039,1.14,0.093,1.529c-0.355-0.037-0.711-0.054-1.063-0.054c-0.393,0-0.765,0.017-1.118,0.054
		c0.055-0.603,0.084-1.424,0.094-2.461c0.01-1.039,0.015-2.312,0.015-3.818v-0.851c0-0.691-0.005-1.49-0.015-2.395
		s-0.039-1.944-0.094-3.113c0.196,0.034,0.383,0.066,0.56,0.094c0.176,0.026,0.362,0.039,0.559,0.039
		c0.159,0,0.328-0.013,0.505-0.039c0.177-0.027,0.363-0.06,0.559-0.094c-0.07,0.638-0.112,1.145-0.12,1.518
		c-0.007,0.372-0.012,0.726-0.012,1.063l0.054,0.027c1.044-1.917,2.216-2.875,3.51-2.875c0.162,0,0.299,0.01,0.412,0.026
		c0.117,0.018,0.262,0.064,0.44,0.133c-0.088,0.213-0.142,0.537-0.161,0.973c-0.018,0.435-0.024,0.829-0.024,1.185l-0.187,0.132
		C237.729,256.2,237.552,256.103,237.297,256.014z"/>
	<path fill="#808285" d="M240.62,260.335c0.029-0.664,0.042-1.323,0.042-1.98c0-0.62-0.005-1.294-0.013-2.021
		c-0.01-0.729-0.024-1.464-0.039-2.209c0.441,0.089,0.813,0.133,1.115,0.133c0.284,0,0.647-0.044,1.091-0.133
		c-0.088,1.064-0.154,2.23-0.198,3.498c-0.047,1.27-0.066,2.568-0.066,3.897c0,0.924,0.078,1.627,0.24,2.115
		c0.157,0.487,0.353,0.857,0.583,1.104c0.25,0.285,0.564,0.518,0.946,0.704c0.38,0.186,0.828,0.279,1.343,0.279
		c0.745,0,1.365-0.162,1.863-0.49c0.495-0.328,0.857-0.733,1.088-1.211c0.125-0.302,0.224-0.559,0.294-0.772
		c0.069-0.213,0.128-0.497,0.172-0.851c0.044-0.354,0.071-0.833,0.081-1.438c0.008-0.601,0.012-1.427,0.012-2.473v-2.235
		c0-0.39-0.004-0.763-0.012-1.118c-0.01-0.353-0.022-0.69-0.042-1.01c0.196,0.034,0.383,0.066,0.56,0.094
		c0.179,0.026,0.365,0.039,0.559,0.039c0.195,0,0.382-0.013,0.559-0.039c0.179-0.027,0.355-0.06,0.534-0.094
		c-0.088,1.383-0.142,2.719-0.161,4.003c-0.018,1.287-0.025,2.646-0.025,4.086c0,0.796,0.008,1.578,0.025,2.341
		c0.02,0.762,0.044,1.497,0.08,2.208c-0.355-0.037-0.701-0.054-1.036-0.054c-0.339,0-0.685,0.017-1.04,0.054
		c0.021-0.159,0.032-0.328,0.04-0.508c0.01-0.176,0.015-0.362,0.015-0.556v-1.145h-0.055c-0.46,0.851-1.054,1.476-1.781,1.875
		c-0.729,0.399-1.518,0.598-2.368,0.598c-1.385,0-2.468-0.367-3.257-1.103s-1.187-1.797-1.187-3.18
		C240.581,261.804,240.596,261.002,240.62,260.335z"/>
	<path fill="#808285" d="M255.055,257.502c0.39-0.834,0.899-1.52,1.531-2.062c0.628-0.539,1.351-0.938,2.167-1.196
		c0.813-0.257,1.649-0.387,2.5-0.387c0.976,0,1.848,0.12,2.622,0.36c0.77,0.24,1.324,0.51,1.662,0.811
		c-0.125,0.265-0.235,0.545-0.333,0.839c-0.099,0.291-0.182,0.598-0.253,0.916h-0.213c-0.123-0.229-0.292-0.465-0.505-0.703
		c-0.214-0.24-0.466-0.461-0.76-0.666c-0.292-0.204-0.615-0.373-0.971-0.506c-0.353-0.132-0.745-0.198-1.169-0.198
		c-0.799,0-1.488,0.145-2.062,0.438c-0.578,0.292-1.049,0.696-1.412,1.211c-0.362,0.515-0.627,1.12-0.799,1.821
		c-0.167,0.701-0.25,1.458-0.25,2.274c0,1.829,0.388,3.206,1.169,4.138c0.782,0.932,1.924,1.396,3.435,1.396
		c0.353,0,0.716-0.049,1.088-0.146c0.372-0.096,0.735-0.23,1.093-0.399c0.354-0.167,0.687-0.368,0.995-0.599
		c0.312-0.23,0.584-0.478,0.814-0.745l0.132,0.081c-0.088,0.427-0.142,0.86-0.162,1.304c-0.529,0.425-1.19,0.79-1.98,1.091
		c-0.789,0.302-1.607,0.451-2.46,0.451c-0.763,0-1.53-0.11-2.302-0.331c-0.772-0.223-1.469-0.596-2.088-1.117
		c-0.62-0.524-1.12-1.201-1.503-2.037c-0.382-0.833-0.573-1.853-0.573-3.059C254.469,259.33,254.664,258.338,255.055,257.502z"/>
	<path fill="#808285" d="M271.096,250.559c-0.054,0.674-0.093,1.335-0.117,1.982c-0.029,0.647-0.059,1.299-0.093,1.956
		c0.193,0,0.559-0.005,1.088-0.015c0.534-0.008,1.107-0.029,1.73-0.066c-0.02,0.054-0.027,0.152-0.027,0.294v0.265v0.294
		c0,0.123,0.008,0.211,0.027,0.265c-0.23-0.017-0.471-0.029-0.718-0.039c-0.248-0.01-0.516-0.015-0.8-0.015h-1.301
		c-0.021,0.071-0.042,0.355-0.069,0.854c-0.024,0.495-0.049,1.086-0.066,1.77c-0.017,0.681-0.031,1.395-0.039,2.14
		c-0.01,0.745-0.012,1.412-0.012,1.995c0,0.497,0.012,0.985,0.039,1.463c0.024,0.48,0.11,0.909,0.252,1.292
		c0.141,0.382,0.355,0.687,0.641,0.917c0.281,0.229,0.69,0.345,1.221,0.345c0.142,0,0.333-0.017,0.573-0.051
		c0.24-0.037,0.446-0.081,0.625-0.135v0.64c-0.302,0.054-0.635,0.12-0.998,0.198c-0.362,0.081-0.716,0.12-1.051,0.12
		c-1.115,0-1.941-0.274-2.474-0.823c-0.534-0.549-0.799-1.358-0.799-2.422c0-0.478,0.01-0.997,0.027-1.557
		c0.017-0.559,0.041-1.171,0.065-1.836c0.027-0.664,0.05-1.399,0.069-2.208c0.015-0.807,0.024-1.706,0.024-2.701h-0.851
		c-0.143,0-0.292,0.005-0.453,0.015c-0.16,0.01-0.329,0.022-0.506,0.039c0.018-0.104,0.029-0.208,0.04-0.306
		c0.01-0.096,0.015-0.199,0.015-0.304c0-0.091-0.005-0.18-0.015-0.268c-0.011-0.088-0.022-0.177-0.04-0.268
		c0.8,0.055,1.383,0.081,1.756,0.081c-0.018-0.355-0.03-0.799-0.04-1.331c-0.01-0.531-0.029-1.08-0.065-1.649l2.208-0.931H271.096z"
		/>
	<path fill="#808285" d="M276.111,260.335c0.026-0.664,0.039-1.323,0.039-1.98c0-0.62-0.005-1.294-0.013-2.021
		c-0.007-0.729-0.021-1.464-0.039-2.209c0.443,0.089,0.816,0.133,1.115,0.133c0.284,0,0.647-0.044,1.093-0.133
		c-0.088,1.064-0.156,2.23-0.2,3.498c-0.045,1.27-0.066,2.568-0.066,3.897c0,0.924,0.081,1.627,0.24,2.115
		c0.159,0.487,0.355,0.857,0.586,1.104c0.247,0.285,0.563,0.518,0.943,0.704c0.38,0.186,0.828,0.279,1.343,0.279
		c0.745,0,1.365-0.162,1.863-0.49c0.497-0.328,0.86-0.733,1.091-1.211c0.122-0.302,0.22-0.559,0.294-0.772
		c0.068-0.213,0.127-0.497,0.172-0.851c0.044-0.354,0.068-0.833,0.078-1.438c0.01-0.601,0.015-1.427,0.015-2.473v-2.235
		c0-0.39-0.005-0.763-0.015-1.118c-0.01-0.353-0.02-0.69-0.039-1.01c0.195,0.034,0.382,0.066,0.559,0.094
		c0.177,0.026,0.362,0.039,0.559,0.039s0.383-0.013,0.559-0.039c0.177-0.027,0.354-0.06,0.532-0.094
		c-0.088,1.383-0.142,2.719-0.159,4.003c-0.02,1.287-0.027,2.646-0.027,4.086c0,0.796,0.008,1.578,0.027,2.341
		c0.018,0.762,0.044,1.497,0.078,2.208c-0.353-0.037-0.701-0.054-1.037-0.054c-0.335,0-0.684,0.017-1.036,0.054
		c0.017-0.159,0.029-0.328,0.039-0.508c0.01-0.176,0.015-0.362,0.015-0.556v-1.145h-0.054c-0.461,0.851-1.054,1.476-1.784,1.875
		c-0.726,0.399-1.515,0.598-2.368,0.598c-1.382,0-2.468-0.367-3.257-1.103s-1.185-1.797-1.185-3.18
		C276.071,261.804,276.086,261.002,276.111,260.335z"/>
	<path fill="#808285" d="M296.438,256.014c-0.258-0.09-0.518-0.135-0.787-0.135c-0.424,0-0.804,0.099-1.143,0.295
		c-0.338,0.193-0.622,0.455-0.853,0.784c-0.23,0.328-0.407,0.718-0.529,1.169c-0.125,0.453-0.187,0.937-0.187,1.451v2.926
		c0,1.189,0.005,2.099,0.013,2.729c0.007,0.63,0.041,1.14,0.093,1.529c-0.355-0.037-0.708-0.054-1.063-0.054
		c-0.39,0-0.763,0.017-1.118,0.054c0.052-0.603,0.084-1.424,0.094-2.461c0.007-1.039,0.012-2.312,0.012-3.818v-0.851
		c0-0.691-0.005-1.49-0.012-2.395c-0.01-0.904-0.042-1.944-0.094-3.113c0.193,0.034,0.38,0.066,0.559,0.094
		c0.177,0.026,0.363,0.039,0.56,0.039c0.159,0,0.325-0.013,0.505-0.039c0.179-0.027,0.365-0.06,0.559-0.094
		c-0.071,0.638-0.11,1.145-0.12,1.518c-0.01,0.372-0.015,0.726-0.015,1.063l0.054,0.027c1.049-1.917,2.219-2.875,3.513-2.875
		c0.159,0,0.297,0.01,0.414,0.026c0.112,0.018,0.26,0.064,0.437,0.133c-0.089,0.213-0.143,0.537-0.157,0.973
		c-0.02,0.435-0.029,0.829-0.029,1.185l-0.187,0.132C296.866,256.2,296.694,256.103,296.438,256.014z"/>
	<path fill="#808285" d="M300.189,255.72c1.034-1.24,2.549-1.862,4.534-1.862c0.941,0,1.75,0.146,2.435,0.438
		c0.684,0.294,1.255,0.684,1.718,1.172c0.461,0.487,0.799,1.059,1.022,1.716c0.223,0.656,0.333,1.357,0.333,2.103
		c0,0.177-0.005,0.351-0.013,0.518c-0.01,0.169-0.024,0.343-0.041,0.52c-0.959-0.018-1.904-0.034-2.846-0.054
		c-0.941-0.018-1.89-0.027-2.849-0.027c-0.583,0-1.166,0.01-1.74,0.027c-0.578,0.02-1.159,0.036-1.745,0.054
		c-0.017,0.088-0.024,0.223-0.024,0.399v0.346c0,0.69,0.101,1.338,0.304,1.94c0.206,0.604,0.503,1.123,0.893,1.557
		c0.39,0.437,0.868,0.782,1.437,1.039c0.568,0.258,1.226,0.385,1.971,0.385c0.353,0,0.716-0.049,1.088-0.146
		c0.373-0.096,0.735-0.23,1.093-0.399c0.354-0.167,0.687-0.368,0.996-0.599c0.311-0.23,0.583-0.478,0.813-0.745l0.132,0.081
		l-0.161,1.304c-0.53,0.425-1.191,0.79-1.98,1.091c-0.79,0.302-1.608,0.451-2.461,0.451c-0.956,0-1.831-0.145-2.62-0.438
		c-0.789-0.292-1.474-0.719-2.049-1.277c-0.576-0.559-1.02-1.218-1.331-1.982c-0.31-0.763-0.466-1.586-0.466-2.474
		C298.631,258.674,299.15,256.963,300.189,255.72z M303.116,255.161c-0.453,0.302-0.826,0.679-1.118,1.132
		c-0.294,0.451-0.515,0.949-0.666,1.488c-0.152,0.542-0.245,1.052-0.279,1.529c0.549,0.02,1.122,0.037,1.715,0.054
		c0.594,0.018,1.177,0.027,1.743,0.027c0.586,0,1.179-0.01,1.782-0.027c0.603-0.017,1.188-0.034,1.757-0.054
		c0-0.478-0.042-0.982-0.12-1.515s-0.24-1.029-0.48-1.49c-0.237-0.461-0.568-0.843-0.995-1.145
		c-0.426-0.302-0.985-0.451-1.676-0.451C304.121,254.71,303.567,254.859,303.116,255.161z"/>
	<path fill="#808285" d="M313.303,264.872c0.186,0.213,0.409,0.412,0.666,0.598c0.256,0.187,0.55,0.344,0.878,0.466
		c0.328,0.125,0.677,0.187,1.049,0.187c0.339,0,0.662-0.054,0.974-0.159c0.311-0.105,0.585-0.258,0.825-0.451
		c0.238-0.196,0.427-0.443,0.571-0.745c0.14-0.302,0.213-0.647,0.213-1.039c0-0.549-0.156-0.971-0.465-1.263
		c-0.312-0.294-0.696-0.531-1.157-0.718c-0.463-0.187-0.968-0.351-1.517-0.493c-0.552-0.142-1.057-0.34-1.518-0.598
		s-0.848-0.601-1.157-1.024c-0.312-0.427-0.466-1.013-0.466-1.758c0-0.583,0.099-1.12,0.295-1.607
		c0.193-0.488,0.475-0.909,0.848-1.265c0.372-0.355,0.833-0.635,1.385-0.838c0.552-0.204,1.179-0.307,1.89-0.307
		c0.657,0,1.211,0.091,1.662,0.267c0.45,0.177,0.882,0.336,1.289,0.479c-0.143,0.267-0.274,0.596-0.397,0.985
		c-0.125,0.39-0.205,0.69-0.24,0.904h-0.318c-0.143-0.427-0.417-0.807-0.823-1.145c-0.409-0.336-0.917-0.505-1.52-0.505
		c-0.265,0-0.53,0.044-0.797,0.132c-0.268,0.091-0.505,0.224-0.718,0.399c-0.214,0.177-0.393,0.409-0.532,0.691
		c-0.143,0.284-0.213,0.623-0.213,1.013c0,0.565,0.156,1.005,0.466,1.315c0.309,0.312,0.695,0.555,1.156,0.73
		c0.461,0.18,0.966,0.334,1.518,0.466c0.549,0.135,1.057,0.321,1.517,0.559c0.461,0.24,0.846,0.574,1.157,0.998
		c0.309,0.427,0.466,1.013,0.466,1.758c0,0.515-0.113,1.02-0.333,1.517c-0.221,0.495-0.542,0.943-0.959,1.343
		c-0.416,0.397-0.916,0.709-1.502,0.932c-0.586,0.221-1.25,0.331-1.995,0.331c-0.816,0-1.5-0.078-2.05-0.237
		c-0.549-0.162-1.01-0.349-1.382-0.56c0.105-0.23,0.216-0.546,0.333-0.945c0.113-0.399,0.172-0.73,0.172-0.998h0.318
		C312.979,264.465,313.116,264.659,313.303,264.872z"/>
</g>
</svg>
