<?xml version="1.0" encoding="utf-8"?>
<!-- Generator: Adobe Illustrator 13.0.1, SVG Export Plug-In . SVG Version: 6.00 Build 14948)  -->
<!DOCTYPE svg PUBLIC "-//W3C//DTD SVG 1.1//EN" "http://www.w3.org/Graphics/SVG/1.1/DTD/svg11.dtd">
<svg version="1.1" id="Livello_1" xmlns="http://www.w3.org/2000/svg" xmlns:xlink="http://www.w3.org/1999/xlink" x="0px" y="0px"
	 width="200.822px" height="135.685px" viewBox="0 0 200.822 135.685" enable-background="new 0 0 200.822 135.685"
	 xml:space="preserve">
<g>
	<path fill="#24456F" d="M17.157,128.786c3.623,0,6.585-1.438,8.887-4.303l4.725,4.868c-3.75,4.222-8.17,6.332-13.257,6.332
		c-5.09,0-9.282-1.604-12.573-4.819C1.646,127.646,0,123.593,0,118.692s1.678-8.988,5.035-12.264
		c3.355-3.281,7.459-4.917,12.311-4.917c5.419,0,9.956,2.063,13.612,6.192l-4.584,5.197c-2.332-2.897-5.231-4.345-8.696-4.345
		c-2.774,0-5.146,0.904-7.114,2.714c-1.97,1.815-2.954,4.256-2.954,7.33c0,3.07,0.93,5.535,2.788,7.396
		C12.258,127.854,14.51,128.786,17.157,128.786"/>
	<polygon fill="#24456F" points="36.582,135.302 36.582,102.271 43.957,102.271 43.957,128.739 58.04,128.739 58.04,135.302 	"/>
	<path fill="#24456F" d="M86.967,135.303l-3.072-7.136h-13.85l-3.072,7.136h-7.846l14.275-33.032h7.134l14.275,33.032H86.967z
		 M76.992,112.1l-4.157,9.594h8.268L76.992,112.1z"/>
	<path fill="#24456F" d="M106.134,108.86c-0.712,0.586-1.064,1.355-1.064,2.314c0,0.963,0.43,1.727,1.296,2.295
		c0.868,0.566,2.871,1.238,6.005,2.008c3.139,0.771,5.571,1.931,7.305,3.471c1.729,1.546,2.596,3.801,2.596,6.764
		c0,2.961-1.108,5.364-3.327,7.207c-2.223,1.842-5.149,2.766-8.774,2.766c-5.227,0-9.939-1.938-14.128-5.816l4.393-5.386
		c3.56,3.119,6.855,4.681,9.879,4.681c1.354,0,2.419-0.294,3.192-0.875c0.771-0.587,1.156-1.373,1.156-2.365
		c0-0.994-0.41-1.781-1.227-2.362c-0.82-0.586-2.446-1.177-4.869-1.774c-3.844-0.912-6.655-2.103-8.437-3.566
		c-1.78-1.465-2.668-3.766-2.668-6.899c0-3.136,1.124-5.555,3.379-7.256c2.251-1.702,5.066-2.554,8.432-2.554
		c2.207,0,4.415,0.379,6.619,1.136c2.207,0.755,4.13,1.828,5.765,3.211l-3.73,5.392c-2.866-2.176-5.83-3.26-8.887-3.26
		C107.811,107.989,106.841,108.277,106.134,108.86"/>
	<polygon fill="#24456F" points="142.267,108.648 142.267,135.303 134.894,135.303 134.894,108.648 125.532,108.648 
		125.532,102.271 151.623,102.271 151.623,108.648 	"/>
	<rect x="157.009" y="102.271" fill="#24456F" width="7.373" height="33.032"/>
	<polygon fill="#24456F" points="191.091,102.271 199.972,102.271 189.668,118.195 200.822,135.303 191.844,135.303 
		184.802,124.436 177.807,135.303 168.919,135.303 180.027,118.385 169.675,102.271 178.518,102.271 184.802,112.05 	"/>
	<polygon fill="#D81D56" points="127.239,15.949 118.024,21.266 108.809,26.588 99.595,31.909 90.406,26.605 90.41,26.601 
		81.195,21.283 90.41,15.966 99.625,10.644 99.627,10.639 108.834,15.957 118.052,10.639 108.834,5.318 99.625,0 90.41,5.322 
		81.195,10.644 71.979,15.966 62.764,21.283 71.979,26.605 71.982,26.605 81.168,31.909 81.163,31.909 90.378,37.232 99.595,42.549 
		108.809,37.232 118.024,31.909 127.239,26.588 136.453,21.266 	"/>
	<polygon fill="#24456F" points="89.106,39.351 79.918,34.044 79.918,34.039 70.706,28.723 61.491,23.405 61.491,34.044 
		70.706,39.366 70.706,39.362 79.895,44.669 79.895,44.673 89.106,49.99 89.106,71.279 79.918,65.975 79.918,65.971 70.706,60.648 
		70.706,50.014 61.491,44.692 61.491,55.327 61.491,55.332 61.491,65.971 70.706,71.288 79.895,76.593 79.895,76.597 89.106,81.918 
		98.322,87.241 98.322,77.239 98.322,76.597 98.322,55.312 98.322,44.673 	"/>
	<polygon fill="#24456F" points="100.869,44.673 100.869,87.241 110.082,81.919 110.082,49.99 119.297,44.673 128.512,39.352 
		128.512,60.635 119.297,65.958 119.297,76.598 137.724,65.958 137.724,23.39 	"/>
</g>
</svg>
