<?xml version="1.0" encoding="utf-8"?>
<!-- Generator: Adobe Illustrator 16.0.3, SVG Export Plug-In . SVG Version: 6.00 Build 0)  -->
<!DOCTYPE svg PUBLIC "-//W3C//DTD SVG 1.1//EN" "http://www.w3.org/Graphics/SVG/1.1/DTD/svg11.dtd">
<svg version="1.1" id="Layer_1" xmlns="http://www.w3.org/2000/svg" xmlns:xlink="http://www.w3.org/1999/xlink" x="0px" y="0px"
	 width="841.89px" height="595.28px" viewBox="0 0 841.89 595.28" enable-background="new 0 0 841.89 595.28" xml:space="preserve">
<g>
	<path d="M450.908,162.61H472v-50.379c0-19.423-8.346-31.259-33.08-31.259c-19.727,0-31.866,7.284-34.75,23.824l20.789,1.214
		c1.67-6.07,6.07-8.042,13.202-8.042c7.891,0,12.442,3.49,12.442,11.533v3.49l-14.566,0.607
		c-17.147,0.759-36.116,5.615-36.116,27.314c0,16.844,11.836,23.672,25.493,23.672c12.747,0,20.031-4.704,25.494-11.229V162.61
		L450.908,162.61z M450.452,132.11c0,10.774-7.739,15.478-17.905,15.478c-6.373,0-10.167-2.731-10.167-8.346
		c0-6.525,3.642-10.622,17.147-11.077l10.925-0.455V132.11L450.452,132.11z M457.433,379.149H472v-50.683
		c0-18.968-7.738-30.501-30.955-30.501c-19.121,0-29.743,7.284-32.322,21.852l13.657,0.91c1.669-6.979,7.284-10.925,18.058-10.925
		c11.077,0,16.691,5.159,16.691,17.299v2.731l-13.809,0.455c-20.94,0.759-38.695,6.222-38.695,27.162
		c0,16.085,11.229,23.672,26.859,23.672c12.291,0,20.485-5.614,25.948-12.443V379.149L457.433,379.149z M457.129,348.952
		c0,12.14-8.649,20.03-23.369,20.03c-9.559,0-13.808-4.855-13.808-11.987c0-9.408,5.462-15.479,23.976-16.237l13.201-0.455V348.952
		L457.129,348.952z M487.934,270.804h15.326V160.79h-15.326V270.804L487.934,270.804z M649.086,270.804h10.773v-45.067
		c0-14.416,12.746-25.189,25.948-25.189c12.443,0,17.147,6.524,17.147,20.637v49.62h10.773v-53.262
		c0-16.236-7.891-27.466-25.645-27.466c-12.14,0-22.155,5.767-28.528,14.871v-12.443h-10.47V270.804L649.086,270.804z
		 M487.781,385.371c2.428,16.691,13.202,23.065,32.777,23.065c25.947,0,34.598-15.479,34.598-33.536v-74.658h-11.685v9.104
		c-3.945-5.159-11.381-11.077-24.886-11.077c-22.155,0-33.84,19.575-33.84,41.274c0,21.093,11.685,39.605,33.232,39.605
		c13.354,0,21.548-6.828,25.493-12.291v8.042c0,17.299-7.132,23.672-22.913,23.672c-14.113,0-19.12-3.642-21.396-13.201H487.781
		L487.781,385.371z M543.623,343.944c0,17.299-11.836,25.038-23.064,25.038c-12.291,0-23.369-7.739-23.369-29.59
		c0-22.458,11.229-31.107,23.369-31.107c13.96,0,23.064,8.801,23.064,25.796V343.944L543.623,343.944z M601.438,190.076
		c-22.913,0-36.115,15.781-36.115,41.882c0,26.1,12.596,41.274,36.115,41.274c23.369,0,36.115-15.782,36.115-41.882
		C637.553,205.706,624.503,190.076,601.438,190.076L601.438,190.076L601.438,190.076z M601.438,200.091
		c15.934,0,23.824,12.443,23.824,31.715c0,19.12-7.739,31.411-23.824,31.411c-15.933,0-23.824-12.443-23.824-31.715
		C577.613,212.383,585.354,200.091,601.438,200.091L601.438,200.091L601.438,200.091z M374.732,379.149h18.361v-50.986
		c0-19.271-8.346-30.652-32.322-30.652c-19.575,0-31.107,6.98-33.991,23.369l17.754,1.063c1.517-6.222,6.069-9.712,15.478-9.712
		c8.649,0,14.416,3.49,14.416,13.809v3.49l-13.505,0.606c-18.968,0.911-38.24,5.312-38.24,27.314
		c0,16.389,11.685,23.672,26.1,23.672c12.14,0,19.878-4.704,25.948-11.685V379.149L374.732,379.149z M374.277,348.042
		c0,12.14-8.953,17.905-20.789,17.905c-7.436,0-11.381-3.338-11.381-9.256c0-7.587,4.249-12.595,20.789-13.505l11.381-0.607V348.042
		L374.277,348.042z M453.639,270.804H472v-50.985c0-19.271-8.346-30.652-32.321-30.652c-19.575,0-31.108,6.979-33.991,23.368
		l17.753,1.063c1.518-6.222,6.07-9.712,15.479-9.712c8.649,0,14.416,3.49,14.416,13.809v3.49l-13.506,0.607
		c-18.968,0.91-38.239,5.311-38.239,27.313c0,16.389,11.684,23.672,26.101,23.672c12.139,0,19.878-4.704,25.947-11.684V270.804
		L453.639,270.804z M453.184,239.696c0,12.14-8.953,17.906-20.789,17.906c-7.436,0-11.381-3.339-11.381-9.257
		c0-7.587,4.249-12.595,20.789-13.505l11.381-0.607V239.696L453.184,239.696z M368.055,270.804h21.7V160.79h-22.307v38.087
		c-4.097-5.007-10.774-9.711-22.458-9.711c-21.851,0-35.205,16.995-35.205,41.729c0,28.072,13.05,41.881,34.75,41.881
		c10.925,0,18.816-4.704,23.52-11.836V270.804L368.055,270.804z M367.6,232.564c0,15.478-6.98,22.003-17.147,22.003
		c-9.105,0-17.147-6.525-17.147-23.824c0-15.781,8.042-23.52,17.451-23.52c10.319,0,16.844,6.828,16.844,23.064V232.564
		L367.6,232.564z M511.302,204.492h13.202v43.247c0,17.602,9.256,24.582,22.762,24.582c5.311,0,11.076-0.759,16.691-2.428
		l-2.428-11.685c-3.49,0.759-7.436,1.366-11.078,1.366c-7.738,0-10.773-3.794-10.773-11.988v-43.095h21.244v-12.443h-21.244v-22.762
		h-15.174v22.762h-13.202V204.492L511.302,204.492z M191.729,379.149h24.127v-47.647c0-9.863,7.284-15.022,13.96-15.022
		c5.463,0,9.256,2.883,9.256,12.442v50.228H263.2v-48.406c0-8.043,6.525-14.264,13.809-14.264c5.463,0,9.408,3.187,9.408,12.442
		v50.228h24.127V326.19c0-19.574-9.864-28.68-26.707-28.68c-11.381,0-19.575,5.767-24.127,13.354
		c-3.49-8.346-10.47-13.354-22.914-13.354c-10.167,0-18.513,5.159-22.458,12.14v-9.711h-22.61V379.149L191.729,379.149z
		 M460.619,486.584H472v-48.861c0-19.271-5.311-31.866-29.894-31.866c-18.058,0-28.225,6.222-31.107,20.03l10.773,1.214
		c1.974-7.436,6.98-11.836,20.03-11.836c13.202,0,18.514,6.069,18.514,19.878v2.731l-13.658,0.456
		c-20.029,0.759-39.604,5.311-39.604,26.555c0,15.63,10.925,23.521,26.706,23.521c13.051,0,21.396-5.918,26.859-12.595V486.584
		L460.619,486.584z M460.316,456.235c0,12.898-9.105,22.155-25.342,22.155c-11.229,0-15.933-5.312-15.933-13.81
		c0-11.077,6.373-16.54,28.528-17.45l12.747-0.455V456.235L460.316,456.235z"/>
</g>
</svg>
