<svg xmlns="http://www.w3.org/2000/svg" xmlns:xlink="http://www.w3.org/1999/xlink" viewBox="0 0 623.62 255.12"><defs><style>.cls-1{fill:none;}.cls-2{fill:#fff;}.cls-3{clip-path:url(#clip-path);}.cls-4{clip-path:url(#clip-path-2);}.cls-5{fill:#e3173e;}</style><clipPath id="clip-path"><path class="cls-1" d="M411.71,127.56A109.33,109.33,0,1,1,302.39,18.23,109.32,109.32,0,0,1,411.71,127.56Z"/></clipPath><clipPath id="clip-path-2"><path class="cls-1" d="M394.22,65.74h-13.8l7.93-7.92a110.7,110.7,0,0,0-176.13,134L226,195.48l-6,6A110.7,110.7,0,0,0,394.22,65.74Z"/></clipPath></defs><title>f5</title><g id="BG"><rect class="cls-2" width="623.62" height="255.12"/></g><g id="Logo"><g id="F5_Logo" data-name="F5 Logo"><g class="cls-3"><g class="cls-4"><rect class="cls-5" x="193.05" y="18.23" width="218.66" height="218.66"/></g><path class="cls-2" d="M298.93,137.12c53.85,4.66,74.56,19.16,73.39,39.63-1.07,11.06-11.18,21.11-24.47,22.3-15.81,1.06-23.05-5.32-27.8-12.33-4.18-6.29-8.36-12.6-12.82-19.47-1.21-2-2.8-.71-4.25.7-3.26,3.17-6.36,6.16-9.58,9.24-2.07,1.81-1.61,3.36-.88,4.87,3,7.09,5.81,13.6,8.64,20.06,4.72,2.89,26.88,6.83,43.45,5.59a73.54,73.54,0,0,0,36.88-14c11.47-8.88,19.82-20.86,21.12-39.81.58-11.67-1.57-24.23-11.72-35.6-10.43-11.24-28-20.78-64.22-23,1.88-5.86,3.52-11.24,5.26-16.73,21.64.76,40.9,2.32,57.3,4.45,1.36-6.2,2-12.27,3.55-18.09l-4.27-6c-8.22-.82-16.37-3-25.18-4.08-11.31-1.46-23.15-2.5-35.94-3.09-8.06,24-18.13,54.18-28.46,85.39M284.74,45a95.52,95.52,0,0,0-18,3C247.29,53.23,224,66.78,221.52,88.92c-.32,3.61-.59,7.19-.82,10.89-5.48.46-10.48.86-15.19,1.31-.34,4.23-.58,8.3-.77,12.59,4.77-.28,9.75-.53,15.3-.77a501.47,501.47,0,0,0,2.13,67.83c.37,3.26.72,6.49.3,8.58s-4,3.18-9.09,3l6.24,7.91c18.82,3.47,42.58,5.87,67.31,6.59-.08-2.51-.15-5-.21-7.54-14.86-.84-21.69-3.1-22.87-6-1-2.34-1.17-5.82-1.38-9.27-1.11-22.81-1.48-47.49-1.1-72.27,8.32-.14,16.59-.21,25.27-.31,4.2-1.92,8.16-3.81,12.36-5.69,0-3,0-5.68,0-8.61-12.87.06-25.07.26-37.31.61.35-10.41.76-20,1.37-29.4.44-6.16,4.7-10.66,9.1-11,7.06-.27,13.39,2.53,19.52,5.26,3.38,1.64,6.71,3.26,10.18,5,1.65.45,3.61.82,4.8-.61,2.05-2.43,4-4.69,6-7.06,1.09-1.61.62-2.54.18-3.14-4.41-3.47-8.55-6.59-12.73-9.73-2.59-1.76-6.67-2.14-10.7-2.14-1.61,0-3.22.06-4.71.11"/></g><path class="cls-5" d="M427.31,185.21a6.77,6.77,0,0,1,2.07,5,7.11,7.11,0,0,1-12.14,5.06,7,7,0,0,1-2.07-5.06,7.14,7.14,0,0,1,7.1-7.14A6.78,6.78,0,0,1,427.31,185.21Zm.83-.83a8,8,0,0,0-5.87-2.4,8.28,8.28,0,0,0-5.84,14.1,8.24,8.24,0,0,0,11.71,0,8.26,8.26,0,0,0,0-11.7Zm-4.64,5.46a4.14,4.14,0,0,1-1.52.2h-1.43v-3.3h1.36a4.16,4.16,0,0,1,1.93.35,1.39,1.39,0,0,1,.6,1.32A1.41,1.41,0,0,1,423.5,189.84ZM419,194.72h1.6v-3.56h1.26a3.69,3.69,0,0,1,1.78.29,2.26,2.26,0,0,1,.85,2.08v.73l0,.28a.23.23,0,0,1,0,.11.09.09,0,0,0,.05.07H426l0-.1a.88.88,0,0,1-.08-.46c0-.25,0-.48,0-.68v-.67a2.52,2.52,0,0,0-.5-1.41,2.25,2.25,0,0,0-1.57-.89,3.78,3.78,0,0,0,1.31-.43,2,2,0,0,0,.89-1.8,2.23,2.23,0,0,0-1.4-2.3,7.11,7.11,0,0,0-2.48-.33H419Z"/></g></g></svg>