<?xml version="1.0" encoding="utf-8"?>
<!-- Generator: Adobe Illustrator 16.0.0, SVG Export Plug-In . SVG Version: 6.00 Build 0)  -->
<!DOCTYPE svg PUBLIC "-//W3C//DTD SVG 1.1//EN" "http://www.w3.org/Graphics/SVG/1.1/DTD/svg11.dtd">
<svg version="1.1" id="Livello_1" xmlns="http://www.w3.org/2000/svg" xmlns:xlink="http://www.w3.org/1999/xlink" x="0px" y="0px"
	 width="400px" height="160px" viewBox="8.5 1.5 400 160" style="enable-background:new 8.5 1.5 400 160;" xml:space="preserve">
<style type="text/css">
<![CDATA[
	.st0{fill:#F26851;}
	.st1{fill:#3B3E40;}
]]>
</style>
<g>
	<g>
		<g>
			<path class="st1" d="M144.2,108.5h-8V70.2h8V108.5z M135.1,59c0-1.4,0.5-2.6,1.5-3.6s2.2-1.5,3.6-1.5c1.4,0,2.6,0.5,3.6,1.5
				s1.5,2.2,1.5,3.6s-0.5,2.6-1.5,3.6s-2.2,1.5-3.6,1.5c-1.4,0-2.6-0.5-3.6-1.5S135.1,60.4,135.1,59z"/>
			<path class="st1" d="M158.7,103.6c-3.6-3.6-5.4-8.4-5.4-14.4c0-5.9,1.8-10.7,5.5-14.2s8.1-5.3,13.2-5.3s9.2,2.2,12.3,6.5V55.1h8
				v53.3h-8v-5.8c-3,4.2-7.3,6.3-13,6.3C166.6,109,162.3,107.2,158.7,103.6L158.7,103.6z M164.9,98.5c2.3,2.3,5.1,3.4,8.3,3.4
				s5.8-1.2,8-3.5c2.2-2.3,3.3-5.3,3.3-8.9s-1.1-6.7-3.3-9.1c-2.2-2.4-4.9-3.7-8.1-3.7c-3.2,0-6,1.2-8.3,3.7
				c-2.3,2.4-3.5,5.5-3.5,9.2C161.4,93.2,162.6,96.2,164.9,98.5L164.9,98.5z"/>
			<path class="st1" d="M239.7,92.9h-30c0.2,2.8,1.5,5,3.8,6.7c2.3,1.7,5,2.5,8,2.5c4.8,0,8.4-1.5,10.9-4.5l4.6,5
				c-4.1,4.3-9.5,6.4-16.1,6.4c-5.4,0-9.9-1.8-13.7-5.4s-5.6-8.4-5.6-14.4s1.9-10.8,5.7-14.3s8.4-5.3,13.5-5.3
				c5.2,0,9.6,1.6,13.3,4.7c3.6,3.1,5.5,7.5,5.5,13v5.6H239.7z M209.7,86.5h21.9c0-3.2-1-5.7-3-7.4s-4.5-2.6-7.4-2.6
				c-2.9,0-5.6,0.9-7.9,2.7C210.9,81.1,209.7,83.5,209.7,86.5L209.7,86.5z"/>
			<path class="st1" d="M279.5,108.5h-7.3v-5.1c-3.2,3.8-7.4,5.7-12.7,5.7c-4,0-7.3-1.1-9.9-3.4c-2.6-2.3-3.9-5.3-3.9-9
				c0-3.8,1.4-6.6,4.2-8.4c2.8-1.9,6.5-2.8,11.3-2.8h10.4v-1.4c0-5.1-2.8-7.6-8.5-7.6c-3.5,0-7.2,1.3-11.1,3.9l-3.6-5
				c4.6-3.7,9.9-5.5,15.8-5.5c4.5,0,8.2,1.1,11,3.4c2.8,2.3,4.3,5.9,4.3,10.7V108.5L279.5,108.5z M271.4,94.2V91h-9.1
				c-5.8,0-8.7,1.8-8.7,5.5c0,1.9,0.7,3.3,2.2,4.3c1.4,1,3.4,1.5,6,1.5c2.6,0,4.8-0.7,6.7-2.2C270.5,98.6,271.4,96.7,271.4,94.2z"/>
			<path class="st0" d="M300.2,76.7v19.4c0,1.8,0.5,3.3,1.4,4.3c1,1.1,2.3,1.6,4,1.6c1.7,0,3.4-0.8,5-2.5l3.3,5.7
				c-2.8,2.5-6,3.8-9.4,3.8c-3.4,0-6.3-1.2-8.8-3.6c-2.4-2.4-3.6-5.6-3.6-9.6V76.7h-4.8v-6.5h4.8v-12h8v12h10.1v6.5H300.2z"/>
			<path class="st0" d="M337.6,101.9c3.5,0,6.4-1.2,8.7-3.5c2.3-2.3,3.4-5.3,3.4-9c0-3.7-1.1-6.7-3.4-9c-2.3-2.3-5.2-3.5-8.7-3.5
				s-6.4,1.2-8.7,3.5c-2.3,2.3-3.4,5.3-3.4,9c0,3.7,1.1,6.7,3.4,9C331.2,100.7,334.1,101.9,337.6,101.9z M337.6,109
				c-5.8,0-10.5-1.9-14.4-5.7c-3.8-3.8-5.8-8.5-5.8-14s1.9-10.2,5.8-14c3.8-3.8,8.6-5.7,14.4-5.7c5.7,0,10.5,1.9,14.4,5.7
				c3.8,3.8,5.7,8.5,5.7,14s-1.9,10.2-5.7,14C348.1,107.1,343.4,109,337.6,109z"/>
		</g>
	</g>
	<path class="st0" d="M78.5,84.6l1.3,0.4L79,86.1l-12.5,15.6l9.5,6.9L86.9,92l0.8-1.1l0.8,1.1l10.9,16.6l9.5-6.9L96.6,86.2l-0.8-1.1
		l1.3-0.4l19.2-5.3l-3.6-11.2l-18.6,7l-1.4,0.4v-1.4l1-19.8H81.9l0.9,19.9v1.4l-1.3-0.4l-18.6-7l-3.6,11.2L78.5,84.6L78.5,84.6z"/>
</g>
</svg>
