<svg id="Layer_1" data-name="Layer 1" xmlns="http://www.w3.org/2000/svg" width="198.07184mm" height="103.16707mm" viewBox="0 0 561.46348 292.44208">
  <title>Artboard 1</title>
  <rect width="561.46348" height="292.44208"/>
  <g>
    <path d="M67.28217,199.413c0,8.3999,7.80029,11.7998,14.7998,14.40039l-8.7998,5.20019a20.68948,20.68948,0,0,1-10.59961-18.20019c0-17,16.99951-27.79981,37.99951-27.79981a82.81163,82.81163,0,0,1,17.39941,2V148.41392L102.082,137.014l15.99951-11.3999V99.01451A32.15712,32.15712,0,0,0,91.48187,84.61509c-10.59961,0-17.1997,5.79981-17.1997,13.99952,0,7,7.20019,10.3999,12.7998,10.7998l-8.3999,6a22.72878,22.72878,0,0,1-8.79981-18.3999c0-16.79981,16.19971-32.39942,37.59961-32.39942,14.79981,0,27.19922,7,33.39942,14.19971V183.41343A92.958,92.958,0,0,1,154.8808,192.013V74.4149l19.7998-5.19971L160.4809,102.2147V135.014l37.99951-36.99951,15.1997,16.3999h12.59961l-26.19921,25.39941,17.79931,48.39942,8.2002,4.3999,8.7998-6.19971v5.39991L211.28021,213.413,195.08051,202.013l-8.39991-23.1997-44.39941,39c-11.3999-12.2002-35.59961-31.6001-57.59912-31.6001C73.48236,186.21324,67.28217,191.81334,67.28217,199.413Zm93.19873-57.79883v53.19922l24.1997-21.19971-3.20019-8.79981-7.99951-4.60009,24.39941-21.99951-15.19971-17.6001Z" style="fill: #fff"/>
    <path d="M278.08051,192.61314l8.80029-6.19971v5.39991L263.2807,213.413,238.4809,199.013l9.3999-9.1997V131.61412L238.081,114.01451l9.39991-5.79981c0-15.20019-3.8003-26-11.19971-33.3999l2.19971-3.59961,16.3999,9.19971c5.7998-8.3999,18.19971-14.99951,33-15.3999v2c-14.60059,5.20019-18.00049,24-18.00049,46.59961v74.59863Z" style="fill: #fff"/>
    <path d="M295.079,123.61412l-8.7998,6.20019v-5.3999l23.39941-21.59961,15.7998,14.59961,5.59961-3.6001,1.80079,4.6001-7.60059,10.3999v59.39893l8.20019,4.3999,8.79981-6.19971v5.39991L318.67865,213.413,293.87885,199.013l9.40039-9.1997V128.21422Zm35.999-61.39893,5.2002,26.39942-19.79981,8.3999-2.19921-1.59961,14.59961-33.99951Z" style="fill: #fff"/>
    <path d="M389.47845,192.61314l8.79981-6.19971v5.39991L374.67865,213.413,349.87885,199.013l9.40039-9.1997V128.21422l-8.2002-4.6001-8.7998,6.20019v-5.3999l23.39941-21.59961c8.2002,3.79981,14.59961,10.79981,15.40039,22.59961l27.59961-23.19971c10.39941,2.79981,19.19922,11.59961,20.39941,23.19971l27.59961-23.19971,20.79981,15.19971,5.59961-3.6001,1.7998,4.6001-7.59961,10.3999v59.39893l8.2002,4.3999,8.7998-6.19971v5.39991L470.67767,213.413l-15.40039-9V130.014l-12.39941-7.7998-13.59961,9.60009v56.39893l8.19922,4.3999,8.7998-6.19971v5.39991L422.67767,213.413l-15.39941-9V130.014l-12.39941-7.7998-13.60059,9.60009v56.39893Z" style="fill: #fff"/>
  </g>
</svg>
