<?xml version="1.0" encoding="utf-8"?>
<!-- Generator: Adobe Illustrator 16.0.3, SVG Export Plug-In . SVG Version: 6.00 Build 0)  -->
<!DOCTYPE svg PUBLIC "-//W3C//DTD SVG 1.1//EN" "http://www.w3.org/Graphics/SVG/1.1/DTD/svg11.dtd">
<svg version="1.1" xmlns="http://www.w3.org/2000/svg" xmlns:xlink="http://www.w3.org/1999/xlink" x="0px" y="0px" width="623.6px"
	 height="255.1px" viewBox="0 0 623.6 255.1" style="enable-background:new 0 0 623.6 255.1;" xml:space="preserve">
<style type="text/css">
<![CDATA[
	.st0{clip-path:url(#SVGID_2_);}
	.st1{fill:#FFFFFF;}
	.st2{clip-path:url(#SVGID_2_);fill:#3258A6;}
]]>
</style>
<g id="BG">
	<rect class="st1" width="623.6" height="255.1"/>
</g>
<g id="Logo">
	<g>
		<defs>
			<rect id="SVGID_1_" x="14.6" y="0.4" width="594.4" height="254.3"/>
		</defs>
		<clipPath id="SVGID_2_">
			<use xlink:href="#SVGID_1_"  style="overflow:visible;"/>
		</clipPath>
		<path class="st0" d="M109.8,73.4c-1.4-4.3-3.4-8.1-6.1-11.3c-2.7-3.2-5.9-5.8-9.7-7.7c-3.8-1.9-8.2-2.8-13-2.8
			c-3.4,0-6.5,0.4-9.3,1.1c-2.8,0.7-5.2,1.7-7.3,2.8c-2.1,1.1-3.9,2.4-5.3,3.8c-1.4,1.4-2.5,2.8-3.1,4.1l-1.3-5.6
			c-0.2-0.6-0.4-1.3-0.7-1.9c-0.2-0.6-0.5-1.1-0.9-1.6c-0.4-0.5-0.9-0.8-1.4-1.1c-0.6-0.3-1.2-0.4-2-0.4h-9.7
			c-0.6,0-1.1,0.1-1.8,0.2c-0.6,0.1-1.2,0.4-1.8,0.9l0.4-0.2c-0.6,0.4-1.1,0.9-1.5,1.6c-0.4,0.7-0.5,1.4-0.5,2.2v44.8h24.6V87.7
			c0.1-1.9,0.6-3.7,1.6-5.3c0.9-1.6,2-3.1,3.4-4.3c1.3-1.2,2.8-2.2,4.4-2.8c1.6-0.7,3.2-1,4.7-1c1.8,0,3.6,0.4,5.3,1.1
			c1.7,0.7,3.3,1.7,4.6,3c1.4,1.3,2.5,2.7,3.3,4.4c0.8,1.6,1.2,3.4,1.2,5.2v41.6c0,1.8,0.3,3,1,3.6c0.7,0.6,1.9,0.9,3.8,0.9h14.8
			c1.5,0,2.7-0.4,3.4-1.2c0.7-0.8,1.1-2.1,1.1-3.7V87.2C111.8,82.3,111.2,77.7,109.8,73.4"/>
		<path class="st0" d="M204.5,59.1c-0.9-1.8-1-3.2-0.5-4.5c0.5-1.2,1.8-1.9,3.8-1.9h16.4c1.1,0,2.1,0.3,2.9,0.9
			c0.8,0.6,1.4,1.5,1.8,2.6c0.7,2.3,1.5,4.8,2.4,7.6c0.9,2.8,1.8,5.6,2.8,8.5c1,2.9,1.9,5.8,2.8,8.6c0.9,2.9,1.8,5.5,2.6,7.9
			c0.8,2.4,1.5,4.5,2.1,6.3c0.6,1.8,1.1,3.1,1.4,3.8l13.6-42.8c0.6-1.4,1.2-2.3,1.9-2.8c0.7-0.5,1.7-0.7,3-0.7h15.2
			c1.2,0,2.2,0.2,2.8,0.4c0.6,0.3,1.1,0.7,1.3,1.2c0.2,0.5,0.3,1.1,0.1,1.8c-0.1,0.7-0.3,1.4-0.6,2.1l-7,17.2c0.3,0.7,0.9,2,1.7,3.7
			c0.9,1.7,1.8,3.7,2.9,5.9c1.1,2.2,2.2,4.5,3.3,6.9c1.1,2.4,2.1,4.7,2.8,6.7l15.7-42.5c0.6-1.4,1.1-2.3,1.7-2.8
			c0.6-0.5,1.4-0.7,2.6-0.7H318c2,0,3.5,0.4,4.2,1.2c0.8,0.8,0.8,2.2,0.1,4.3l-30,73c-0.4,0.8-1,1.4-1.8,1.9
			c-0.8,0.5-1.9,0.8-3.4,0.8h-6.7c-1.7,0-2.9-0.3-3.6-0.8c-0.8-0.5-1.4-1.2-1.9-2.1l-11.9-29l-11.7,29.2c-0.5,0.8-1,1.4-1.7,1.9
			c-0.6,0.5-1.6,0.8-2.9,0.8h-7.6c-1.7,0-2.9-0.2-3.6-0.7c-0.7-0.5-1.2-1.2-1.6-2L204.5,59.1z"/>
		<path class="st0" d="M401.7,115.7c-2.8,4.3-6.2,7.9-10.3,11c-4.1,3-8.6,5.2-13.7,6.5c-5.7,1.5-11.3,1.8-16.8,1
			c-5.6-0.8-10.7-2.5-15.5-5.2c-4.7-2.7-8.9-6.2-12.4-10.6c-3.5-4.4-6-9.5-7.5-15.3c-0.9-3.6-1.4-7.3-1.4-10.9
			c0-3.6,0.5-7.1,1.3-10.5c0.9-3.4,2.1-6.6,3.8-9.7c1.7-3.1,3.8-5.9,6.2-8.4c2.4-2.5,5.2-4.7,8.4-6.6c3.1-1.9,6.6-3.3,10.3-4.2
			c3.4-0.9,6.9-1.3,10.3-1.2c3.5,0.1,6.8,0.6,10.1,1.5c3.3,0.9,6.4,2.2,9.3,4c2.9,1.7,5.6,3.7,8,6c2.4,2.3,4.5,4.9,6.2,7.8
			c1.7,2.9,3,6,3.9,9.3c0.6,2.1,1,3.9,1.3,5.3c0.3,1.4,0.2,2.5-0.1,3.5c-0.4,1-1.2,1.8-2.5,2.4c-1.3,0.7-3.2,1.3-5.8,2l-44.6,11.5
			c1.1,2.5,2.5,4.5,4.2,6s3.5,2.5,5.5,3.1c1.9,0.6,3.9,0.9,5.8,0.9c2,0,3.8-0.2,5.4-0.7c1.5-0.4,3-0.9,4.5-1.6
			c1.5-0.7,2.9-1.5,4.2-2.4c1.3-0.9,2.5-1.8,3.6-2.8c1-1,1.8-2,2.4-2.9c0.5-0.7,1-1.3,1.4-1.6c0.4-0.4,0.9-0.7,1.4-0.8
			c0.5-0.1,1.1-0.1,1.8,0.1c0.7,0.2,1.4,0.6,2.3,1.1l8.5,5.7c0.6,0.4,1,0.8,1.2,1.2c0.2,0.4,0.4,0.8,0.5,1.3
			c0.2,0.8,0.2,1.6-0.1,2.3C402.6,114.4,402.2,115.1,401.7,115.7 M358.7,71.8c-1.6,0.4-3.1,1.1-4.4,2.2c-1.3,1-2.5,2.2-3.6,3.7
			c-1,1.4-1.9,2.9-2.6,4.6c-0.7,1.6-1.2,3.2-1.5,4.8l31.7-8.1c-1.3-1.4-2.6-2.6-4-3.7c-1.4-1.1-2.8-2-4.4-2.7
			c-1.6-0.7-3.3-1.1-5.1-1.3C362.9,71,360.9,71.2,358.7,71.8"/>
		<path class="st0" d="M427.5,108.8c1.2,1.2,2.4,2.1,3.7,2.9c1.3,0.8,2.6,1.4,3.9,1.9c1.2,0.5,2.3,0.8,3.3,1.1
			c0.9,0.2,1.6,0.3,1.9,0.3c0.8,0,1.8,0,3.1-0.1c1.3-0.1,2.5-0.3,3.6-0.6c1.2-0.3,2.1-0.8,3-1.6c0.8-0.7,1.2-1.7,1.2-3.1
			c0-1.2-0.2-2.1-0.7-2.8c-0.5-0.7-1.2-1.3-2-1.8c-0.9-0.5-2-0.9-3.3-1.3c-1.3-0.4-2.8-0.8-4.4-1.3c-5.1-1.4-9.3-3-12.7-4.9
			c-3.3-1.9-6-4.1-7.9-6.4c-1.9-2.4-3.3-4.9-4.1-7.6c-0.8-2.7-1.2-5.6-1.2-8.6c0-3.5,0.7-6.8,2.1-9.7c1.4-2.9,3.4-5.4,6-7.5
			c2.6-2.1,5.7-3.7,9.3-4.8c3.6-1.1,7.7-1.7,12.1-1.7c2.7,0,5.2,0.2,7.5,0.7c2.3,0.4,4.6,1.2,6.7,2.1c2.1,1,4.2,2.2,6.2,3.7
			c2,1.5,4,3.3,6,5.4c0.7,0.9,1.1,1.7,1.1,2.4c0,0.7-0.5,1.5-1.4,2.4c-1.7,1.4-3.3,2.7-4.8,4c-1.5,1.3-3.1,2.8-4.7,4.4
			c-0.5,0.4-1,0.7-1.5,0.8c-0.5,0.1-1,0.1-1.5,0c-0.5-0.1-0.9-0.3-1.3-0.6c-0.4-0.3-0.8-0.7-1.2-1.1c-1.5-1.7-3.2-2.8-5.1-3.4
			c-1.9-0.6-3.7-0.9-5.4-0.9c-2.1,0-3.8,0.4-5,1.1c-1.2,0.7-1.8,1.8-1.7,3.3c0.1,1.1,0.5,2,1.2,2.6c0.7,0.6,1.7,1.1,2.8,1.5
			c1.1,0.4,2.2,0.7,3.5,0.9c1.2,0.2,2.3,0.5,3.4,0.8c3.8,1.2,7.4,2.6,10.6,4c3.2,1.5,6,3.2,8.3,5.3c2.3,2.1,4.2,4.6,5.5,7.6
			c1.3,2.9,1.9,6.5,1.9,10.7c0,4.2-0.8,8-2.5,11.3c-1.7,3.3-4,6.1-6.9,8.4c-2.9,2.3-6.4,4-10.5,5.2c-4,1.2-8.4,1.8-13,1.8
			c-2.6,0-5.3-0.2-8.1-0.7c-2.7-0.5-5.4-1.2-7.9-2.3c-2.6-1-5-2.4-7.3-4c-2.3-1.6-4.3-3.6-6.1-6c-0.5-0.6-0.8-1.2-1.1-1.9
			c-0.2-0.7-0.3-1.3-0.3-2c0-0.6,0.2-1.2,0.4-1.8c0.2-0.5,0.6-1,1.1-1.4l8.2-8.3c1-0.9,1.9-1.2,2.7-0.9
			C425.2,106.9,426.3,107.6,427.5,108.8"/>
		<path class="st0" d="M487.3,81.3c-0.1,0.4-0.1,47.9-0.1,47.9c0,3.3,1.6,4.9,4.7,4.9h14.7c1.7,0,2.9-0.4,3.8-1.2
			c0.9-0.8,1.3-2.1,1.3-3.7c0,0-0.1-47.5-0.2-47.9H487.3z"/>
		<path class="st0" d="M537.1,108.8c1.2,1.2,2.4,2.1,3.7,2.9c1.3,0.8,2.6,1.4,3.9,1.9c1.2,0.5,2.3,0.8,3.3,1.1
			c0.9,0.2,1.6,0.3,1.9,0.3c0.8,0,1.8,0,3.1-0.1c1.3-0.1,2.5-0.3,3.6-0.6c1.2-0.3,2.1-0.8,3-1.6s1.2-1.7,1.2-3.1
			c0-1.2-0.2-2.1-0.7-2.8c-0.5-0.7-1.2-1.3-2-1.8c-0.9-0.5-2-0.9-3.3-1.3c-1.3-0.4-2.8-0.8-4.4-1.3c-5.1-1.4-9.3-3-12.7-4.9
			c-3.3-1.9-6-4.1-7.9-6.4c-1.9-2.4-3.3-4.9-4.1-7.6c-0.8-2.7-1.2-5.6-1.2-8.6c0-3.5,0.7-6.8,2.1-9.7c1.4-2.9,3.4-5.4,6-7.5
			c2.6-2.1,5.7-3.7,9.3-4.8c3.6-1.1,7.7-1.7,12.1-1.7c2.7,0,5.2,0.2,7.5,0.7c2.3,0.4,4.6,1.2,6.7,2.1c2.1,1,4.2,2.2,6.2,3.7
			c2,1.5,4,3.3,6,5.4c0.7,0.9,1.1,1.7,1.1,2.4c0,0.7-0.5,1.5-1.4,2.4c-1.7,1.4-3.3,2.7-4.8,4c-1.5,1.3-3.1,2.8-4.7,4.4
			c-0.5,0.4-1,0.7-1.5,0.8c-0.5,0.1-1,0.1-1.5,0c-0.5-0.1-0.9-0.3-1.3-0.6c-0.4-0.3-0.8-0.7-1.2-1.1c-1.5-1.7-3.2-2.8-5.1-3.4
			c-1.9-0.6-3.7-0.9-5.4-0.9c-2.1,0-3.8,0.4-5,1.1c-1.2,0.7-1.8,1.8-1.7,3.3c0.1,1.1,0.5,2,1.2,2.6c0.7,0.6,1.7,1.1,2.8,1.5
			c1.1,0.4,2.2,0.7,3.5,0.9c1.2,0.2,2.3,0.5,3.4,0.8c3.8,1.2,7.4,2.6,10.6,4c3.2,1.5,6,3.2,8.3,5.3c2.3,2.1,4.2,4.6,5.5,7.6
			c1.3,2.9,2,6.5,2,10.7c0,4.2-0.8,8-2.5,11.3c-1.7,3.3-4,6.1-6.9,8.4c-2.9,2.3-6.4,4-10.5,5.2c-4,1.2-8.4,1.8-13,1.8
			c-2.6,0-5.3-0.2-8.1-0.7c-2.7-0.5-5.4-1.2-7.9-2.3c-2.6-1-5-2.4-7.3-4c-2.3-1.6-4.4-3.6-6.1-6c-0.5-0.6-0.8-1.2-1.1-1.9
			c-0.2-0.7-0.3-1.3-0.3-2c0-0.6,0.1-1.2,0.4-1.8c0.2-0.5,0.6-1,1.1-1.4l8.2-8.3c1-0.9,1.9-1.2,2.7-0.9
			C534.8,106.9,535.8,107.6,537.1,108.8"/>
		<path class="st0" d="M199.7,115.7c-2.8,4.3-6.2,7.9-10.3,11c-4.1,3-8.6,5.2-13.7,6.5c-5.7,1.5-11.3,1.8-16.8,1
			c-5.6-0.8-10.7-2.5-15.5-5.2c-4.7-2.7-8.9-6.2-12.4-10.6c-3.5-4.4-6-9.5-7.5-15.3c-0.9-3.6-1.4-7.3-1.4-10.9
			c0-3.6,0.5-7.1,1.3-10.5c0.9-3.4,2.1-6.6,3.8-9.7c1.7-3.1,3.8-5.9,6.2-8.4c2.4-2.5,5.2-4.7,8.4-6.6c3.1-1.9,6.6-3.3,10.3-4.2
			c3.4-0.9,6.9-1.3,10.3-1.2c3.5,0.1,6.8,0.6,10.1,1.5c3.3,0.9,6.4,2.2,9.3,4c2.9,1.7,5.6,3.7,8,6c2.4,2.3,4.5,4.9,6.2,7.8
			c1.7,2.9,3,6,3.9,9.3c0.6,2.1,1,3.9,1.3,5.3c0.3,1.4,0.2,2.5-0.1,3.5c-0.4,1-1.2,1.8-2.5,2.4c-1.3,0.7-3.2,1.3-5.8,2l-44.6,11.5
			c1.1,2.5,2.5,4.5,4.2,6c1.7,1.5,3.5,2.5,5.5,3.1c1.9,0.6,3.9,0.9,5.8,0.9c2,0,3.8-0.2,5.4-0.7c1.5-0.4,3-0.9,4.5-1.6
			c1.5-0.7,2.9-1.5,4.2-2.4c1.3-0.9,2.5-1.8,3.6-2.8c1-1,1.8-2,2.4-2.9c0.5-0.7,1-1.3,1.4-1.6c0.4-0.4,0.9-0.7,1.4-0.8
			c0.5-0.1,1.1-0.1,1.8,0.1c0.7,0.2,1.4,0.6,2.3,1.1l8.5,5.7c0.6,0.4,1,0.8,1.2,1.2c0.2,0.4,0.4,0.8,0.5,1.3
			c0.2,0.8,0.2,1.6-0.1,2.3C200.6,114.4,200.2,115.1,199.7,115.7 M156.6,71.8c-1.6,0.4-3.1,1.1-4.4,2.2c-1.3,1-2.5,2.2-3.6,3.7
			c-1,1.4-1.9,2.9-2.6,4.6c-0.7,1.6-1.2,3.2-1.5,4.8l31.7-8.1c-1.3-1.4-2.6-2.6-4-3.7c-1.4-1.1-2.8-2-4.4-2.7
			c-1.6-0.7-3.3-1.1-5.1-1.3C160.9,71,158.9,71.2,156.6,71.8"/>
		<path class="st2" d="M34.8,116.3c0-1.8,0.4-3.1,1.2-3.8c0.8-0.7,2-1.1,3.6-1.1h14.8c1.5,0,2.7,0.4,3.6,1.1c0.9,0.7,1.4,2,1.4,3.8
			v12.5c0,0.5-0.1,1.1-0.4,1.7c-0.2,0.6-0.6,1.2-1,1.7c-0.4,0.6-1,1-1.6,1.4c-0.6,0.4-1.3,0.5-2.1,0.5H39.5c-3.2,0-4.7-1.8-4.7-5.3
			V116.3z"/>
		<path class="st2" d="M487.2,56.5c0-1.8,0.4-3.1,1.2-3.8c0.8-0.7,2-1.1,3.6-1.1h14.8c1.5,0,2.7,0.4,3.6,1.1c0.9,0.7,1.4,2,1.4,3.8
			V69c0,0.5-0.1,1.1-0.4,1.7c-0.2,0.6-0.6,1.2-1,1.7c-0.4,0.6-1,1-1.6,1.4c-0.6,0.4-1.3,0.5-2.1,0.5h-14.8c-3.2,0-4.7-1.8-4.7-5.3
			V56.5z"/>
		<path class="st2" d="M33.8,167H45c1.4,0,2.7,0.2,3.9,0.5c1.2,0.3,2.2,0.8,3.1,1.5c0.9,0.7,1.5,1.5,2.1,2.5c0.5,1,0.8,2.2,0.8,3.6
			c0,1.9-0.5,3.4-1.5,4.5c-1,1.2-2.4,2-4,2.6v0.1c1,0.1,1.9,0.3,2.7,0.8c0.8,0.4,1.6,1,2.2,1.7c0.6,0.7,1.1,1.5,1.5,2.5
			c0.4,0.9,0.5,2,0.5,3.1c0,1.5-0.3,2.7-0.9,3.8c-0.6,1.1-1.4,2-2.4,2.8c-1,0.8-2.2,1.3-3.6,1.7s-2.8,0.6-4.4,0.6H33.8V167z
			 M38.2,180.4h6c0.8,0,1.6-0.1,2.3-0.2c0.7-0.2,1.4-0.4,1.9-0.8c0.5-0.4,1-0.9,1.3-1.5c0.3-0.6,0.5-1.4,0.5-2.2
			c0-1.3-0.4-2.4-1.2-3.3c-0.8-0.9-2.1-1.4-3.9-1.4h-6.9V180.4z M38.2,195.5h6.4c0.7,0,1.4-0.1,2.2-0.2c0.8-0.1,1.6-0.4,2.3-0.8
			c0.7-0.4,1.3-1,1.8-1.7c0.5-0.7,0.7-1.6,0.7-2.8c0-1.9-0.6-3.4-1.9-4.3c-1.2-1-2.9-1.4-5.1-1.4h-6.5V195.5z"/>
		<path class="st2" d="M64.6,190c0,0.9,0.2,1.8,0.6,2.6c0.4,0.8,1,1.4,1.6,2c0.7,0.5,1.4,1,2.3,1.3c0.9,0.3,1.8,0.5,2.7,0.5
			c1.3,0,2.4-0.3,3.3-0.9c0.9-0.6,1.8-1.4,2.6-2.3l3.1,2.4c-2.3,2.9-5.5,4.4-9.6,4.4c-1.7,0-3.2-0.3-4.6-0.9
			c-1.4-0.6-2.6-1.4-3.5-2.4c-1-1-1.7-2.2-2.2-3.6c-0.5-1.4-0.8-2.9-0.8-4.5c0-1.6,0.3-3.1,0.8-4.5c0.6-1.4,1.3-2.6,2.3-3.6
			c1-1,2.2-1.8,3.5-2.4c1.4-0.6,2.9-0.9,4.5-0.9c1.9,0,3.5,0.3,4.9,1c1.3,0.7,2.4,1.5,3.3,2.6c0.9,1.1,1.5,2.3,1.8,3.6
			c0.4,1.3,0.6,2.7,0.6,4.1v1.5H64.6z M77.5,186.7c0-0.9-0.2-1.7-0.4-2.5s-0.6-1.4-1.2-2c-0.5-0.6-1.2-1-1.9-1.3
			c-0.8-0.3-1.7-0.5-2.7-0.5c-1,0-1.9,0.2-2.8,0.6c-0.8,0.4-1.5,0.9-2.1,1.5c-0.6,0.6-1,1.3-1.3,2c-0.3,0.7-0.5,1.5-0.5,2.2H77.5z"
			/>
		<path class="st2" d="M100.5,167h11.3c2.1,0,3.8,0.3,5.1,0.8s2.4,1.3,3.2,2.1c0.8,0.9,1.3,1.8,1.6,2.9c0.3,1.1,0.5,2.1,0.5,3.1
			s-0.2,2-0.5,3.1c-0.3,1.1-0.8,2.1-1.6,2.9c-0.8,0.9-1.8,1.6-3.2,2.1c-1.3,0.6-3,0.8-5.1,0.8h-7v14.2h-4.4V167z M104.9,181.2h5.7
			c0.9,0,1.7-0.1,2.5-0.2c0.8-0.1,1.6-0.4,2.2-0.8c0.7-0.4,1.2-0.9,1.6-1.6c0.4-0.7,0.6-1.6,0.6-2.7s-0.2-2-0.6-2.7
			c-0.4-0.7-0.9-1.2-1.6-1.6c-0.7-0.4-1.4-0.6-2.2-0.8c-0.8-0.1-1.7-0.2-2.5-0.2h-5.7V181.2z"/>
		<path class="st2" d="M126.5,177.7h4.1v3.3h0.1c0.3-0.6,0.6-1.1,1.1-1.6c0.5-0.5,1-0.9,1.5-1.2c0.6-0.3,1.2-0.6,1.8-0.8
			c0.7-0.2,1.3-0.3,2-0.3c0.7,0,1.3,0.1,1.8,0.3l-0.2,4.4c-0.3-0.1-0.7-0.2-1-0.2c-0.3-0.1-0.7-0.1-1-0.1c-2,0-3.5,0.6-4.6,1.7
			c-1.1,1.1-1.6,2.9-1.6,5.2v10.8h-4.1V177.7z"/>
		<path class="st2" d="M141.5,188.5c0-1.6,0.3-3.1,0.9-4.4c0.6-1.4,1.4-2.6,2.4-3.6c1-1,2.2-1.8,3.6-2.4c1.4-0.6,2.9-0.9,4.5-0.9
			c1.6,0,3.1,0.3,4.5,0.9c1.4,0.6,2.6,1.4,3.6,2.4c1,1,1.8,2.2,2.4,3.6c0.6,1.4,0.9,2.8,0.9,4.4c0,1.6-0.3,3.1-0.9,4.4
			c-0.6,1.4-1.4,2.6-2.4,3.6c-1,1-2.2,1.8-3.6,2.4c-1.4,0.6-2.9,0.9-4.5,0.9c-1.6,0-3.1-0.3-4.5-0.9c-1.4-0.6-2.6-1.4-3.6-2.4
			c-1-1-1.8-2.2-2.4-3.6C141.8,191.5,141.5,190.1,141.5,188.5 M145.9,188.5c0,1.1,0.2,2.1,0.5,3c0.3,0.9,0.8,1.7,1.4,2.4
			c0.6,0.7,1.4,1.2,2.2,1.5s1.9,0.6,3,0.6s2.1-0.2,3-0.6c0.9-0.4,1.6-0.9,2.2-1.5c0.6-0.7,1.1-1.4,1.4-2.4c0.3-0.9,0.5-1.9,0.5-3
			s-0.2-2.1-0.5-3c-0.3-0.9-0.8-1.7-1.4-2.4c-0.6-0.7-1.4-1.2-2.2-1.5c-0.9-0.4-1.9-0.6-3-0.6s-2.1,0.2-3,0.6
			c-0.9,0.4-1.6,0.9-2.2,1.5c-0.6,0.7-1.1,1.4-1.4,2.4C146.1,186.4,145.9,187.4,145.9,188.5"/>
		<path class="st2" d="M171.2,181.2h-4.6v-3.6h4.6v-4.8c0-2.9,0.6-5,1.7-6.4c1.1-1.4,3-2.1,5.7-2.1c0.5,0,0.9,0,1.4,0
			c0.5,0,1,0.1,1.6,0.3l-0.5,3.6c-0.4-0.2-0.8-0.3-1.1-0.3c-0.4-0.1-0.8-0.1-1.2-0.1c-0.8,0-1.4,0.1-1.8,0.3c-0.5,0.2-0.8,0.6-1.1,1
			c-0.3,0.4-0.4,0.9-0.5,1.5c-0.1,0.6-0.1,1.3-0.1,2v5h4.9v3.6h-4.9v18h-4.1V181.2z"/>
		<path class="st2" d="M187.9,190c0,0.9,0.2,1.8,0.6,2.6c0.4,0.8,0.9,1.4,1.6,2c0.7,0.5,1.4,1,2.3,1.3s1.8,0.5,2.7,0.5
			c1.3,0,2.4-0.3,3.3-0.9c0.9-0.6,1.8-1.4,2.6-2.3l3.1,2.4c-2.3,2.9-5.5,4.4-9.6,4.4c-1.7,0-3.2-0.3-4.6-0.9
			c-1.4-0.6-2.6-1.4-3.5-2.4c-1-1-1.7-2.2-2.2-3.6c-0.5-1.4-0.8-2.9-0.8-4.5c0-1.6,0.3-3.1,0.8-4.5c0.6-1.4,1.3-2.6,2.3-3.6
			c1-1,2.2-1.8,3.5-2.4c1.4-0.6,2.9-0.9,4.5-0.9c1.9,0,3.5,0.3,4.9,1c1.3,0.7,2.4,1.5,3.3,2.6c0.9,1.1,1.5,2.3,1.8,3.6
			c0.4,1.3,0.6,2.7,0.6,4.1v1.5H187.9z M200.9,186.7c0-0.9-0.2-1.7-0.4-2.5c-0.3-0.8-0.6-1.4-1.2-2c-0.5-0.6-1.2-1-1.9-1.3
			c-0.8-0.3-1.7-0.5-2.7-0.5c-1,0-1.9,0.2-2.8,0.6c-0.8,0.4-1.5,0.9-2.1,1.5c-0.6,0.6-1,1.3-1.3,2c-0.3,0.7-0.5,1.5-0.5,2.2H200.9z"
			/>
		<path class="st2" d="M221.6,183.1c-0.5-0.6-1.1-1.1-1.8-1.5c-0.7-0.4-1.6-0.6-2.6-0.6c-1,0-1.8,0.2-2.5,0.6
			c-0.7,0.4-1.1,1-1.1,1.8c0,0.6,0.2,1.2,0.6,1.5c0.4,0.4,0.9,0.7,1.5,1c0.6,0.2,1.2,0.4,1.8,0.5c0.6,0.1,1.2,0.2,1.6,0.3
			c0.9,0.2,1.7,0.5,2.5,0.8c0.8,0.3,1.4,0.7,2,1.2c0.6,0.5,1,1.1,1.3,1.8c0.3,0.7,0.5,1.5,0.5,2.5c0,1.2-0.3,2.3-0.8,3.1
			c-0.5,0.9-1.2,1.6-2,2.1c-0.8,0.5-1.8,0.9-2.8,1.2c-1,0.2-2.1,0.4-3.2,0.4c-1.8,0-3.4-0.3-4.7-0.8c-1.4-0.5-2.6-1.5-3.6-3l3.1-2.6
			c0.7,0.7,1.4,1.3,2.2,1.8c0.8,0.5,1.8,0.8,3,0.8c0.5,0,1-0.1,1.6-0.2c0.5-0.1,1-0.3,1.4-0.5c0.4-0.2,0.7-0.5,1-0.9
			c0.3-0.3,0.4-0.8,0.4-1.2c0-0.6-0.2-1.1-0.6-1.5c-0.4-0.4-0.8-0.7-1.4-0.9c-0.5-0.2-1.1-0.4-1.7-0.5c-0.6-0.1-1.1-0.3-1.6-0.3
			c-0.9-0.2-1.7-0.5-2.5-0.7c-0.8-0.3-1.5-0.6-2.1-1.1c-0.6-0.5-1.1-1-1.5-1.7c-0.4-0.7-0.5-1.6-0.5-2.6c0-1.1,0.2-2.1,0.7-2.9
			c0.5-0.8,1.1-1.5,1.9-2.1c0.8-0.5,1.7-1,2.6-1.2c1-0.3,2-0.4,3-0.4c1.5,0,2.9,0.3,4.2,0.8c1.3,0.5,2.4,1.5,3.2,2.7L221.6,183.1z"
			/>
		<path class="st2" d="M241.9,183.1c-0.5-0.6-1.1-1.1-1.8-1.5c-0.7-0.4-1.6-0.6-2.6-0.6c-1,0-1.8,0.2-2.5,0.6
			c-0.7,0.4-1.1,1-1.1,1.8c0,0.6,0.2,1.2,0.6,1.5s0.9,0.7,1.5,1c0.6,0.2,1.2,0.4,1.8,0.5c0.6,0.1,1.2,0.2,1.6,0.3
			c0.9,0.2,1.7,0.5,2.5,0.8c0.8,0.3,1.4,0.7,2,1.2c0.6,0.5,1,1.1,1.3,1.8c0.3,0.7,0.5,1.5,0.5,2.5c0,1.2-0.3,2.3-0.8,3.1
			c-0.5,0.9-1.2,1.6-2,2.1c-0.8,0.5-1.8,0.9-2.8,1.2c-1,0.2-2.1,0.4-3.2,0.4c-1.8,0-3.4-0.3-4.7-0.8c-1.4-0.5-2.6-1.5-3.6-3l3.1-2.6
			c0.7,0.7,1.4,1.3,2.2,1.8c0.8,0.5,1.8,0.8,3,0.8c0.5,0,1-0.1,1.6-0.2c0.5-0.1,1-0.3,1.4-0.5c0.4-0.2,0.7-0.5,1-0.9
			c0.3-0.3,0.4-0.8,0.4-1.2c0-0.6-0.2-1.1-0.6-1.5c-0.4-0.4-0.8-0.7-1.4-0.9c-0.5-0.2-1.1-0.4-1.7-0.5c-0.6-0.1-1.1-0.3-1.6-0.3
			c-0.9-0.2-1.7-0.5-2.5-0.7c-0.8-0.3-1.5-0.6-2.1-1.1c-0.6-0.5-1.1-1-1.5-1.7c-0.4-0.7-0.5-1.6-0.5-2.6c0-1.1,0.2-2.1,0.7-2.9
			c0.5-0.8,1.1-1.5,1.9-2.1c0.8-0.5,1.7-1,2.6-1.2c1-0.3,2-0.4,3-0.4c1.5,0,2.9,0.3,4.2,0.8s2.4,1.5,3.2,2.7L241.9,183.1z"/>
		<path class="st2" d="M250,169.9c0-0.8,0.3-1.5,0.9-2.1c0.6-0.6,1.3-0.9,2.1-0.9c0.8,0,1.5,0.3,2.1,0.9c0.6,0.6,0.9,1.3,0.9,2.1
			c0,0.8-0.3,1.5-0.9,2.1c-0.6,0.6-1.3,0.9-2.1,0.9c-0.8,0-1.5-0.3-2.1-0.9C250.3,171.5,250,170.8,250,169.9 M250.9,177.7h4.1v21.6
			h-4.1V177.7z"/>
		<path class="st2" d="M260.5,188.5c0-1.6,0.3-3.1,0.9-4.4c0.6-1.4,1.4-2.6,2.4-3.6c1-1,2.2-1.8,3.6-2.4c1.4-0.6,2.9-0.9,4.5-0.9
			c1.6,0,3.1,0.3,4.5,0.9c1.4,0.6,2.6,1.4,3.6,2.4c1,1,1.8,2.2,2.4,3.6c0.6,1.4,0.9,2.8,0.9,4.4c0,1.6-0.3,3.1-0.9,4.4
			c-0.6,1.4-1.4,2.6-2.4,3.6s-2.2,1.8-3.6,2.4c-1.4,0.6-2.9,0.9-4.5,0.9c-1.6,0-3.1-0.3-4.5-0.9c-1.4-0.6-2.6-1.4-3.6-2.4
			c-1-1-1.8-2.2-2.4-3.6C260.8,191.5,260.5,190.1,260.5,188.5 M264.9,188.5c0,1.1,0.2,2.1,0.5,3c0.3,0.9,0.8,1.7,1.4,2.4
			c0.6,0.7,1.4,1.2,2.2,1.5s1.9,0.6,3,0.6c1.1,0,2.1-0.2,3-0.6c0.9-0.4,1.6-0.9,2.2-1.5c0.6-0.7,1.1-1.4,1.4-2.4
			c0.3-0.9,0.5-1.9,0.5-3s-0.2-2.1-0.5-3c-0.3-0.9-0.8-1.7-1.4-2.4c-0.6-0.7-1.4-1.2-2.2-1.5c-0.9-0.4-1.9-0.6-3-0.6
			c-1.1,0-2.1,0.2-3,0.6c-0.9,0.4-1.6,0.9-2.2,1.5c-0.6,0.7-1.1,1.4-1.4,2.4C265.1,186.4,264.9,187.4,264.9,188.5"/>
		<path class="st2" d="M288.6,177.7h4.1v3.3h0.1c0.5-1.2,1.4-2.1,2.7-2.8c1.3-0.7,2.7-1.1,4.4-1.1c1,0,2,0.2,3,0.5s1.8,0.8,2.5,1.5
			c0.7,0.7,1.3,1.5,1.7,2.6c0.4,1,0.6,2.3,0.6,3.7v13.9h-4.1v-12.8c0-1-0.1-1.9-0.4-2.6c-0.3-0.7-0.6-1.3-1.1-1.7
			c-0.5-0.4-1-0.8-1.6-1c-0.6-0.2-1.2-0.3-1.8-0.3c-0.9,0-1.6,0.1-2.4,0.4c-0.7,0.3-1.4,0.7-1.9,1.3s-1,1.3-1.3,2.3
			c-0.3,0.9-0.5,2-0.5,3.2v11.1h-4.1V177.7z"/>
		<path class="st2" d="M314.1,180.3c1.2-1.1,2.5-1.9,4-2.4c1.5-0.5,3-0.8,4.6-0.8c1.6,0,2.9,0.2,4.1,0.6c1.1,0.4,2.1,0.9,2.8,1.6
			c0.7,0.7,1.3,1.4,1.6,2.3c0.3,0.9,0.5,1.8,0.5,2.7v11c0,0.8,0,1.5,0,2.1c0,0.6,0.1,1.2,0.1,1.8h-3.6c-0.1-1.1-0.1-2.2-0.1-3.3H328
			c-0.9,1.4-2,2.4-3.2,3c-1.2,0.6-2.7,0.9-4.3,0.9c-1,0-2-0.1-2.9-0.4c-0.9-0.3-1.7-0.7-2.4-1.2c-0.7-0.5-1.2-1.2-1.6-2
			c-0.4-0.8-0.6-1.7-0.6-2.8c0-1.4,0.3-2.6,0.9-3.5c0.6-0.9,1.5-1.7,2.6-2.3c1.1-0.6,2.3-1,3.8-1.3c1.4-0.3,3-0.4,4.6-0.4h3V185
			c0-0.5-0.1-1.1-0.3-1.6c-0.2-0.5-0.5-1-1-1.5c-0.4-0.4-1-0.8-1.6-1c-0.6-0.3-1.4-0.4-2.3-0.4c-0.8,0-1.5,0.1-2.1,0.2
			c-0.6,0.2-1.1,0.3-1.6,0.6c-0.5,0.2-0.9,0.5-1.3,0.8c-0.4,0.3-0.8,0.6-1.1,0.9L314.1,180.3z M325.6,188.9c-1,0-2,0.1-3,0.2
			c-1,0.1-1.9,0.3-2.8,0.6c-0.8,0.3-1.5,0.7-2.1,1.3c-0.5,0.5-0.8,1.2-0.8,2.1c0,1.2,0.4,2.1,1.3,2.7s2,0.8,3.4,0.8
			c1.1,0,2.1-0.2,2.9-0.6c0.8-0.4,1.4-0.9,1.9-1.5c0.5-0.6,0.8-1.3,1-2c0.2-0.7,0.3-1.5,0.3-2.2v-1.4H325.6z"/>
		<rect x="337.9" y="164.8" class="st2" width="4.1" height="34.5"/>
		<rect x="361.4" y="152.5" class="st0" width="3.6" height="60.3"/>
		<polygon class="st2" points="381.2,167 385.6,167 385.6,180.4 402.3,180.4 402.3,167 406.7,167 406.7,199.3 402.3,199.3 
			402.3,184.5 385.6,184.5 385.6,199.3 381.2,199.3 		"/>
		<path class="st2" d="M414,180.3c1.2-1.1,2.5-1.9,4-2.4c1.5-0.5,3-0.8,4.6-0.8c1.6,0,2.9,0.2,4.1,0.6c1.1,0.4,2.1,0.9,2.8,1.6
			c0.7,0.7,1.3,1.4,1.6,2.3c0.3,0.9,0.5,1.8,0.5,2.7v11c0,0.8,0,1.5,0,2.1c0,0.6,0.1,1.2,0.1,1.8h-3.6c-0.1-1.1-0.1-2.2-0.1-3.3
			h-0.1c-0.9,1.4-2,2.4-3.2,3c-1.2,0.6-2.7,0.9-4.3,0.9c-1,0-2-0.1-2.9-0.4c-0.9-0.3-1.7-0.7-2.4-1.2c-0.7-0.5-1.2-1.2-1.6-2
			c-0.4-0.8-0.6-1.7-0.6-2.8c0-1.4,0.3-2.6,0.9-3.5c0.6-0.9,1.5-1.7,2.6-2.3c1.1-0.6,2.3-1,3.8-1.3c1.4-0.3,3-0.4,4.6-0.4h3V185
			c0-0.5-0.1-1.1-0.3-1.6c-0.2-0.5-0.5-1-1-1.5c-0.4-0.4-1-0.8-1.6-1c-0.6-0.3-1.4-0.4-2.3-0.4c-0.8,0-1.5,0.1-2.1,0.2
			c-0.6,0.2-1.1,0.3-1.6,0.6c-0.5,0.2-0.9,0.5-1.3,0.8c-0.4,0.3-0.8,0.6-1.1,0.9L414,180.3z M425.6,188.9c-1,0-2,0.1-3,0.2
			c-1,0.1-1.9,0.3-2.8,0.6s-1.5,0.7-2.1,1.3s-0.8,1.2-0.8,2.1c0,1.2,0.4,2.1,1.3,2.7s2,0.8,3.4,0.8c1.1,0,2.1-0.2,2.9-0.6
			c0.8-0.4,1.4-0.9,1.9-1.5c0.5-0.6,0.8-1.3,1-2c0.2-0.7,0.3-1.5,0.3-2.2v-1.4H425.6z"/>
		<polygon class="st2" points="435,177.7 439.7,177.7 446.2,194.2 452.4,177.7 456.7,177.7 448.3,199.3 443.8,199.3 		"/>
		<path class="st2" d="M463.4,190c0,0.9,0.2,1.8,0.6,2.6c0.4,0.8,0.9,1.4,1.6,2c0.7,0.5,1.4,1,2.3,1.3c0.9,0.3,1.8,0.5,2.7,0.5
			c1.3,0,2.4-0.3,3.3-0.9c0.9-0.6,1.8-1.4,2.6-2.3l3.1,2.4c-2.3,2.9-5.5,4.4-9.6,4.4c-1.7,0-3.2-0.3-4.6-0.9s-2.6-1.4-3.5-2.4
			c-1-1-1.7-2.2-2.2-3.6c-0.5-1.4-0.8-2.9-0.8-4.5c0-1.6,0.3-3.1,0.8-4.5c0.6-1.4,1.3-2.6,2.3-3.6c1-1,2.2-1.8,3.5-2.4
			c1.4-0.6,2.9-0.9,4.5-0.9c1.9,0,3.5,0.3,4.9,1c1.3,0.7,2.4,1.5,3.3,2.6c0.8,1.1,1.5,2.3,1.8,3.6c0.4,1.3,0.6,2.7,0.6,4.1v1.5
			H463.4z M476.4,186.7c0-0.9-0.2-1.7-0.4-2.5c-0.3-0.8-0.6-1.4-1.2-2c-0.5-0.6-1.2-1-1.9-1.3c-0.8-0.3-1.7-0.5-2.7-0.5
			c-1,0-1.9,0.2-2.8,0.6c-0.8,0.4-1.5,0.9-2.1,1.5c-0.6,0.6-1,1.3-1.3,2c-0.3,0.7-0.5,1.5-0.5,2.2H476.4z"/>
		<polygon class="st2" points="499.4,167 519.7,167 519.7,171.1 503.8,171.1 503.8,181.2 518.6,181.2 518.6,185.3 503.8,185.3 
			503.8,199.3 499.4,199.3 		"/>
		<path class="st2" d="M543.7,199.3h-4.1V196h-0.1c-0.5,1.2-1.4,2.1-2.7,2.8c-1.3,0.7-2.8,1.1-4.4,1.1c-1.1,0-2.1-0.2-3-0.5
			c-0.9-0.3-1.8-0.8-2.5-1.5c-0.7-0.7-1.3-1.5-1.7-2.6c-0.4-1-0.6-2.3-0.6-3.7v-13.9h4.1v12.8c0,1,0.1,1.9,0.4,2.6
			c0.3,0.7,0.6,1.3,1.1,1.7c0.5,0.4,1,0.8,1.6,1c0.6,0.2,1.2,0.3,1.8,0.3c0.8,0,1.6-0.1,2.4-0.4c0.7-0.3,1.4-0.7,1.9-1.3
			c0.5-0.6,1-1.3,1.3-2.3c0.3-0.9,0.5-2,0.5-3.2v-11.1h4.1V199.3z"/>
		<path class="st2" d="M549.8,177.7h4.1v3.3h0.1c0.5-1.2,1.4-2.1,2.7-2.8c1.3-0.7,2.8-1.1,4.4-1.1c1,0,2,0.2,3,0.5s1.8,0.8,2.5,1.5
			s1.3,1.5,1.7,2.6s0.6,2.3,0.6,3.7v13.9h-4.1v-12.8c0-1-0.1-1.9-0.4-2.6c-0.3-0.7-0.6-1.3-1.1-1.7s-1-0.8-1.6-1
			c-0.6-0.2-1.2-0.3-1.8-0.3c-0.8,0-1.6,0.1-2.4,0.4c-0.7,0.3-1.4,0.7-1.9,1.3c-0.5,0.6-1,1.3-1.3,2.3s-0.5,2-0.5,3.2v11.1h-4.1
			V177.7z"/>
		<path class="st2" d="M579.3,196.6c0-0.8,0.3-1.5,0.9-2.1c0.6-0.6,1.3-0.9,2.1-0.9c0.8,0,1.5,0.3,2.1,0.9c0.6,0.6,0.9,1.3,0.9,2.1
			c0,0.8-0.3,1.5-0.9,2.1c-0.6,0.6-1.3,0.9-2.1,0.9c-0.8,0-1.5-0.3-2.1-0.9C579.6,198.1,579.3,197.4,579.3,196.6 M584.4,190H580v-23
			h4.4V190z"/>
	</g>
</g>
</svg>
