<svg xmlns="http://www.w3.org/2000/svg" viewBox="0 0 623.62 255.12"><defs><style>.cls-1{fill:#fff;}.cls-2{fill:#034ea1;}.cls-3{fill:#afd136;}</style></defs><title>nutanix</title><g id="BG"><rect class="cls-1" width="623.62" height="255.12"/></g><g id="Logo"><g id="Nutanix_CMYK_YECP"><g id="Nutanix_RGB"><path class="cls-2" d="M472,78.77H457.81a1.56,1.56,0,0,0-1.56,1.56v64.93a1.56,1.56,0,0,0,1.56,1.55H472a1.56,1.56,0,0,0,1.56-1.55V80.33A1.56,1.56,0,0,0,472,78.77"/><path class="cls-2" d="M583,137.5h-2.67a.9.9,0,1,1,0-1.8h7.32a.9.9,0,0,1,0,1.8H585v8.35a1,1,0,0,1-2,0Z"/><path class="cls-2" d="M590.53,136.61a1,1,0,0,1,1-1h.2a1,1,0,0,1,.9.52l3.34,5.23,3.36-5.25a1,1,0,0,1,.88-.5h.21a1,1,0,0,1,1,1v9.24a1,1,0,0,1-1,1,1,1,0,0,1-1-1v-6.62l-2.69,4.05a.91.91,0,0,1-1.63,0l-2.68-4v6.61a.94.94,0,0,1-1,.94.93.93,0,0,1-.94-.94Z"/><path class="cls-2" d="M201.39,78.78h-12a2.62,2.62,0,0,0-2.63,2.62v44.12c0,4.65-6.49,6.15-14.46,6.15H154.41c-8,0-14.46-1.5-14.46-6.15V81.4a2.62,2.62,0,0,0-2.62-2.62h-12a2.62,2.62,0,0,0-2.62,2.62v45.14c0,7.79,3.39,12.71,9.85,16.58s21.48,3.69,25.94,3.69h9.74c4.46,0,19.49.18,25.94-3.69s9.84-8.79,9.84-16.58,0-45.14,0-45.14a2.62,2.62,0,0,0-2.62-2.62"/><path class="cls-2" d="M554.07,79.23a1.57,1.57,0,0,1,1.11-.45h19.7a1.6,1.6,0,0,1,1.6,1.59,1.58,1.58,0,0,1-.63,1.26l-28.92,25.18a1.6,1.6,0,0,1-2.31,0l-9.85-8.58a1.55,1.55,0,0,1-.41-1.07,1.57,1.57,0,0,1,.57-1.21Z"/><path class="cls-2" d="M554.07,146.36a1.57,1.57,0,0,0,1.11.45h19.7a1.6,1.6,0,0,0,1.6-1.59,1.63,1.63,0,0,0-.63-1.27l-28.92-25.17a1.6,1.6,0,0,0-2.31,0l-9.85,8.58a1.54,1.54,0,0,0-.41,1.06,1.62,1.62,0,0,0,.57,1.23Z"/><path class="cls-3" d="M501.47,146.4a1.62,1.62,0,0,1-1.07.41H480.67a1.59,1.59,0,0,1-1.13-2.71L514.11,114a1.58,1.58,0,0,0,.06-2.38l-34.53-30a1.59,1.59,0,0,1,1-2.8H500.4a1.58,1.58,0,0,1,1.07.42l37.22,32.39a1.6,1.6,0,0,1,0,2.41Z"/><path class="cls-2" d="M255.51,95.51a1.59,1.59,0,0,1,1.59-1.59h24.47a2.62,2.62,0,0,0,2.63-2.62V81.4a2.62,2.62,0,0,0-2.63-2.62H212.19a2.62,2.62,0,0,0-2.62,2.62v9.9a2.62,2.62,0,0,0,2.62,2.62h24.47a1.59,1.59,0,0,1,1.59,1.59v48.68a2.62,2.62,0,0,0,2.63,2.62h12a2.62,2.62,0,0,0,2.62-2.62Z"/><path class="cls-2" d="M98,121a1.25,1.25,0,0,0,.78.33,1.1,1.1,0,0,0,1.1-1.1V81.39a2.63,2.63,0,0,1,2.62-2.62h12a2.62,2.62,0,0,1,2.62,2.62v56.25c0,5.74-2.24,8.25-4.44,9.21s-8.84.58-12.82-2.88l-43-37.47-2.46-2.14a1,1,0,0,0-1.55.75v39.08a2.62,2.62,0,0,1-2.62,2.62h-12a2.62,2.62,0,0,1-2.62-2.62V88c0-5.74,2.24-8.25,4.43-9.21s8.85-.59,12.83,2.87l43,37.47s2,1.76,2.13,1.87"/><path class="cls-2" d="M431.52,121a1.23,1.23,0,0,0,.78.33,1.1,1.1,0,0,0,1.1-1.1V81.39A2.62,2.62,0,0,1,436,78.77h12a2.63,2.63,0,0,1,2.63,2.62v56.25c0,5.74-2.24,8.25-4.44,9.21s-8.85.58-12.82-2.88-43-37.47-43-37.47l-2.47-2.14a.94.94,0,0,0-.59-.2,1,1,0,0,0-1,1v39.08a2.62,2.62,0,0,1-2.62,2.62h-12a2.62,2.62,0,0,1-2.62-2.62V88c0-5.74,2.24-8.25,4.43-9.21s8.85-.59,12.82,2.87l43.05,37.47s2,1.76,2.13,1.87"/><rect class="cls-2" x="456.25" y="78.78" width="17.26" height="68.04" rx="2.62" ry="2.62"/><path class="cls-2" d="M363.12,144.19l-42.5-61.38h0a10.1,10.1,0,0,0-8.34-4.39h0a10.12,10.12,0,0,0-8.35,4.39h0l-42.5,61.38a1.62,1.62,0,0,0-.37,1,1.6,1.6,0,0,0,1.59,1.6h15.54a1.6,1.6,0,0,0,1.38-.81l11-15.89a1.58,1.58,0,0,1,1.43-.9h40.55a1.61,1.61,0,0,1,1.44.9L345,146a1.61,1.61,0,0,0,1.39.81h15.54a1.6,1.6,0,0,0,1.59-1.6,1.58,1.58,0,0,0-.38-1m-42.05-30.12H303.49a1,1,0,0,1-.68-1.63L311.46,100a1.13,1.13,0,0,1,.19-.19,1,1,0,0,1,.16-.14,1,1,0,0,1,.39-.11l.08,0,.07,0a1,1,0,0,1,.39.11.54.54,0,0,1,.16.14,1.84,1.84,0,0,1,.2.19l8.64,12.49a1,1,0,0,1-.67,1.63"/></g><path class="cls-2" d="M45.12,172.11,36,159.28a1.81,1.81,0,0,1-.32-1A1.44,1.44,0,0,1,37.09,157a1.64,1.64,0,0,1,1.34.84l8.14,11.75,8.21-11.75a1.59,1.59,0,0,1,1.31-.84,1.37,1.37,0,0,1,1.37,1.37,2.22,2.22,0,0,1-.38,1L48,172v8.53a1.42,1.42,0,0,1-2.83,0Z"/><path class="cls-2" d="M57.47,172.78v-.07a9.5,9.5,0,0,1,19-.07v.07a9.46,9.46,0,0,1-9.55,9.52A9.34,9.34,0,0,1,57.47,172.78Zm16.22,0v-.07a6.89,6.89,0,0,0-6.77-7.12,6.73,6.73,0,0,0-6.67,7v.07A6.84,6.84,0,0,0,67,179.79,6.72,6.72,0,0,0,73.69,172.78Z"/><path class="cls-2" d="M97,180.61a1.34,1.34,0,1,1-2.68,0v-2a6.92,6.92,0,0,1-6.24,3.56c-4.4,0-7-3-7-7.29V164.78a1.33,1.33,0,0,1,1.34-1.38,1.38,1.38,0,0,1,1.38,1.38v9.45c0,3.38,1.83,5.49,5,5.49A5.38,5.38,0,0,0,94.31,174v-9.23a1.33,1.33,0,0,1,1.34-1.38A1.35,1.35,0,0,1,97,164.78Z"/><path class="cls-2" d="M103.1,164.78a1.37,1.37,0,0,1,1.34-1.38,1.36,1.36,0,0,1,1.37,1.38v3.42c1.34-3,4-4.87,6.28-4.87a1.31,1.31,0,0,1,1.34,1.38,1.35,1.35,0,0,1-1.2,1.37c-3.53.42-6.42,3.07-6.42,8.32v6.21a1.36,1.36,0,1,1-2.71,0Z"/><path class="cls-2" d="M128.41,180.39V158.54a1.42,1.42,0,0,1,1.38-1.42h15.34a1.27,1.27,0,1,1,0,2.54H131.2v8.43h12.34a1.29,1.29,0,0,1,1.27,1.27,1.27,1.27,0,0,1-1.27,1.27H131.2v8.64h14.1a1.27,1.27,0,1,1,0,2.53H129.79A1.41,1.41,0,0,1,128.41,180.39Z"/><path class="cls-2" d="M151.58,164.78a1.37,1.37,0,0,1,1.34-1.38,1.36,1.36,0,0,1,1.38,1.38v2a6.91,6.91,0,0,1,6.24-3.56c4.4,0,7,3,7,7.3v10.12a1.36,1.36,0,1,1-2.72,0v-9.45c0-3.39-1.83-5.5-5-5.5a5.36,5.36,0,0,0-5.46,5.71v9.24A1.33,1.33,0,0,1,153,182a1.36,1.36,0,0,1-1.38-1.37Z"/><path class="cls-2" d="M174.26,177V166h-1.49a1.23,1.23,0,0,1-1.19-1.19,1.21,1.21,0,0,1,1.19-1.2h1.49v-4.3a1.35,1.35,0,0,1,1.34-1.38,1.4,1.4,0,0,1,1.37,1.38v4.3h4.72a1.25,1.25,0,0,1,1.24,1.2,1.22,1.22,0,0,1-1.24,1.19H177v10.65c0,2.22,1.23,3,3.07,3a7.78,7.78,0,0,0,1.65-.24,1.18,1.18,0,0,1,1.17,1.16,1.15,1.15,0,0,1-.78,1.06,6.79,6.79,0,0,1-2.68.49C176.48,182.12,174.26,180.68,174.26,177Z"/><path class="cls-2" d="M195,182.23c-5,0-9.1-3.85-9.1-9.49v-.07c0-5.25,3.7-9.48,8.75-9.48,5.39,0,8.46,4.41,8.46,9.24a1.27,1.27,0,0,1-1.27,1.27H188.64c.39,3.94,3.17,6.17,6.42,6.17a7.47,7.47,0,0,0,5.25-2.12,1.17,1.17,0,0,1,2,.85,1.2,1.2,0,0,1-.43.88A9.27,9.27,0,0,1,195,182.23Zm5.39-10.54c-.28-3.32-2.18-6.21-5.82-6.21-3.17,0-5.57,2.64-5.92,6.21Z"/><path class="cls-2" d="M207.89,164.78a1.37,1.37,0,0,1,1.34-1.38,1.36,1.36,0,0,1,1.38,1.38v3.42c1.34-3,4-4.87,6.28-4.87a1.31,1.31,0,0,1,1.34,1.38,1.35,1.35,0,0,1-1.2,1.37c-3.53.42-6.42,3.07-6.42,8.32v6.21a1.34,1.34,0,0,1-1.34,1.37,1.36,1.36,0,0,1-1.38-1.37Z"/><path class="cls-2" d="M222.18,164.78a1.36,1.36,0,1,1,2.71,0v2.46a8.2,8.2,0,0,1,7-4.05c4.37,0,8.71,3.45,8.71,9.45v.07c0,6-4.3,9.48-8.71,9.48a8.22,8.22,0,0,1-7-3.88v7.94a1.32,1.32,0,0,1-1.34,1.37,1.35,1.35,0,0,1-1.37-1.37Zm15.61,8v-.07c0-4.3-3-7-6.41-7a6.79,6.79,0,0,0-6.59,7v.07a6.78,6.78,0,0,0,6.59,7C234.9,179.76,237.79,177.15,237.79,172.74Z"/><path class="cls-2" d="M245.59,164.78a1.37,1.37,0,0,1,1.34-1.38,1.35,1.35,0,0,1,1.37,1.38v3.42c1.34-3,4-4.87,6.28-4.87a1.31,1.31,0,0,1,1.34,1.38,1.34,1.34,0,0,1-1.2,1.37c-3.52.42-6.42,3.07-6.42,8.32v6.21A1.34,1.34,0,0,1,247,182a1.36,1.36,0,0,1-1.38-1.37Z"/><path class="cls-2" d="M259.87,157.87a1.61,1.61,0,0,1,3.21,0v.45a1.61,1.61,0,0,1-3.21,0Zm.25,6.91a1.37,1.37,0,0,1,1.34-1.38,1.36,1.36,0,0,1,1.37,1.38v15.83a1.32,1.32,0,0,1-1.34,1.37,1.35,1.35,0,0,1-1.37-1.37Z"/><path class="cls-2" d="M268.16,179.87a1.23,1.23,0,0,1-.5-1,1.18,1.18,0,0,1,1.2-1.17,1,1,0,0,1,.67.22,10.24,10.24,0,0,0,5.78,1.94c2.19,0,3.78-1.13,3.78-2.9v-.07c0-1.83-2.15-2.53-4.55-3.2-2.86-.81-6-1.8-6-5.15v-.07c0-3.14,2.61-5.22,6.21-5.22a12.71,12.71,0,0,1,5.81,1.55,1.32,1.32,0,0,1,.67,1.13,1.18,1.18,0,0,1-1.2,1.16,1.43,1.43,0,0,1-.6-.14,9.85,9.85,0,0,0-4.76-1.41c-2.15,0-3.52,1.13-3.52,2.65v.07c0,1.72,2.26,2.39,4.69,3.13,2.82.85,5.85,1.94,5.85,5.22v.07c0,3.46-2.86,5.47-6.49,5.47A12.6,12.6,0,0,1,268.16,179.87Z"/><path class="cls-2" d="M294.67,182.23c-5,0-9.09-3.85-9.09-9.49v-.07c0-5.25,3.7-9.48,8.74-9.48,5.39,0,8.46,4.41,8.46,9.24a1.27,1.27,0,0,1-1.27,1.27H288.33c.38,3.94,3.17,6.17,6.41,6.17a7.48,7.48,0,0,0,5.26-2.12,1.15,1.15,0,0,1,.77-.32,1.16,1.16,0,0,1,.78,2A9.3,9.3,0,0,1,294.67,182.23Zm5.4-10.54c-.29-3.32-2.19-6.21-5.82-6.21-3.17,0-5.57,2.64-5.92,6.21Z"/><path class="cls-2" d="M317.52,169.54v-.08A12.43,12.43,0,0,1,330,156.7a12.78,12.78,0,0,1,8.82,3.21,1.53,1.53,0,0,1,.56,1.13,1.43,1.43,0,0,1-1.41,1.37,1.64,1.64,0,0,1-.91-.31,10.09,10.09,0,0,0-7.09-2.82c-5.47,0-9.56,4.44-9.56,10.11v.07c0,5.72,4.13,10.19,9.56,10.19a10.08,10.08,0,0,0,7.33-3,1.29,1.29,0,0,1,.88-.39,1.38,1.38,0,0,1,1.34,1.34,1.36,1.36,0,0,1-.45,1,12.67,12.67,0,0,1-9.17,3.63A12.32,12.32,0,0,1,317.52,169.54Z"/><path class="cls-2" d="M344.43,157.27a1.36,1.36,0,1,1,2.71,0v23.34A1.32,1.32,0,0,1,345.8,182a1.35,1.35,0,0,1-1.37-1.37Z"/><path class="cls-2" d="M352.33,172.78v-.07a9.5,9.5,0,0,1,19-.07v.07a9.46,9.46,0,0,1-9.55,9.52A9.34,9.34,0,0,1,352.33,172.78Zm16.21,0v-.07a6.89,6.89,0,0,0-6.76-7.12,6.73,6.73,0,0,0-6.67,7v.07a6.84,6.84,0,0,0,6.74,7.08A6.72,6.72,0,0,0,368.54,172.78Z"/><path class="cls-2" d="M391.85,180.61a1.34,1.34,0,1,1-2.68,0v-2a6.92,6.92,0,0,1-6.24,3.56c-4.4,0-7-3-7-7.29V164.78a1.33,1.33,0,0,1,1.34-1.38,1.38,1.38,0,0,1,1.38,1.38v9.45c0,3.38,1.83,5.49,5,5.49a5.38,5.38,0,0,0,5.46-5.71v-9.23a1.33,1.33,0,0,1,1.34-1.38,1.35,1.35,0,0,1,1.34,1.38Z"/><path class="cls-2" d="M415.3,180.61a1.36,1.36,0,1,1-2.71,0v-2.47a8.2,8.2,0,0,1-7,4.05c-4.38,0-8.71-3.45-8.71-9.45v-.07c0-5.95,4.33-9.48,8.71-9.48a8.22,8.22,0,0,1,7,3.88v-9.8a1.32,1.32,0,0,1,1.34-1.38,1.36,1.36,0,0,1,1.37,1.38Zm-15.62-8v.07c0,4.3,3,7,6.42,7a6.81,6.81,0,0,0,6.59-7v-.07a6.78,6.78,0,0,0-6.59-7C402.57,165.62,399.68,168.23,399.68,172.64Z"/><path class="cls-2" d="M432.41,158.54a1.41,1.41,0,0,1,1.37-1.42h7.86c5.57,0,9.24,3,9.24,7.83V165c0,5.33-4.44,8.08-9.7,8.08h-6v7.47a1.39,1.39,0,1,1-2.78,0Zm8.88,12c4.09,0,6.77-2.19,6.77-5.43v-.07c0-3.53-2.64-5.36-6.63-5.36h-6.24v10.86Z"/><path class="cls-2" d="M455.75,157.27a1.36,1.36,0,1,1,2.71,0v23.34a1.32,1.32,0,0,1-1.34,1.37,1.35,1.35,0,0,1-1.37-1.37Z"/><path class="cls-2" d="M463.4,176.52v-.07c0-3.85,3.17-5.89,7.79-5.89a19.67,19.67,0,0,1,5.61.77v-.63c0-3.28-2-5-5.43-5a11.41,11.41,0,0,0-4.73,1,1.37,1.37,0,0,1-.49.11,1.21,1.21,0,0,1-1.2-1.17,1.27,1.27,0,0,1,.74-1.13,14.47,14.47,0,0,1,6-1.23,8,8,0,0,1,5.89,2,7.21,7.21,0,0,1,1.87,5.32v10A1.29,1.29,0,0,1,478.1,182a1.25,1.25,0,0,1-1.3-1.27v-1.65a8,8,0,0,1-6.59,3.13C466.82,182.19,463.4,180.25,463.4,176.52Zm13.43-1.41v-1.77a19.29,19.29,0,0,0-5.36-.77c-3.42,0-5.32,1.48-5.32,3.77v.07c0,2.29,2.12,3.63,4.58,3.63C474.08,180,476.83,178,476.83,175.11Z"/><path class="cls-2" d="M486,177V166h-1.48a1.23,1.23,0,0,1-1.2-1.19,1.21,1.21,0,0,1,1.2-1.2H486v-4.3a1.35,1.35,0,0,1,1.34-1.38,1.4,1.4,0,0,1,1.37,1.38v4.3h4.73a1.24,1.24,0,0,1,1.23,1.2,1.21,1.21,0,0,1-1.23,1.19h-4.73v10.65c0,2.22,1.24,3,3.07,3a7.93,7.93,0,0,0,1.66-.24,1.17,1.17,0,0,1,1.16,1.16,1.15,1.15,0,0,1-.77,1.06,6.86,6.86,0,0,1-2.68.49C488.19,182.12,486,180.68,486,177Z"/><path class="cls-2" d="M500.28,166H498.8a1.15,1.15,0,0,1-1.16-1.19,1.18,1.18,0,0,1,1.16-1.17h1.48V162a6.44,6.44,0,0,1,1.59-4.69,5.36,5.36,0,0,1,3.91-1.41,9.17,9.17,0,0,1,2.15.21,1.2,1.2,0,0,1,1,1.16,1.16,1.16,0,0,1-1.3,1.16,9.55,9.55,0,0,0-1.48-.17c-2.12,0-3.18,1.27-3.18,3.88v1.48h4.73a1.16,1.16,0,0,1,1.2,1.16,1.18,1.18,0,0,1-1.2,1.16H503v14.64a1.35,1.35,0,0,1-1.34,1.37,1.37,1.37,0,0,1-1.38-1.37Z"/><path class="cls-2" d="M510.72,172.78v-.07a9.51,9.51,0,0,1,19-.07v.07a9.47,9.47,0,0,1-9.56,9.52A9.34,9.34,0,0,1,510.72,172.78Zm16.22,0v-.07a6.89,6.89,0,0,0-6.77-7.12c-3.95,0-6.66,3.2-6.66,7v.07a6.83,6.83,0,0,0,6.73,7.08A6.72,6.72,0,0,0,526.94,172.78Z"/><path class="cls-2" d="M534.63,164.78A1.37,1.37,0,0,1,536,163.4a1.36,1.36,0,0,1,1.37,1.38v3.42c1.34-3,4-4.87,6.28-4.87a1.31,1.31,0,0,1,1.34,1.38,1.34,1.34,0,0,1-1.2,1.37c-3.53.42-6.42,3.07-6.42,8.32v6.21a1.36,1.36,0,1,1-2.71,0Z"/><path class="cls-2" d="M548.91,164.78a1.37,1.37,0,0,1,1.34-1.38,1.36,1.36,0,0,1,1.38,1.38v1.86a6.66,6.66,0,0,1,5.88-3.45,6.2,6.2,0,0,1,5.86,3.63,7.25,7.25,0,0,1,6.41-3.63c4.2,0,6.77,2.82,6.77,7.33v10.09a1.36,1.36,0,1,1-2.71,0v-9.45c0-3.53-1.77-5.5-4.73-5.5-2.75,0-5,2-5,5.64v9.31a1.36,1.36,0,1,1-2.72,0v-9.52c0-3.42-1.8-5.43-4.69-5.43s-5.07,2.39-5.07,5.74v9.21a1.33,1.33,0,0,1-1.34,1.37,1.36,1.36,0,0,1-1.38-1.37Z"/></g></g></svg>