<?xml version="1.0" encoding="UTF-8"?>
<svg width="293px" height="91px" viewBox="0 0 293 91" version="1.1" xmlns="http://www.w3.org/2000/svg" xmlns:xlink="http://www.w3.org/1999/xlink">
    <!-- Generator: Sketch 53.1 (72631) - https://sketchapp.com -->
    <title>Marchio QiBit RGB</title>
    <desc>Created with Sketch.</desc>
    <defs>
        <polygon id="path-1" points="0 267.959 539.018 267.959 539.018 0 0 0"></polygon>
    </defs>
    <g id="Page-1" stroke="none" stroke-width="1" fill="none" fill-rule="evenodd">
        <g id="Marchio-QiBit-RGB" transform="translate(-90.000000, -90.000000)">
            <path d="M250.8467,139.8106 L255.1067,144.4406 C257.0517,141.6626 257.9777,138.3296 257.9777,135.3646 C257.9777,131.5686 256.0327,126.9386 252.9767,123.8816 C249.6427,120.5476 244.6417,118.7896 240.6597,118.7896 C236.2147,118.7896 231.6777,120.5476 228.4357,123.8816 C225.2877,127.1226 223.4357,131.7526 223.4357,136.2916 C223.4357,141.0136 225.4727,144.9976 228.0657,147.4976 C231.0287,150.3676 235.7517,152.2196 240.5677,152.2196 C242.5127,152.2196 244.0867,151.9416 245.5687,151.5726 L235.7517,141.7556 L250.8467,139.8106 Z M277.2407,167.4996 L262.5147,169.7226 L257.3287,163.7946 C251.8657,166.7586 246.8647,167.7776 241.1227,167.7776 C228.2507,167.7776 220.1937,162.7776 215.3787,157.5906 C209.4517,151.2936 206.6737,142.8666 206.6737,135.2726 C206.6737,126.5676 210.3777,118.2336 216.2117,112.5836 C222.4167,106.5646 231.2147,103.2306 240.6597,103.2306 C249.4577,103.2306 258.7187,106.2876 265.2007,112.4926 C270.4797,117.5836 274.7397,125.6416 274.7397,135.7356 C274.7397,139.9956 274.0917,143.7926 272.2397,148.1456 C270.8507,151.3856 269.1827,153.9796 266.5897,156.5726 L277.2407,167.4996 Z" id="Fill-1" fill="#646464"></path>
            <mask id="mask-2" fill="white">
                <use xlink:href="#path-1"></use>
            </mask>
            <g id="Clip-4"></g>
            <path d="M283.823,166.389 L298.64,166.389 L298.64,124.993 L283.823,124.993 L283.823,166.389 Z M291.23,99.434 C295.861,99.434 299.565,103.138 299.565,107.769 C299.565,112.398 295.861,116.104 291.23,116.104 C286.6,116.104 282.896,112.398 282.896,107.769 C282.896,103.138 286.6,99.434 291.23,99.434 L291.23,99.434 Z" id="Fill-3" fill="#646464" mask="url(#mask-2)"></path>
            <path d="M314.3354,162.6846 L324.7064,162.6846 C328.8744,162.6846 333.9674,162.6846 338.1344,158.9806 C341.4684,156.0166 342.1174,152.4056 342.1174,149.5346 C342.1174,143.9776 340.1724,140.1806 335.5424,138.0506 C333.8754,137.3096 330.8194,136.2916 323.9664,136.2916 L314.3354,136.2916 L314.3354,162.6846 Z M314.3354,132.5866 L324.1504,132.5866 C327.2994,132.5866 329.8934,132.2176 332.5784,129.9946 C335.0794,127.9566 336.6534,124.8086 336.6534,120.5476 C336.6534,115.6406 334.5234,112.5836 332.4854,110.9166 C329.4294,108.5096 325.4474,108.3246 322.2064,108.3246 L314.3354,108.3246 L314.3354,132.5866 Z M310.2594,104.6206 L323.7814,104.6206 C334.5234,104.6206 340.8204,110.8246 340.8204,120.0846 C340.8204,126.7526 337.6714,131.1056 333.5974,133.6056 C341.6534,134.9016 346.3774,141.1066 346.3774,149.0716 C346.3774,159.9076 338.4134,166.3886 327.2074,166.3886 L310.2594,166.3886 L310.2594,104.6206 Z" id="Fill-5" fill="#646464" mask="url(#mask-2)"></path>
            <path d="M354.934,166.389 L358.638,166.389 L358.638,128.605 L354.934,128.605 L354.934,166.389 Z M353.452,116.011 C353.452,113.973 354.934,112.584 356.786,112.584 C358.638,112.584 360.12,113.973 360.12,116.011 C360.12,118.048 358.638,119.437 356.786,119.437 C354.934,119.437 353.452,118.048 353.452,116.011 L353.452,116.011 Z" id="Fill-6" fill="#646464" mask="url(#mask-2)"></path>
            <polygon id="Fill-7" fill="#646464" mask="url(#mask-2)" points="375.8701 132.124 375.8701 166.389 372.1651 166.389 372.1651 132.124 367.9981 132.124 367.9981 128.604 372.1651 128.604 372.1651 115.084 375.8701 115.084 375.8701 128.604 382.4451 128.604 382.4451 132.124"></polygon>
            <polygon id="Fill-8" fill="#005E83" mask="url(#mask-2)" points="90.344 180.738 180.701 180.738 180.701 90.381 90.344 90.381"></polygon>
            <polygon id="Fill-9" fill="#FFFFFF" mask="url(#mask-2)" points="130.7134 164.543 151.8794 164.543 157.6634 170.885 157.6634 164.543 167.3094 164.543 167.3094 127.225 130.7134 127.225"></polygon>
            <polygon id="Fill-10" fill="#87ABC2" mask="url(#mask-2)" points="157.6919 154.8897 130.7129 154.8897 115.1269 170.8847 115.1269 154.8897 103.7349 154.8897 103.7349 116.1507 118.9319 100.2707 157.6659 100.2707"></polygon>
            <path d="M116.2759,124.4004 L116.2759,120.2754 L114.9009,120.2754 L114.9009,118.9004 L116.2759,118.9004 L116.2759,117.5254 L117.6509,117.5254 L117.6509,124.4004 L116.2759,124.4004 Z M113.5259,121.6504 L114.9009,121.6504 L114.9009,120.2754 L113.5259,120.2754 L113.5259,121.6504 Z M112.1509,125.7754 L116.2759,125.7754 L116.2759,124.4004 L112.1509,124.4004 L112.1509,125.7754 Z M112.1509,117.5254 L116.2759,117.5254 L116.2759,116.1504 L112.1509,116.1504 L112.1509,117.5254 Z M110.7759,124.4004 L110.7759,117.5254 L112.1509,117.5254 L112.1509,121.6504 L113.5259,121.6504 L113.5259,123.0254 L112.1509,123.0254 L112.1509,124.4004 L110.7759,124.4004 Z" id="Fill-11" fill="#005E83" mask="url(#mask-2)"></path>
            <polygon id="Fill-12" fill="#005E83" mask="url(#mask-2)" points="120.4009 125.7754 120.4009 124.4004 121.7759 124.4004 121.7759 118.9004 120.4009 118.9004 120.4009 117.5254 121.7759 117.5254 121.7759 116.1504 123.1509 116.1504 123.1509 124.4004 124.5259 124.4004 124.5259 125.7754"></polygon>
            <path d="M132.7759,124.4004 L132.7759,120.2754 L131.4009,120.2754 L131.4009,118.9004 L132.7759,118.9004 L132.7759,117.5254 L134.1509,117.5254 L134.1509,124.4004 L132.7759,124.4004 Z M130.0259,121.6504 L131.4009,121.6504 L131.4009,120.2754 L130.0259,120.2754 L130.0259,121.6504 Z M128.6509,125.7754 L132.7759,125.7754 L132.7759,124.4004 L128.6509,124.4004 L128.6509,125.7754 Z M128.6509,117.5254 L132.7759,117.5254 L132.7759,116.1504 L128.6509,116.1504 L128.6509,117.5254 Z M127.2759,124.4004 L127.2759,117.5254 L128.6509,117.5254 L128.6509,121.6504 L130.0259,121.6504 L130.0259,123.0254 L128.6509,123.0254 L128.6509,124.4004 L127.2759,124.4004 Z" id="Fill-13" fill="#005E83" mask="url(#mask-2)"></path>
            <polygon id="Fill-14" fill="#005E83" mask="url(#mask-2)" points="136.9009 125.7754 136.9009 124.4004 138.2759 124.4004 138.2759 118.9004 136.9009 118.9004 136.9009 117.5254 138.2759 117.5254 138.2759 116.1504 139.6509 116.1504 139.6509 124.4004 141.0259 124.4004 141.0259 125.7754"></polygon>
            <path d="M149.2759,124.4004 L149.2759,120.2754 L147.9009,120.2754 L147.9009,118.9004 L149.2759,118.9004 L149.2759,117.5254 L150.6509,117.5254 L150.6509,124.4004 L149.2759,124.4004 Z M146.5259,121.6504 L147.9009,121.6504 L147.9009,120.2754 L146.5259,120.2754 L146.5259,121.6504 Z M145.1509,125.7754 L149.2759,125.7754 L149.2759,124.4004 L145.1509,124.4004 L145.1509,125.7754 Z M145.1509,117.5254 L149.2759,117.5254 L149.2759,116.1504 L145.1509,116.1504 L145.1509,117.5254 Z M143.7759,124.4004 L143.7759,117.5254 L145.1509,117.5254 L145.1509,121.6504 L146.5259,121.6504 L146.5259,123.0254 L145.1509,123.0254 L145.1509,124.4004 L143.7759,124.4004 Z" id="Fill-15" fill="#005E83" mask="url(#mask-2)"></path>
            <path d="M116.2759,136.4004 L116.2759,132.2754 L114.9009,132.2754 L114.9009,130.9004 L116.2759,130.9004 L116.2759,129.5254 L117.6509,129.5254 L117.6509,136.4004 L116.2759,136.4004 Z M113.5259,133.6504 L114.9009,133.6504 L114.9009,132.2754 L113.5259,132.2754 L113.5259,133.6504 Z M112.1509,137.7754 L116.2759,137.7754 L116.2759,136.4004 L112.1509,136.4004 L112.1509,137.7754 Z M112.1509,129.5254 L116.2759,129.5254 L116.2759,128.1504 L112.1509,128.1504 L112.1509,129.5254 Z M110.7759,136.4004 L110.7759,129.5254 L112.1509,129.5254 L112.1509,133.6504 L113.5259,133.6504 L113.5259,135.0254 L112.1509,135.0254 L112.1509,136.4004 L110.7759,136.4004 Z" id="Fill-16" fill="#005E83" mask="url(#mask-2)"></path>
            <path d="M124.5259,136.4004 L124.5259,132.2754 L123.1509,132.2754 L123.1509,130.9004 L124.5259,130.9004 L124.5259,129.5254 L125.9009,129.5254 L125.9009,136.4004 L124.5259,136.4004 Z M121.7759,133.6504 L123.1509,133.6504 L123.1509,132.2754 L121.7759,132.2754 L121.7759,133.6504 Z M120.4009,137.7754 L124.5259,137.7754 L124.5259,136.4004 L120.4009,136.4004 L120.4009,137.7754 Z M120.4009,129.5254 L124.5259,129.5254 L124.5259,128.1504 L120.4009,128.1504 L120.4009,129.5254 Z M119.0259,136.4004 L119.0259,129.5254 L120.4009,129.5254 L120.4009,133.6504 L121.7759,133.6504 L121.7759,135.0254 L120.4009,135.0254 L120.4009,136.4004 L119.0259,136.4004 Z" id="Fill-17" fill="#005E83" mask="url(#mask-2)"></path>
            <polygon id="Fill-18" fill="#005E83" mask="url(#mask-2)" points="127.2759 137.7754 127.2759 136.4004 128.6509 136.4004 128.6509 130.9004 127.2759 130.9004 127.2759 129.5254 128.6509 129.5254 128.6509 128.1504 130.0259 128.1504 130.0259 136.4004 131.4009 136.4004 131.4009 137.7754"></polygon>
            <path d="M138.2759,136.4004 L138.2759,132.2754 L136.9009,132.2754 L136.9009,130.9004 L138.2759,130.9004 L138.2759,129.5254 L139.6509,129.5254 L139.6509,136.4004 L138.2759,136.4004 Z M135.5259,133.6504 L136.9009,133.6504 L136.9009,132.2754 L135.5259,132.2754 L135.5259,133.6504 Z M134.1509,137.7754 L138.2759,137.7754 L138.2759,136.4004 L134.1509,136.4004 L134.1509,137.7754 Z M134.1509,129.5254 L138.2759,129.5254 L138.2759,128.1504 L134.1509,128.1504 L134.1509,129.5254 Z M132.7759,136.4004 L132.7759,129.5254 L134.1509,129.5254 L134.1509,133.6504 L135.5259,133.6504 L135.5259,135.0254 L134.1509,135.0254 L134.1509,136.4004 L132.7759,136.4004 Z" id="Fill-19" fill="#005E83" mask="url(#mask-2)"></path>
            <polygon id="Fill-20" fill="#005E83" mask="url(#mask-2)" points="141.0259 137.7754 141.0259 136.4004 142.4009 136.4004 142.4009 130.9004 141.0259 130.9004 141.0259 129.5254 142.4009 129.5254 142.4009 128.1504 143.7759 128.1504 143.7759 136.4004 145.1509 136.4004 145.1509 137.7754"></polygon>
            <polygon id="Fill-21" fill="#005E83" mask="url(#mask-2)" points="146.5259 137.7754 146.5259 136.4004 147.9009 136.4004 147.9009 130.9004 146.5259 130.9004 146.5259 129.5254 147.9009 129.5254 147.9009 128.1504 149.2759 128.1504 149.2759 136.4004 150.6509 136.4004 150.6509 137.7754"></polygon>
            <path d="M116.2759,148.4004 L116.2759,144.2754 L114.9009,144.2754 L114.9009,142.9004 L116.2759,142.9004 L116.2759,141.5254 L117.6509,141.5254 L117.6509,148.4004 L116.2759,148.4004 Z M113.5259,145.6504 L114.9009,145.6504 L114.9009,144.2754 L113.5259,144.2754 L113.5259,145.6504 Z M112.1509,149.7754 L116.2759,149.7754 L116.2759,148.4004 L112.1509,148.4004 L112.1509,149.7754 Z M112.1509,141.5254 L116.2759,141.5254 L116.2759,140.1504 L112.1509,140.1504 L112.1509,141.5254 Z M110.7759,148.4004 L110.7759,141.5254 L112.1509,141.5254 L112.1509,145.6504 L113.5259,145.6504 L113.5259,147.0254 L112.1509,147.0254 L112.1509,148.4004 L110.7759,148.4004 Z" id="Fill-22" fill="#005E83" mask="url(#mask-2)"></path>
            <polygon id="Fill-23" fill="#005E83" mask="url(#mask-2)" points="120.7446 149.7754 120.7446 148.4004 122.1196 148.4004 122.1196 142.9004 120.7446 142.9004 120.7446 141.5254 122.1196 141.5254 122.1196 140.1504 123.4946 140.1504 123.4946 148.4004 124.8696 148.4004 124.8696 149.7754"></polygon>
            <path d="M133.4634,148.4004 L133.4634,144.2754 L132.0884,144.2754 L132.0884,142.9004 L133.4634,142.9004 L133.4634,141.5254 L134.8384,141.5254 L134.8384,148.4004 L133.4634,148.4004 Z M130.7134,145.6504 L132.0884,145.6504 L132.0884,144.2754 L130.7134,144.2754 L130.7134,145.6504 Z M129.3384,149.7754 L133.4634,149.7754 L133.4634,148.4004 L129.3384,148.4004 L129.3384,149.7754 Z M129.3384,141.5254 L133.4634,141.5254 L133.4634,140.1504 L129.3384,140.1504 L129.3384,141.5254 Z M127.9634,148.4004 L127.9634,141.5254 L129.3384,141.5254 L129.3384,145.6504 L130.7134,145.6504 L130.7134,147.0254 L129.3384,147.0254 L129.3384,148.4004 L127.9634,148.4004 Z" id="Fill-24" fill="#005E83" mask="url(#mask-2)"></path>
            <path d="M142.0571,148.4004 L142.0571,144.2754 L140.6821,144.2754 L140.6821,142.9004 L142.0571,142.9004 L142.0571,141.5254 L143.4321,141.5254 L143.4321,148.4004 L142.0571,148.4004 Z M139.3071,145.6504 L140.6821,145.6504 L140.6821,144.2754 L139.3071,144.2754 L139.3071,145.6504 Z M137.9321,149.7754 L142.0571,149.7754 L142.0571,148.4004 L137.9321,148.4004 L137.9321,149.7754 Z M137.9321,141.5254 L142.0571,141.5254 L142.0571,140.1504 L137.9321,140.1504 L137.9321,141.5254 Z M136.5571,148.4004 L136.5571,141.5254 L137.9321,141.5254 L137.9321,145.6504 L139.3071,145.6504 L139.3071,147.0254 L137.9321,147.0254 L137.9321,148.4004 L136.5571,148.4004 Z" id="Fill-25" fill="#005E83" mask="url(#mask-2)"></path>
            <polygon id="Fill-26" fill="#005E83" mask="url(#mask-2)" points="146.5259 149.7754 146.5259 148.4004 147.9009 148.4004 147.9009 142.9004 146.5259 142.9004 146.5259 141.5254 147.9009 141.5254 147.9009 140.1504 149.2759 140.1504 149.2759 148.4004 150.6509 148.4004 150.6509 149.7754"></polygon>
        </g>
    </g>
</svg>