<?xml version="1.0" encoding="UTF-8"?>
<svg width="200px" height="216px" viewBox="0 0 200 216" version="1.1" xmlns="http://www.w3.org/2000/svg" xmlns:xlink="http://www.w3.org/1999/xlink">
    <!-- Generator: Sketch 59 (86127) - https://sketch.com -->
    <title>repetitive</title>
    <desc>Created with Sketch.</desc>
    <g id="Page-1" stroke="none" stroke-width="1" fill="none" fill-rule="evenodd">
        <g id="repetitive" fill="#000000" fill-rule="nonzero">
            <g id="Logo">
                <g id="Group">
                    <path d="M76.9,213.8 C67.7,212.1 55.3,207.8 49.5,204.3 C49,204 46.7,202.7 44.5,201.5 C42.3,200.3 37.4,196.8 33.8,193.8 C30.2,190.8 26,187.3 24.5,186.1 C23,184.9 21.9,183.7 21.9,183.3 C21.9,183 20.8,181.2 19.4,179.5 C16.2,175.3 11.6,166.8 9.5,161.2 C5.2,149.8 0.4,129.4 0.3,122.5 C0.3,120 0.7,115.6 1.7,109 C2,106.6 2.7,101.3 3.2,97.4 C4.3,88.4 7,80.9 12.5,71.8 C21.9,56 45.2,36.9 62.7,30.6 C72.5,27.1 81.4,25.7 95.4,25.7 C108.1,25.6 117.6,26.7 123.9,28.9 C125.9,29.6 127.8,30.2 128.2,30.2 C128.6,30.2 133.3,31.9 138.8,34 C144.2,36.1 149.5,38.1 150.4,38.3 C155.5,39.8 175.1,56.7 180.8,64.5 C181.8,65.8 183.4,67.9 184.4,69.1 C187.9,73.2 196.1,92.5 198,101.4 C199.4,107.6 199.5,112.4 198.1,108.2 C197.5,106.2 197.4,106.6 197.3,112 C197,129.8 194.2,142.8 188.2,155.7 C187.1,158.1 185.7,161.1 185.1,162.3 C184.6,163.5 183.4,165.3 182.5,166.2 C181.6,167.1 180.9,168.2 180.9,168.6 C180.9,169 179.6,170.6 177.9,172.3 C176.3,173.9 173.1,177.4 170.9,180.1 C168.7,182.8 166.5,184.9 166,184.9 C165.5,184.9 165.1,185.2 165.1,185.5 C165.1,185.8 164.6,186.3 164,186.5 C163.4,186.7 161.4,188.3 159.5,190 C157.6,191.7 155.9,193.1 155.7,193.1 C155.5,193.1 154,194.1 152.5,195.3 C151,196.5 149.3,197.5 148.8,197.5 C148.3,197.5 146.9,198.2 145.7,199 C143.5,200.5 132.5,206.2 127.8,208.3 C121.2,211.2 98.1,215.2 88.2,215.101839 C85.4,215 80.3,214.5 76.9,213.8 L76.9,213.8 Z M100.6,209.4 C101.3,209 102.4,208.9 103.1,209.2 C103.8,209.4 104.7,209.3 105.1,209 C105.5,208.6 108.7,208.2 112,208 C117.8,207.6 121.2,206.8 134.6,202.6 C137.5,201.7 137.8,200.7 134.9,201.5 C126.8,203.6 121.8,204.8 120,205 C117.9,205.2 117.9,205.2 120.9,203.7 C122.6,202.9 124.6,202.2 125.3,202.1 C126,202 126.9,201.8 127.2,201.5 C127.5,201.2 129.6,200.6 131.9,200.2 C144.2,197.8 148.9,195.5 157.1,187.8 C160.2,184.9 163.2,182.5 163.7,182.5 C166.1,182.5 175.9,170.3 175.9,167.4 C175.9,166.4 176.1,166.3 177.4,166.8 C178.7,167.3 179.1,167.1 179.9,165.9 C180.4,165.1 180.9,164.3 180.9,164.1 C180.9,163.5 186.1,154.9 186.5,154.9 C186.7,154.9 187,154.2 187,153.5 C187,152.7 187.8,150.5 188.6,148.6 C191,143.3 193.2,136.7 192.7,136.3 C192.5,136.1 192.8,134.2 193.3,132.1 C194.6,126.7 194.8,123.8 194.8,114.4 C194.8,96.2 189.6,80.3 179.7,68 C174.8,61.9 161.9,49.8 156.2,46 C130.5,28.7 97.6,23 70.4,31.2 C62.4,33.6 60.4,34.4 52.2,38.9 C43.5,43.6 40.2,45.9 30.6,54.4 C23.3,60.8 22.5,61.7 18.5,67.6 C15.1,72.7 15.2,72.6 16,73.9 C16.5,74.7 16.6,74.7 16.6,74 C16.6,73.5 16.8,73.3 17,73.5 C17.2,73.7 16.5,75.8 15.4,78.1 C4.8,100 2.9,127.8 10.4,149.5 C11.4,152.3 11.5,153.5 11,154 C10.6,154.4 10.3,155.2 10.3,155.8 C10.3,158.4 21.4,177.8 22.9,177.8 C23.2,177.8 23.5,178.4 23.5,179.2 C23.5,180.2 24.5,181.3 26.7,182.8 C28.4,184 31.2,186.4 32.8,188.2 C37.8,193.7 52.5,203.8 57.3,205 C58.6,205.3 61.8,206 64.4,206.6 C67,207.1 69.6,207.8 70.3,208.1 C70.9,208.4 73.8,209 76.6,209.4 C79.4,209.8 83.2,210.3 84.9,210.5 C89.1,210.6 99,210.2 100.6,209.4 L100.6,209.4 Z M83.8,203 C70.5,201.8 51.2,193.7 42,185.6 C40.1,183.9 37.5,182 36.3,181.4 C35.1,180.8 34,180.1 33.8,179.8 C33.6,179.6 32.2,178.7 30.7,177.8 L27.9,176.2 L27.6,171.8 C27.3,168.2 26.9,166.9 25,164 C21.8,159.1 19.3,153 21.4,155 C21.8,155.4 22.5,155.6 22.9,155.4 C23.4,155.2 23.9,155.8 24.1,156.8 C24.7,159.2 27.6,163.6 28.2,163 C28.5,162.7 29,159.5 29.5,155.8 C29.9,152.2 30.4,148.5 30.5,147.6 C30.6,146.7 31,143.3 31.4,140.1 C31.8,136.8 32.6,132.1 33.3,129.6 C34,127.1 35.1,121.4 35.8,117 C36.9,109.9 37.3,108.8 38.7,107.7 C39.6,107 41.2,105.6 42.3,104.5 C43.4,103.4 45.5,101.9 46.9,101.1 C48.4,100.3 50.1,98.6 51,97.2 C51.8,95.8 52.9,93.9 53.5,93 C54,92.1 55.5,90.8 56.6,90.2 C57.8,89.6 59.5,87.9 60.4,86.4 C61.9,84.1 62.1,82.7 62.8,74.3 C63.7,63.5 63.3,64.3 70.6,60.3 C73.1,58.9 76.7,56.6 78.6,55.2 C80.5,53.8 82.2,52.6 82.5,52.6 C82.7,52.6 84.4,51.3 86.3,49.7 C89,47.4 89.9,46.9 91.2,47.3 C93.3,47.9 131.5,48.2 131.5,47.7 C131.5,46.3 120.1,42.2 110.4,40.1 C100.6,38 95.4,37.4 91,37.8 C82.8,38.6 70.6,41.9 62.2,45.5 C58.8,47 52,51.7 49.3,54.5 C47.9,55.9 46.4,57 45.9,57 C44.9,57 38.7,62.7 35.4,66.9 C25.5,79.1 20.7,87.1 20.7,91.6 C20.7,92.6 20.3,95.1 19.7,97.1 C17.7,104.6 16.5,130.1 18,134.5 C19,137.4 22,152.2 21.7,152.6 C20.7,153.6 16.6,139.4 16.1,133.3 C15.9,130.7 15.4,127.4 15,125.9 C14.5,123.7 14.5,122.3 15.1,119.5 C15.6,117.5 16,112.4 16.1,108.1 C16.2,103.4 16.7,99.3 17.2,97.7 C17.7,96.3 18.6,92.4 19.3,89.1 C20.2,84.1 20.9,82.4 23.1,79.1 C24.6,76.9 25.8,74.7 25.8,74.3 C25.8,73.1 31,66.9 37.1,60.8 C40.9,57 44.3,54.3 48.7,51.7 C52.2,49.6 56,47.2 57.2,46.3 C62.3,42.4 68.2,40.2 81.7,37.2 C87.8,35.8 88.8,35.7 95.9,36.4 C111.6,37.7 121.2,39.4 122.4,41 C122.7,41.5 124.9,42.7 127.1,43.7 C129.3,44.7 132,46.1 133,46.8 C135,48.1 140.7,48.5 144.1,47.5 C145.5,47.1 145.8,47.3 146.2,48.3 C146.4,49 147,49.6 147.5,49.6 C148.1,49.6 148.4,50.3 148.4,51.5 C148.4,53.1 148.9,53.7 152,55.7 C154,57 156.4,58.8 157.3,59.8 C158.2,60.8 159.4,61.6 160,61.6 C160.6,61.6 161,62 161,62.4 C161,62.8 162.1,64.2 163.5,65.5 C166.7,68.5 170.6,73.8 173.7,79.4 C176.5,84.4 177.8,87.6 178.7,92.2 C179,93.9 179.9,97.2 180.5,99.4 C182.2,104.9 183,121.1 182,126.6 C181.6,128.8 181.2,131.5 181.2,132.6 C181.2,133.7 180.7,135.6 180.1,136.7 C179,138.8 176.2,151.9 176.1,154.9 C176.1,155.8 175.7,156.8 175.3,157.1 C174.8,157.4 173.5,159 172.4,160.6 C170.3,163.5 170.3,163.6 171.5,164.6 C172.6,165.5 172.6,165.5 170.7,165.2 C168.9,164.9 168.6,165 167.9,166.4 C167.5,167.3 167,168 166.7,168 C165.9,168 162.9,171.3 159.5,175.9 C153.9,183.3 146.2,189.7 138.1,193.5 C133.3,195.8 130.9,196.4 122.5,197.6 C118.6,198.1 116.6,198.7 115.7,199.5 C112.8,202.1 95,204.1 83.8,203 L83.8,203 Z M95.2,199.2 C95.9,198.6 96.1,196.8 96,190.9 C95.9,186.7 96,182.3 96.1,181.1 C96.3,179 96.2,178.9 93.8,178.5 C92.4,178.3 87.7,177.9 83.3,177.8 L75.3,177.5 L75.4,188.1 C75.5,193.9 75.7,198.9 75.9,199.1 C77.6,200.6 93.5,200.7 95.2,199.2 L95.2,199.2 Z M112,198.9 C113,198.6 114,198 114.1,197.6 C114.3,197 113.1,197 109.4,197.2 C102.8,197.7 100.2,198.3 99.9,199.2 C99.7,199.8 100.8,199.9 104.9,199.7 C107.8,199.5 111,199.1 112,198.9 L112,198.9 Z M71.3,195.8 C72,194.1 70.6,193.5 67.1,194 C63.5,194.5 63.4,194.7 66.9,195.9 C70.1,197 70.8,197 71.3,195.8 L71.3,195.8 Z M124.3,194.8 C128.2,193.6 145.7,183.7 151,179.7 C157.7,174.6 165.4,166.7 168.8,161.4 C170.3,159.1 171.5,156.9 171.5,156.6 C171.5,156.1 172.9,153.1 175.3,148.4 C177,145.2 178.9,133.6 179.7,123.1 C180.4,112.6 179.9,106.3 177.5,94.3 C176.2,87.9 175.4,85.6 173.4,82.2 C172,79.9 170.6,77.8 170.3,77.6 C170,77.4 169.3,76.3 168.8,75.2 C168.3,74.1 166.5,71.4 164.7,69.1 C162.9,66.9 161.2,64.7 161,64.3 C160.8,63.9 159.3,63 157.7,62.3 C155.2,61.1 153,59.5 148,55.5 C147.1,54.8 146.7,54.7 146.4,55.3 C145.8,56.3 144.5,67.6 144.5,72.2 L144.5,75.9 L152.2,76 C156.4,76.1 160.8,76.3 161.9,76.5 L163.9,76.9 L163.8,81.4 C163.7,83.9 163.8,92.8 163.9,101.3 C164.2,117.3 163.5,137 162.7,138.1 C162.4,138.4 162,139.5 161.8,140.5 C161.6,141.5 160.1,144.1 158.5,146.4 C156.9,148.6 155,151.7 154.1,153.2 C153.3,154.7 151.9,156.6 151,157.5 C150.1,158.4 149.4,159.5 149.4,160 C149.4,160.5 148.3,162.7 147,164.9 C145.7,167.1 144.4,169.5 144.1,170.3 C143.9,171 142.6,172.5 141.4,173.4 C140.2,174.3 138.5,175.7 137.8,176.4 C136.1,178.1 131.3,179.2 124.9,179.2 C118.1,179.2 118,179.5 117.9,187.4 C117.9,190.7 118.1,194 118.3,194.8 C118.9,196.3 119.5,196.3 124.3,194.8 L124.3,194.8 Z M110,194 C113.4,193.7 114.3,193.4 114.6,192.4 C115.1,190.7 114.4,189.8 112.8,190.3 C112,190.5 110.3,190.7 108.9,190.7 C107.5,190.7 104.8,191 102.9,191.4 C100.1,192.1 99.4,192.5 99.2,193.7 C99,195.1 99.1,195.1 102.3,194.8 C104.3,194.5 107.7,194.2 110,194 L110,194 Z M72.4,189.8 C73.2,187.6 72.9,187.4 69.9,188.1 C68.5,188.4 65,188.7 62.1,188.8 C58.4,188.9 56.7,189.2 56.5,189.8 C55.9,191.3 56.8,191.4 62.3,190.7 C67,190 67.8,190.1 68.7,190.9 C70.2,192.3 71.7,191.8 72.4,189.8 L72.4,189.8 Z M51.6,187.2 C51.8,186.4 52,183.7 52.2,181.2 L52.6,176.6 L49,176.6 C47,176.6 43.1,176.4 40.4,176.2 C35.6,175.8 35.5,175.8 35.7,177.3 C35.8,178.2 36.5,179 37.5,179.3 C38.4,179.6 40.8,181.4 42.8,183.3 C44.8,185.2 46.9,186.8 47.3,186.8 C47.8,186.8 48.1,187.2 48.1,187.7 C48.2,189.3 51.3,188.9 51.6,187.2 L51.6,187.2 Z M111.6,187.9 C114.4,187.9 114.9,187.7 114.9,186.7 C114.9,186.1 114.8,185.3 114.7,185.1 C114.5,184.6 106.3,184.7 102.4,185.3 C100.1,185.6 99.7,185.9 99.7,187.3 C99.7,188.9 99.7,188.9 103.9,188.5 C106.4,188.2 109.8,187.9 111.6,187.9 L111.6,187.9 Z M64.8,186 C68.3,185.6 71.6,185.3 72,185.3 C72.4,185.3 72.8,184.6 72.8,183.8 C72.8,182.4 72.8,182.4 65.2,182.7 C61,182.9 57.3,183.1 57.1,183.3 C56.7,183.5 56.7,185.5 57.1,187.2 C57.1,187.3 57.4,187.2 57.8,187 C58,186.8 61.2,186.4 64.8,186 L64.8,186 Z M109.9,182.4 C113.7,182 115.5,181.5 116,180.7 C116.4,180.1 116.6,179.5 116.3,179.3 C116,179.1 112.1,179 107.5,179.1 C100.7,179.3 99.2,179.5 98.8,180.3 C98.2,181.9 99.6,183 102.1,183 C103.5,183 106.9,182.7 109.9,182.4 L109.9,182.4 Z M72.8,178.7 L72.8,176.9 L65.8,176.5 C62,176.3 58.4,176.3 57.9,176.5 C56.4,177.1 56.9,178.6 58.6,178.6 C59.5,178.6 60.2,178.9 60.2,179.2 C60.2,180.1 61.9,180.4 67.6,180.4 L72.8,180.5 L72.8,178.7 Z M133.9,171 C135.3,171 135.6,166 136,138.9 C136.2,127.7 136.5,117.2 136.7,115.8 C137.1,113.1 137.1,113.1 135.1,113.1 C134,113.1 133.1,112.8 133.1,112.4 C133.1,111.1 126.7,112.1 125.5,113.7 C124.2,115.3 123.6,115.3 119.9,114 C118.1,113.4 116.1,113.2 114.5,113.4 C111.5,113.8 97.1,112.7 92.9,111.7 C89.8,111 68.9,110.4 53.3,110.5 C45.5,110.6 43.4,110.8 42.8,111.5 C42.4,112 41.6,115.2 41,118.5 C40.4,121.9 39.5,126.1 39,128 C38.5,129.9 38,135.5 37.9,140.4 C37.8,145.3 37.5,149.6 37.3,149.9 C37.1,150.2 36.8,154.4 36.5,159.3 L36.1,168.2 L38.9,168.5 C45.5,169.3 54.5,169.5 89.2,169.6 C119.9,169.7 126.2,169.8 127.3,170.6 C128.1,171.2 129.4,171.4 130.8,171.1 C131.9,171.2 133.3,171 133.9,171 L133.9,171 Z M148.7,150 C149.9,147.9 151.9,145.2 153,143.9 C154.1,142.6 155.4,140.9 155.8,140.1 C156.2,139.3 157,138.3 157.4,138 C157.9,137.7 158.2,136.5 158.2,135.5 C158.2,134.5 158,123.8 157.7,111.9 L157.2,90.2 L156,90 C155.1,89.9 154.6,90.1 154.6,90.6 C154.6,91.5 151,97 147.6,101.2 C146.4,102.7 145.4,104.3 145.4,104.8 C145.3,105.3 144.3,106.6 143.1,107.7 C140.2,110.3 139.6,114.2 140.4,124.4 C140.6,127 141.1,134.8 141.4,141.7 C141.8,148.6 142.2,155 142.4,155.8 L142.7,157.3 L144.6,155.5 C145.6,154.6 147.5,152 148.7,150 L148.7,150 Z M133.5,107.5 C136.1,107.5 136.4,107.3 138.5,104.2 C141.1,100.4 141.3,99.6 139.4,100.6 C138.7,101 137.4,101.1 136.5,100.9 C133.4,100.1 131.6,101 130.1,104.1 C128.5,107.5 128.4,108.4 129.7,107.9 C130.3,107.7 132,107.5 133.5,107.5 L133.5,107.5 Z M121,106.2 C121.4,103.8 120.3,103.4 110.3,103.3 C105,103.2 96.1,102.9 90.6,102.6 C76.7,101.9 65,102 64.7,103 C64.3,104.1 63.5,103.9 61.7,102.2 C60.3,100.9 60.1,100.3 60.4,98.6 C60.8,96.7 60.7,96.6 59.9,97.7 C59.4,98.4 57.5,100.4 55.8,102.2 C54.1,104 52.6,105.6 52.6,105.8 C52.6,105.9 60.9,106.1 71,106.2 C81.1,106.3 91.5,106.6 94.1,106.9 C96.7,107.2 103.8,107.4 109.8,107.4 C119.1,107.2 120.9,107 121,106.2 L121,106.2 Z M126.8,105.9 C127.7,103.9 126.8,103.9 124.6,105.9 L122.8,107.5 L124.4,107.5 C125.5,107.5 126.3,107 126.8,105.9 L126.8,105.9 Z M118.8,98.3 C118.9,97.7 118.9,92.2 118.7,86 C118.3,73.3 118.6,67.8 119.4,67.8 C119.7,67.8 120,72.2 120,77.7 C120,83.1 120.1,87.4 120.3,87.3 C120.8,86.8 121.8,66.2 121.5,64.8 C121.3,64.1 121,63.6 120.7,63.8 C120.5,63.9 113.9,64.2 106.1,64.4 C98.3,64.6 88.4,65 84.1,65.2 C79.8,65.4 75.4,65.7 74.3,65.7 C69.8,65.8 69.7,65.9 69.3,68 C69.1,69.1 68.8,72.2 68.6,74.8 C68.4,77.4 68,82.2 67.7,85.5 C67.4,88.8 67.1999616,92.9 67.1999616,94.7 C67.1999616,98.6 67.1,98.6 77.1,98 C83.1,97.7 105.5,98.4 107,99 C107.3,99.1 110.1,99.3 113.1,99.3 C117.7,99.3 118.6,99.1 118.8,98.3 L118.8,98.3 Z M72.2,83.7 C71.8,83 71.7,81.2 71.9,79.6 C72.2,77.4 72,76.5 71.3,75.7 C69.9,74.3 70,73.5 71.5,73.5 C72.2,73.5 72.8,73.1 73,72.7 C73.2,72.1 73.5,72.1 74.2,72.6 C74.9,73.1 76.5,73.1 80.8,72.5 C88.5,71.3 89.1,71.4 89.5,73 C89.7,73.9 89.4,74.7 88.5,75.5 C87.4,76.4 87.3,76.9 87.8,77.7 C88.3,78.5 88.2,79.3 87.6,80.6 C86.4,82.9 85.4,83.4 80.2,83.8 C77.8,84 75.2,84.4 74.4,84.6 C73.3,84.9 72.7,84.6 72.2,83.7 L72.2,83.7 Z M81.2,78.5 C83.2,78.1 84.8,77.6 84.8,77.3 C84.8,77 85,76.4 85.2,75.8 C85.5,75 85.1,74.8 82.5,74.9 C77.1,75 75.7,75.6 75.5,77.5 C75.2,79.5 75.7,79.6 81.2,78.5 L81.2,78.5 Z M94.6,82.9 C94,82.6 93.5,81.5 93.5,80.6 C93.5,78.8 94.7,74.1 95.4,73.3 C95.6,73 100,72.7 105,72.5 L114.2,72.2 L114,77 C113.9,79.6 113.4,82.1 113.1,82.5 C112.2,83.5 96.1,83.8 94.6,82.9 L94.6,82.9 Z M111.1,76.3 C111.1,74.7 111.1,74.7 105.5,74.7 C99.1,74.7 97.9,75 97.9,76.7 C97.9,77.8 98.4,77.9 104.5,77.9 L111.1,77.9 L111.1,76.3 Z M137.9,97.4 C138.9,97.1 140.7,96.7 141.9,96.5 C143.8,96.3 144.5,95.7 147.4,91.6 C151.2,86.2 153.9,83.8 154.6,84.9 C155,85.5 155.3,85.4 156,84.7 C158.1,82.6 157.5,82.1 152.8,82 C148.7,81.9 148.2,82 147.9,83.2 C147.7,83.9 146.9,84.9 146,85.4 C145.1,85.9 144.4,86.6 144.4,86.9 C144.4,87.8 142.1,89.8 141,89.8 C140.5,89.8 139.6,90.8 139.1,91.9 C138.5,93.1 137.4,94.7 136.6,95.5 C134.1,97.9 134.6,98.6 137.9,97.4 L137.9,97.4 Z M137.3,96.2 C137.5,95.9 138,95.6 138.3,95.6 C138.6,95.6 138.9,95.9 138.9,96.2 C138.9,96.5 138.5,96.8 137.9,96.8 C137.3,96.8 137,96.5 137.3,96.2 L137.3,96.2 Z M67.1,94.4 C67.1,92.9 66,94.1 65.7,96 C65.4,97.6 65.4,97.6 66.3,96.5 C66.7,95.8 67.1,94.9 67.1,94.4 L67.1,94.4 Z M129.2,94.3 C129.8,93.6 130.6,93 130.9,93 C131.3,93 133.2,91.3 135.2,89.3 C138.8,85.7 138.9,85.5 138.4,83.2 C137.8,80.1 138,68 138.7,63.2 C139,61.2 139.1,59.2 138.9,58.9 C138.7,58.6 136.5,60.3 134,62.8 C130.8,66 129.2,67.2 128.4,66.9 C126.4,66.1 125.9,69.3 126,82.3 C126.1,89 126.3,94.8 126.4,95 C127.2,95.9 128.1,95.6 129.2,94.3 L129.2,94.3 Z M123.5,57.7 C125.7,55.4 126.1,54.8 125.6,53.6 C124.9,51.9 123.2,51.8 116.1,53.1 C112.7,53.7 109.8,53.8 106,53.4 C98.2,52.6 91.2,53.1 88.2,54.7 C86.8,55.4 85.4,56 85,56 C84.1,56 83.1,57.2 82.6,59 L82.2,60.4 L94.7,60.2 C101.6,60.1 108.7,60.2 110.6,60.5 C112.5,60.8 115.6,60.9 117.5,60.8 C120.5,60.4 121.1,60.1 123.5,57.7 L123.5,57.7 Z" id="Shape"></path>
                    <path d="M36.9,11.8 L36.9,18.3 L32.9,18.3 L32.9,1.3 L38.8,1.3 C40.8,1.3 42.3,1.8 43.5,2.7 C44.7,3.6 45.2,4.9 45.2,6.4 C45.2,7.3 45,8 44.5,8.7 C44,9.3 43.3,9.8 42.4,10.2 C43.4,10.5 44.2,11 44.6,11.7 C45.1,12.4 45.3,13.3 45.3,14.3 L45.3,15.4 C45.3,15.8 45.4,16.4 45.5,16.9 C45.6,17.5 45.9,17.9 46.2,18.1 L46.2,18.3 L42.1,18.3 C41.8,18.1 41.6,17.6 41.5,17 C41.4,16.4 41.4,15.8 41.4,15.3 L41.4,14.3 C41.4,13.5 41.2,12.9 40.8,12.4 C40.4,12 39.7,11.8 38.9,11.8 L36.9,11.8 Z M36.9,8.8 L38.9,8.8 C39.7,8.8 40.3,8.6 40.7,8.3 C41.1,7.9 41.3,7.4 41.3,6.7 C41.3,6 41.1,5.4 40.6,5 C40.2,4.6 39.6,4.4 38.8,4.4 L36.8,4.4 L36.8,8.8 L36.9,8.8 Z" id="Shape"></path>
                    <path d="M53.7,18.6 C51.8,18.6 50.3,18 49.2,16.8 C48.1,15.6 47.6,14.2 47.6,12.4 L47.6,12 C47.6,10.1 48.1,8.5 49.1,7.3 C50.1,6.1 51.6,5.5 53.6,5.5 C55.3,5.5 56.6,6 57.6,7 C58.5,8 59,9.4 59,11.2 L59,13.3 L51.7,13.3 L51.7,13.4 C51.8,14.1 52,14.6 52.4,15 C52.8,15.4 53.5,15.6 54.2,15.6 C55,15.6 55.6,15.5 56.1,15.4 C56.6,15.3 57.2,15.1 57.8,14.8 L58.7,17.2 C58.2,17.6 57.4,17.9 56.5,18.2 C55.6,18.5 54.7,18.6 53.7,18.6 L53.7,18.6 Z M53.5,8.5 C52.9,8.5 52.4,8.7 52.1,9.1 C51.8,9.5 51.6,10 51.6,10.7 L51.6,10.8 L55,10.8 L55,10.5 C55,9.8 54.9,9.3 54.7,9 C54.5,8.6 54.1,8.5 53.5,8.5 L53.5,8.5 Z" id="Shape"></path>
                    <path d="M72.3,12.3 C72.3,14.2 71.9,15.7 71,16.9 C70.1,18.1 68.9,18.6 67.4,18.6 C66.8,18.6 66.2,18.5 65.8,18.2 C65.3,18 64.9,17.6 64.6,17.2 L64.6,23.2 L60.6,23.2 L60.6,5.7 L64.3,5.7 L64.4,7.1 C64.7,6.6 65.2,6.2 65.7,5.9 C66.2,5.6 66.7,5.5 67.4,5.5 C69,5.5 70.2,6.1 71.1,7.3 C72,8.5 72.4,10.1 72.4,12.1 L72.4,12.3 L72.3,12.3 Z M68.4,12 C68.4,10.9 68.2,10.1 67.9,9.4 C67.6,8.7 67.1,8.4 66.4,8.4 C66,8.4 65.6,8.5 65.3,8.6 C65,8.8 64.7,9 64.6,9.3 L64.6,14.6 C64.8,14.9 65,15.1 65.3,15.2 C65.6,15.3 66,15.4 66.4,15.4 C67.1,15.4 67.6,15.1 67.9,14.5 C68.2,13.9 68.3,13.1 68.3,12.1 L68.3,12 L68.4,12 Z" id="Shape"></path>
                    <path d="M79.7,18.6 C77.8,18.6 76.3,18 75.2,16.8 C74.1,15.6 73.6,14.2 73.6,12.4 L73.6,12 C73.6,10.1 74.1,8.5 75.1,7.3 C76.1,6.1 77.6,5.5 79.6,5.5 C81.3,5.5 82.6,6 83.6,7 C84.5,8 85,9.4 85,11.2 L85,13.3 L77.7,13.3 L77.7,13.4 C77.8,14.1 78,14.6 78.4,15 C78.8,15.4 79.4,15.6 80.3,15.6 C81.1,15.6 81.7,15.5 82.2,15.4 C82.7,15.3 83.3,15.1 83.9,14.8 L84.8,17.2 C84.3,17.6 83.5,17.9 82.6,18.2 C81.7,18.5 80.7,18.6 79.7,18.6 L79.7,18.6 Z M79.6,8.5 C79,8.5 78.5,8.7 78.2,9.1 C77.9,9.5 77.7,10 77.7,10.7 L77.7,10.8 L81.1,10.8 L81.1,10.5 C81.1,9.8 81,9.3 80.8,9 C80.5,8.6 80.1,8.5 79.6,8.5 L79.6,8.5 Z" id="Shape"></path>
                    <path d="M91.2,2.5 L91.2,5.7 L93.2,5.7 L93.2,8.4 L91.2,8.4 L91.2,14.2 C91.2,14.7 91.3,15 91.5,15.2 C91.7,15.4 91.9,15.5 92.3,15.5 C92.5,15.5 92.7,15.5 92.8,15.5 C92.9,15.5 93.1,15.5 93.3,15.4 L93.6,18.3 C93.2,18.4 92.8,18.5 92.5,18.5 C92.2,18.5 91.8,18.6 91.4,18.6 C90.1,18.6 89.1,18.3 88.4,17.6 C87.7,16.9 87.4,15.8 87.4,14.3 L87.4,8.5 L85.6,8.5 L85.6,5.8 L87.4,5.8 L87.4,2.6 L91.2,2.6 L91.2,2.5 Z" id="Path"></path>
                    <path d="M99.3,18.3 L95.3,18.3 L95.3,5.7 L99.3,5.7 L99.3,18.3 Z M99.3,2.7 L95.3,2.7 L95.3,0 L99.3,0 L99.3,2.7 Z" id="Shape"></path>
                    <path d="M106.3,2.5 L106.3,5.7 L108.3,5.7 L108.3,8.4 L106.3,8.4 L106.3,14.2 C106.3,14.7 106.4,15 106.6,15.2 C106.8,15.4 107,15.5 107.4,15.5 C107.6,15.5 107.8,15.5 107.9,15.5 C108,15.5 108.2,15.5 108.4,15.4 L108.7,18.3 C108.3,18.4 107.9,18.5 107.6,18.5 C107.3,18.5 106.9,18.6 106.5,18.6 C105.2,18.6 104.2,18.3 103.5,17.6 C102.8,16.9 102.5,15.8 102.5,14.3 L102.5,8.5 L100.7,8.5 L100.7,5.8 L102.5,5.8 L102.5,2.6 L106.3,2.6 L106.3,2.5 Z" id="Path"></path>
                    <path d="M114.3,18.3 L110.3,18.3 L110.3,5.7 L114.3,5.7 L114.3,18.3 Z M114.3,2.7 L110.3,2.7 L110.3,0 L114.3,0 L114.3,2.7 Z" id="Shape"></path>
                    <polygon id="Path" points="121.5 13.1 121.7 14.4 121.8 14.4 122.1 13 123.8 5.5 128 5.5 123.9 18.2 119.9 18.2 115.8 5.5 120 5.5"></polygon>
                    <path d="M134.6,18.6 C132.7,18.6 131.2,18 130.1,16.8 C129,15.6 128.5,14.2 128.5,12.4 L128.5,12 C128.5,10.1 129,8.5 130,7.3 C131,6.1 132.5,5.5 134.5,5.5 C136.2,5.5 137.5,6 138.5,7 C139.4,8 139.9,9.4 139.9,11.2 L139.9,13.3 L132.6,13.3 L132.6,13.4 C132.7,14.1 132.9,14.6 133.3,15 C133.7,15.4 134.3,15.6 135.2,15.6 C136,15.6 136.6,15.5 137.1,15.4 C137.6,15.3 138.2,15.1 138.8,14.8 L139.7,17.2 C139.2,17.6 138.4,17.9 137.5,18.2 C136.6,18.5 135.6,18.6 134.6,18.6 L134.6,18.6 Z M134.4,8.5 C133.8,8.5 133.3,8.7 133,9.1 C132.7,9.5 132.5,10 132.5,10.7 L132.5,10.8 L135.9,10.8 L135.9,10.5 C135.9,9.8 135.8,9.3 135.5,9 C135.4,8.6 135,8.5 134.4,8.5 L134.4,8.5 Z" id="Shape"></path>
                    <rect id="Rectangle" x="148" y="1.3" width="3.9" height="17.1"></rect>
                    <polygon id="Path" points="166.5 4.3 162 4.3 162 18.3 158 18.3 158 4.3 153.6 4.3 153.6 1.3 166.5 1.3"></polygon>
                </g>
            </g>
        </g>
    </g>
</svg>