<?xml version="1.0" encoding="utf-8"?>
<!-- Generator: Adobe Illustrator 16.0.3, SVG Export Plug-In . SVG Version: 6.00 Build 0)  -->
<!DOCTYPE svg PUBLIC "-//W3C//DTD SVG 1.1//EN" "http://www.w3.org/Graphics/SVG/1.1/DTD/svg11.dtd">
<svg version="1.1" xmlns="http://www.w3.org/2000/svg" xmlns:xlink="http://www.w3.org/1999/xlink" x="0px" y="0px" width="623.6px"
	 height="255.1px" viewBox="0 0 623.6 255.1" style="enable-background:new 0 0 623.6 255.1;" xml:space="preserve">
<style type="text/css">
<![CDATA[
	.st0{clip-path:url(#SVGID_2_);}
	.st1{fill:#FFFFFF;}
]]>
</style>
<g id="BG">
	<rect class="st1" width="623.6" height="255.1"/>
</g>
<g id="Logo">
	<g>
		<g>
			<defs>
				<rect id="SVGID_1_" x="212.3" y="20.1" width="199" height="215"/>
			</defs>
			<clipPath id="SVGID_2_">
				<use xlink:href="#SVGID_1_"  style="overflow:visible;"/>
			</clipPath>
			<path class="st0" d="M288.9,233.8c-9.2-1.7-21.6-6-27.4-9.5c-0.5-0.3-2.8-1.6-5-2.8c-2.2-1.2-7.1-4.7-10.7-7.7
				c-3.6-3-7.8-6.5-9.3-7.7c-1.5-1.2-2.6-2.4-2.6-2.8c0-0.3-1.1-2.1-2.5-3.8c-3.2-4.2-7.8-12.7-9.9-18.3
				c-4.3-11.4-9.1-31.8-9.2-38.7c0-2.5,0.4-6.9,1.4-13.5c0.3-2.4,1-7.7,1.5-11.6c1.1-9,3.8-16.5,9.3-25.6
				c9.4-15.8,32.7-34.9,50.2-41.2c9.8-3.5,18.7-4.9,32.7-4.9c12.7-0.1,22.2,1,28.5,3.2c2,0.7,3.9,1.3,4.3,1.3
				c0.4,0,5.1,1.7,10.6,3.8c5.4,2.1,10.7,4.1,11.6,4.3c5.1,1.5,24.7,18.4,30.4,26.2c1,1.3,2.6,3.4,3.6,4.6
				c3.5,4.1,11.7,23.4,13.6,32.3c1.4,6.2,1.5,11,0.1,6.8c-0.6-2-0.7-1.6-0.8,3.8c-0.3,17.8-3.1,30.8-9.1,43.7
				c-1.1,2.4-2.5,5.4-3.1,6.6c-0.5,1.2-1.7,3-2.6,3.9c-0.9,0.9-1.6,2-1.6,2.4s-1.3,2-3,3.7c-1.6,1.6-4.8,5.1-7,7.8
				c-2.2,2.7-4.4,4.8-4.9,4.8c-0.5,0-0.9,0.3-0.9,0.6c0,0.3-0.5,0.8-1.1,1c-0.6,0.2-2.6,1.8-4.5,3.5c-1.9,1.7-3.6,3.1-3.8,3.1
				c-0.2,0-1.7,1-3.2,2.2c-1.5,1.2-3.2,2.2-3.7,2.2c-0.5,0-1.9,0.7-3.1,1.5c-2.2,1.5-13.2,7.2-17.9,9.3c-6.6,2.9-29.7,6.9-39.6,6.8
				C297.4,235,292.3,234.5,288.9,233.8L288.9,233.8z M312.6,229.4c0.7-0.4,1.8-0.5,2.5-0.2c0.7,0.2,1.6,0.1,2-0.2
				c0.4-0.4,3.6-0.8,6.9-1c5.8-0.4,9.2-1.2,22.6-5.4c2.9-0.9,3.2-1.9,0.3-1.1c-8.1,2.1-13.1,3.3-14.9,3.5c-2.1,0.2-2.1,0.2,0.9-1.3
				c1.7-0.8,3.7-1.5,4.4-1.6s1.6-0.3,1.9-0.6c0.3-0.3,2.4-0.9,4.7-1.3c12.3-2.4,17-4.7,25.2-12.4c3.1-2.9,6.1-5.3,6.6-5.3
				c2.4,0,12.2-12.2,12.2-15.1c0-1,0.2-1.1,1.5-0.6c1.3,0.5,1.7,0.3,2.5-0.9c0.5-0.8,1-1.6,1-1.8c0-0.6,5.2-9.2,5.6-9.2
				c0.2,0,0.5-0.7,0.5-1.4c0-0.8,0.8-3,1.6-4.9c2.4-5.3,4.6-11.9,4.1-12.3c-0.2-0.2,0.1-2.1,0.6-4.2c1.3-5.4,1.5-8.3,1.5-17.7
				c0-18.2-5.2-34.1-15.1-46.4c-4.9-6.1-17.8-18.2-23.5-22c-25.7-17.3-58.6-23-85.8-14.8c-8,2.4-10,3.2-18.2,7.7
				c-8.7,4.7-12,7-21.6,15.5c-7.3,6.4-8.1,7.3-12.1,13.2c-3.4,5.1-3.3,5-2.5,6.3c0.5,0.8,0.6,0.8,0.6,0.1c0-0.5,0.2-0.7,0.4-0.5
				c0.2,0.2-0.5,2.3-1.6,4.6c-10.6,21.9-12.5,49.7-5,71.4c1,2.8,1.1,4,0.6,4.5c-0.4,0.4-0.7,1.2-0.7,1.8c0,2.6,11.1,22,12.6,22
				c0.3,0,0.6,0.6,0.6,1.4c0,1,1,2.1,3.2,3.6c1.7,1.2,4.5,3.6,6.1,5.4c5,5.5,19.7,15.6,24.5,16.8c1.3,0.3,4.5,1,7.1,1.6
				c2.6,0.5,5.2,1.2,5.9,1.5c0.6,0.3,3.5,0.9,6.3,1.3c2.8,0.4,6.6,0.9,8.3,1.1C301.1,230.6,311,230.2,312.6,229.4L312.6,229.4z
				 M295.8,223c-13.3-1.2-32.6-9.3-41.8-17.4c-1.9-1.7-4.5-3.6-5.7-4.2c-1.2-0.6-2.3-1.3-2.5-1.6c-0.2-0.2-1.6-1.1-3.1-2l-2.8-1.6
				l-0.3-4.4c-0.3-3.6-0.7-4.9-2.6-7.8c-3.2-4.9-5.7-11-3.6-9c0.4,0.4,1.1,0.6,1.5,0.4c0.5-0.2,1,0.4,1.2,1.4
				c0.6,2.4,3.5,6.8,4.1,6.2c0.3-0.3,0.8-3.5,1.3-7.2c0.4-3.6,0.9-7.3,1-8.2c0.1-0.9,0.5-4.3,0.9-7.5c0.4-3.3,1.2-8,1.9-10.5
				c0.7-2.5,1.8-8.2,2.5-12.6c1.1-7.1,1.5-8.2,2.9-9.3c0.9-0.7,2.5-2.1,3.6-3.2c1.1-1.1,3.2-2.6,4.6-3.4c1.5-0.8,3.2-2.5,4.1-3.9
				c0.8-1.4,1.9-3.3,2.5-4.2c0.5-0.9,2-2.2,3.1-2.8c1.2-0.6,2.9-2.3,3.8-3.8c1.5-2.3,1.7-3.7,2.4-12.1c0.9-10.8,0.5-10,7.8-14
				c2.5-1.4,6.1-3.7,8-5.1c1.9-1.4,3.6-2.6,3.9-2.6c0.2,0,1.9-1.3,3.8-2.9c2.7-2.3,3.6-2.8,4.9-2.4c2.1,0.6,40.3,0.9,40.3,0.4
				c0-1.4-11.4-5.5-21.1-7.6c-9.8-2.1-15-2.7-19.4-2.3c-8.2,0.8-20.4,4.1-28.8,7.7c-3.4,1.5-10.2,6.2-12.9,9
				c-1.4,1.4-2.9,2.5-3.4,2.5c-1,0-7.2,5.7-10.5,9.9c-9.9,12.2-14.7,20.2-14.7,24.7c0,1-0.4,3.5-1,5.5c-2,7.5-3.2,33-1.7,37.4
				c1,2.9,4,17.7,3.7,18.1c-1,1-5.1-13.2-5.6-19.3c-0.2-2.6-0.7-5.9-1.1-7.4c-0.5-2.2-0.5-3.6,0.1-6.4c0.5-2,0.9-7.1,1-11.4
				c0.1-4.7,0.6-8.8,1.1-10.4c0.5-1.4,1.4-5.3,2.1-8.6c0.9-5,1.6-6.7,3.8-10c1.5-2.2,2.7-4.4,2.7-4.8c0-1.2,5.2-7.4,11.3-13.5
				c3.8-3.8,7.2-6.5,11.6-9.1c3.5-2.1,7.3-4.5,8.5-5.4c5.1-3.9,11-6.1,24.5-9.1c6.1-1.4,7.1-1.5,14.2-0.8c15.7,1.3,25.3,3,26.5,4.6
				c0.3,0.5,2.5,1.7,4.7,2.7c2.2,1,4.9,2.4,5.9,3.1c2,1.3,7.7,1.7,11.1,0.7c1.4-0.4,1.7-0.2,2.1,0.8c0.2,0.7,0.8,1.3,1.3,1.3
				c0.6,0,0.9,0.7,0.9,1.9c0,1.6,0.5,2.2,3.6,4.2c2,1.3,4.4,3.1,5.3,4.1c0.9,1,2.1,1.8,2.7,1.8s1,0.4,1,0.8c0,0.4,1.1,1.8,2.5,3.1
				c3.2,3,7.1,8.3,10.2,13.9c2.8,5,4.1,8.2,5,12.8c0.3,1.7,1.2,5,1.8,7.2c1.7,5.5,2.5,21.7,1.5,27.2c-0.4,2.2-0.8,4.9-0.8,6
				c0,1.1-0.5,3-1.1,4.1c-1.1,2.1-3.9,15.2-4,18.2c0,0.9-0.4,1.9-0.8,2.2c-0.5,0.3-1.8,1.9-2.9,3.5c-2.1,2.9-2.1,3-0.9,4
				c1.1,0.9,1.1,0.9-0.8,0.6c-1.8-0.3-2.1-0.2-2.8,1.2c-0.4,0.9-0.9,1.6-1.2,1.6c-0.8,0-3.8,3.3-7.2,7.9
				c-5.6,7.4-13.3,13.8-21.4,17.6c-4.8,2.3-7.2,2.9-15.6,4.1c-3.9,0.5-5.9,1.1-6.8,1.9C324.8,222.1,307,224.1,295.8,223L295.8,223z
				 M307.2,219.2c0.7-0.6,0.9-2.4,0.8-8.3c-0.1-4.2,0-8.6,0.1-9.8c0.2-2.1,0.1-2.2-2.3-2.6c-1.4-0.2-6.1-0.6-10.5-0.7l-8-0.3
				l0.1,10.6c0.1,5.8,0.3,10.8,0.5,11C289.6,220.6,305.5,220.7,307.2,219.2L307.2,219.2z M324,218.9c1-0.3,2-0.9,2.1-1.3
				c0.2-0.6-1-0.6-4.7-0.4c-6.6,0.5-9.2,1.1-9.5,2c-0.2,0.6,0.9,0.7,5,0.5C319.8,219.5,323,219.1,324,218.9L324,218.9z M283.3,215.8
				c0.7-1.7-0.7-2.3-4.2-1.8c-3.6,0.5-3.7,0.7-0.2,1.9C282.1,217,282.8,217,283.3,215.8L283.3,215.8z M336.3,214.8
				c3.9-1.2,21.4-11.1,26.7-15.1c6.7-5.1,14.4-13,17.8-18.3c1.5-2.3,2.7-4.5,2.7-4.8c0-0.5,1.4-3.5,3.8-8.2
				c1.7-3.2,3.6-14.8,4.4-25.3c0.7-10.5,0.2-16.8-2.2-28.8c-1.3-6.4-2.1-8.7-4.1-12.1c-1.4-2.3-2.8-4.4-3.1-4.6
				c-0.3-0.2-1-1.3-1.5-2.4c-0.5-1.1-2.3-3.8-4.1-6.1c-1.8-2.2-3.5-4.4-3.7-4.8c-0.2-0.4-1.7-1.3-3.3-2c-2.5-1.2-4.7-2.8-9.7-6.8
				c-0.9-0.7-1.3-0.8-1.6-0.2c-0.6,1-1.9,12.3-1.9,16.9v3.7l7.7,0.1c4.2,0.1,8.6,0.3,9.7,0.5l2,0.4l-0.1,4.5
				c-0.1,2.5,0,11.4,0.1,19.9c0.3,16-0.4,35.7-1.2,36.8c-0.3,0.3-0.7,1.4-0.9,2.4c-0.2,1-1.7,3.6-3.3,5.9c-1.6,2.2-3.5,5.3-4.4,6.8
				c-0.8,1.5-2.2,3.4-3.1,4.3c-0.9,0.9-1.6,2-1.6,2.5c0,0.5-1.1,2.7-2.4,4.9c-1.3,2.2-2.6,4.6-2.9,5.4c-0.2,0.7-1.5,2.2-2.7,3.1
				s-2.9,2.3-3.6,3c-1.7,1.7-6.5,2.8-12.9,2.8c-6.8,0-6.9,0.3-7,8.2c0,3.3,0.2,6.6,0.4,7.4C330.9,216.3,331.5,216.3,336.3,214.8
				L336.3,214.8z M322,214c3.4-0.3,4.3-0.6,4.6-1.6c0.5-1.7-0.2-2.6-1.8-2.1c-0.8,0.2-2.5,0.4-3.9,0.4c-1.4,0-4.1,0.3-6,0.7
				c-2.8,0.7-3.5,1.1-3.7,2.3c-0.2,1.4-0.1,1.4,3.1,1.1C316.3,214.5,319.7,214.2,322,214L322,214z M284.4,209.8
				c0.8-2.2,0.5-2.4-2.5-1.7c-1.4,0.3-4.9,0.6-7.8,0.7c-3.7,0.1-5.4,0.4-5.6,1c-0.6,1.5,0.3,1.6,5.8,0.9c4.7-0.7,5.5-0.6,6.4,0.2
				C282.2,212.3,283.7,211.8,284.4,209.8L284.4,209.8z M263.6,207.2c0.2-0.8,0.4-3.5,0.6-6l0.4-4.6H261c-2,0-5.9-0.2-8.6-0.4
				c-4.8-0.4-4.9-0.4-4.7,1.1c0.1,0.9,0.8,1.7,1.8,2c0.9,0.3,3.3,2.1,5.3,4c2,1.9,4.1,3.5,4.5,3.5c0.5,0,0.8,0.4,0.8,0.9
				C260.2,209.3,263.3,208.9,263.6,207.2L263.6,207.2z M323.6,207.9c2.8,0,3.3-0.2,3.3-1.2c0-0.6-0.1-1.4-0.2-1.6
				c-0.2-0.5-8.4-0.4-12.3,0.2c-2.3,0.3-2.7,0.6-2.7,2c0,1.6,0,1.6,4.2,1.2C318.4,208.2,321.8,207.9,323.6,207.9L323.6,207.9z
				 M276.8,206c3.5-0.4,6.8-0.7,7.2-0.7c0.4,0,0.8-0.7,0.8-1.5c0-1.4,0-1.4-7.6-1.1c-4.2,0.2-7.9,0.4-8.1,0.6
				c-0.4,0.2-0.4,2.2,0,3.9c0,0.1,0.3,0,0.7-0.2C270,206.8,273.2,206.4,276.8,206L276.8,206z M321.9,202.4c3.8-0.4,5.6-0.9,6.1-1.7
				c0.4-0.6,0.6-1.2,0.3-1.4c-0.3-0.2-4.2-0.3-8.8-0.2c-6.8,0.2-8.3,0.4-8.7,1.2c-0.6,1.6,0.8,2.7,3.3,2.7
				C315.5,203,318.9,202.7,321.9,202.4L321.9,202.4z M284.8,198.7v-1.8l-7-0.4c-3.8-0.2-7.4-0.2-7.9,0c-1.5,0.6-1,2.1,0.7,2.1
				c0.9,0,1.6,0.3,1.6,0.6c0,0.9,1.7,1.2,7.4,1.2l5.2,0.1V198.7z M345.9,191c1.4,0,1.7-5,2.1-32.1c0.2-11.2,0.5-21.7,0.7-23.1
				c0.4-2.7,0.4-2.7-1.6-2.7c-1.1,0-2-0.3-2-0.7c0-1.3-6.4-0.3-7.6,1.3c-1.3,1.6-1.9,1.6-5.6,0.3c-1.8-0.6-3.8-0.8-5.4-0.6
				c-3,0.4-17.4-0.7-21.6-1.7c-3.1-0.7-24-1.3-39.6-1.2c-7.8,0.1-9.9,0.3-10.5,1c-0.4,0.5-1.2,3.7-1.8,7c-0.6,3.4-1.5,7.6-2,9.5
				c-0.5,1.9-1,7.5-1.1,12.4c-0.1,4.9-0.4,9.2-0.6,9.5c-0.2,0.3-0.5,4.5-0.8,9.4l-0.4,8.9l2.8,0.3c6.6,0.8,15.6,1,50.3,1.1
				c30.7,0.1,37,0.2,38.1,1c0.8,0.6,2.1,0.8,3.5,0.5C343.9,191.2,345.3,191,345.9,191L345.9,191z M360.7,170
				c1.2-2.1,3.2-4.8,4.3-6.1c1.1-1.3,2.4-3,2.8-3.8c0.4-0.8,1.2-1.8,1.6-2.1c0.5-0.3,0.8-1.5,0.8-2.5c0-1-0.2-11.7-0.5-23.6
				l-0.5-21.7L368,110c-0.9-0.1-1.4,0.1-1.4,0.6c0,0.9-3.6,6.4-7,10.6c-1.2,1.5-2.2,3.1-2.2,3.6c-0.1,0.5-1.1,1.8-2.3,2.9
				c-2.9,2.6-3.5,6.5-2.7,16.7c0.2,2.6,0.7,10.4,1,17.3c0.4,6.9,0.8,13.3,1,14.1l0.3,1.5l1.9-1.8C357.6,174.6,359.5,172,360.7,170
				L360.7,170z M345.5,127.5c2.6,0,2.9-0.2,5-3.3c2.6-3.8,2.8-4.6,0.9-3.6c-0.7,0.4-2,0.5-2.9,0.3c-3.1-0.8-4.9,0.1-6.4,3.2
				c-1.6,3.4-1.7,4.3-0.4,3.8C342.3,127.7,344,127.5,345.5,127.5L345.5,127.5z M333,126.2c0.4-2.4-0.7-2.8-10.7-2.9
				c-5.3-0.1-14.2-0.4-19.7-0.7c-13.9-0.7-25.6-0.6-25.9,0.4c-0.4,1.1-1.2,0.9-3-0.8c-1.4-1.3-1.6-1.9-1.3-3.6
				c0.4-1.9,0.3-2-0.5-0.9c-0.5,0.7-2.4,2.7-4.1,4.5c-1.7,1.8-3.2,3.4-3.2,3.6c0,0.1,8.3,0.3,18.4,0.4c10.1,0.1,20.5,0.4,23.1,0.7
				c2.6,0.3,9.7,0.5,15.7,0.5C331.1,127.2,332.9,127,333,126.2L333,126.2z M338.8,125.9c0.9-2,0-2-2.2,0l-1.8,1.6l1.6,0
				C337.5,127.5,338.3,127,338.8,125.9L338.8,125.9z M330.8,118.3c0.1-0.6,0.1-6.1-0.1-12.3c-0.4-12.7-0.1-18.2,0.7-18.2
				c0.3,0,0.6,4.4,0.6,9.9c0,5.4,0.1,9.7,0.3,9.6c0.5-0.5,1.5-21.1,1.2-22.5c-0.2-0.7-0.5-1.2-0.8-1c-0.2,0.1-6.8,0.4-14.6,0.6
				c-7.8,0.2-17.7,0.6-22,0.8c-4.3,0.2-8.7,0.5-9.8,0.5c-4.5,0.1-4.6,0.2-5,2.3c-0.2,1.1-0.5,4.2-0.7,6.8c-0.2,2.6-0.6,7.4-0.9,10.7
				s-0.5,7.4-0.5,9.2c0,3.9-0.1,3.9,9.9,3.3c6-0.3,28.4,0.4,29.9,1c0.3,0.1,3.1,0.3,6.1,0.3C329.7,119.3,330.6,119.1,330.8,118.3
				L330.8,118.3z M284.2,103.7c-0.4-0.7-0.5-2.5-0.3-4.1c0.3-2.2,0.1-3.1-0.6-3.9c-1.4-1.4-1.3-2.2,0.2-2.2c0.7,0,1.3-0.4,1.5-0.8
				c0.2-0.6,0.5-0.6,1.2-0.1c0.7,0.5,2.3,0.5,6.6-0.1c7.7-1.2,8.3-1.1,8.7,0.5c0.2,0.9-0.1,1.7-1,2.5c-1.1,0.9-1.2,1.4-0.7,2.2
				c0.5,0.8,0.4,1.6-0.2,2.9c-1.2,2.3-2.2,2.8-7.4,3.2c-2.4,0.2-5,0.6-5.8,0.8C285.3,104.9,284.7,104.6,284.2,103.7L284.2,103.7z
				 M293.2,98.5c2-0.4,3.6-0.9,3.6-1.2c0-0.3,0.2-0.9,0.4-1.5c0.3-0.8-0.1-1-2.7-0.9c-5.4,0.1-6.8,0.7-7,2.6
				C287.2,99.5,287.7,99.6,293.2,98.5L293.2,98.5z M306.6,102.9c-0.6-0.3-1.1-1.4-1.1-2.3c0-1.8,1.2-6.5,1.9-7.3
				c0.2-0.3,4.6-0.6,9.6-0.8l9.2-0.3l-0.2,4.8c-0.1,2.6-0.6,5.1-0.9,5.5C324.2,103.5,308.1,103.8,306.6,102.9L306.6,102.9z
				 M323.1,96.3c0-1.6,0-1.6-5.6-1.6c-6.4,0-7.6,0.3-7.6,2c0,1.1,0.5,1.2,6.6,1.2h6.6V96.3z M349.9,117.4c1-0.3,2.8-0.7,4-0.9
				c1.9-0.2,2.6-0.8,5.5-4.9c3.8-5.4,6.5-7.8,7.2-6.7c0.4,0.6,0.7,0.5,1.4-0.2c2.1-2.1,1.5-2.6-3.2-2.7c-4.1-0.1-4.6,0-4.9,1.2
				c-0.2,0.7-1,1.7-1.9,2.2c-0.9,0.5-1.6,1.2-1.6,1.5c0,0.9-2.3,2.9-3.4,2.9c-0.5,0-1.4,1-1.9,2.1c-0.6,1.2-1.7,2.8-2.5,3.6
				C346.1,117.9,346.6,118.6,349.9,117.4L349.9,117.4z M349.3,116.2c0.2-0.3,0.7-0.6,1-0.6c0.3,0,0.6,0.3,0.6,0.6s-0.4,0.6-1,0.6
				C349.3,116.8,349,116.5,349.3,116.2L349.3,116.2z M279.1,114.4c0-1.5-1.1-0.3-1.4,1.6c-0.3,1.6-0.3,1.6,0.6,0.5
				C278.7,115.8,279.1,114.9,279.1,114.4L279.1,114.4z M341.2,114.3c0.6-0.7,1.4-1.3,1.7-1.3c0.4,0,2.3-1.7,4.3-3.7
				c3.6-3.6,3.7-3.8,3.2-6.1c-0.6-3.1-0.4-15.2,0.3-20c0.3-2,0.4-4,0.2-4.3c-0.2-0.3-2.4,1.4-4.9,3.9c-3.2,3.2-4.8,4.4-5.6,4.1
				c-2-0.8-2.5,2.4-2.4,15.4c0.1,6.7,0.3,12.5,0.4,12.7C339.2,115.9,340.1,115.6,341.2,114.3L341.2,114.3z M335.5,77.7
				c2.2-2.3,2.6-2.9,2.1-4.1c-0.7-1.7-2.4-1.8-9.5-0.5c-3.4,0.6-6.3,0.7-10.1,0.3c-7.8-0.8-14.8-0.3-17.8,1.3
				c-1.4,0.7-2.8,1.3-3.2,1.3c-0.9,0-1.9,1.2-2.4,3l-0.4,1.4l12.5-0.2c6.9-0.1,14,0,15.9,0.3c1.9,0.3,5,0.4,6.9,0.3
				C332.5,80.4,333.1,80.1,335.5,77.7L335.5,77.7z M335.5,77.7"/>
		</g>
		<path d="M248.9,31.8v6.5h-4V21.3h5.9c2,0,3.5,0.5,4.7,1.4c1.2,0.9,1.7,2.2,1.7,3.7c0,0.9-0.2,1.6-0.7,2.3
			c-0.5,0.6-1.2,1.1-2.1,1.5c1,0.3,1.8,0.8,2.2,1.5c0.5,0.7,0.7,1.6,0.7,2.6v1.1c0,0.4,0.1,1,0.2,1.5c0.1,0.6,0.4,1,0.7,1.2v0.2
			h-4.1c-0.3-0.2-0.5-0.7-0.6-1.3c-0.1-0.6-0.1-1.2-0.1-1.7v-1c0-0.8-0.2-1.4-0.6-1.9c-0.4-0.4-1.1-0.6-1.9-0.6H248.9z M248.9,28.8
			h2c0.8,0,1.4-0.2,1.8-0.5c0.4-0.4,0.6-0.9,0.6-1.6c0-0.7-0.2-1.3-0.7-1.7c-0.4-0.4-1-0.6-1.8-0.6h-2V28.8z M248.9,28.8"/>
		<path d="M265.7,38.6c-1.9,0-3.4-0.6-4.5-1.8c-1.1-1.2-1.6-2.6-1.6-4.4V32c0-1.9,0.5-3.5,1.5-4.7c1-1.2,2.5-1.8,4.5-1.8
			c1.7,0,3,0.5,4,1.5c0.9,1,1.4,2.4,1.4,4.2v2.1h-7.3l0,0.1c0.1,0.7,0.3,1.2,0.7,1.6c0.4,0.4,1.1,0.6,1.8,0.6c0.8,0,1.4-0.1,1.9-0.2
			c0.5-0.1,1.1-0.3,1.7-0.6l0.9,2.4c-0.5,0.4-1.3,0.7-2.2,1C267.6,38.5,266.7,38.6,265.7,38.6L265.7,38.6z M265.5,28.5
			c-0.6,0-1.1,0.2-1.4,0.6c-0.3,0.4-0.5,0.9-0.5,1.6l0,0.1h3.4v-0.3c0-0.7-0.1-1.2-0.3-1.5C266.5,28.6,266.1,28.5,265.5,28.5
			L265.5,28.5z M265.5,28.5"/>
		<path d="M284.3,32.3c0,1.9-0.4,3.4-1.3,4.6c-0.9,1.2-2.1,1.7-3.6,1.7c-0.6,0-1.2-0.1-1.6-0.4c-0.5-0.2-0.9-0.6-1.2-1v6h-4V25.7
			h3.7l0.1,1.4c0.3-0.5,0.8-0.9,1.3-1.2c0.5-0.3,1-0.4,1.7-0.4c1.6,0,2.8,0.6,3.7,1.8c0.9,1.2,1.3,2.8,1.3,4.8V32.3z M280.4,32
			c0-1.1-0.2-1.9-0.5-2.6c-0.3-0.7-0.8-1-1.5-1c-0.4,0-0.8,0.1-1.1,0.2c-0.3,0.2-0.6,0.4-0.7,0.7v5.3c0.2,0.3,0.4,0.5,0.7,0.6
			c0.3,0.1,0.7,0.2,1.1,0.2c0.7,0,1.2-0.3,1.5-0.9c0.3-0.6,0.4-1.4,0.4-2.4V32z M280.4,32"/>
		<path d="M291.7,38.6c-1.9,0-3.4-0.6-4.5-1.8c-1.1-1.2-1.6-2.6-1.6-4.4V32c0-1.9,0.5-3.5,1.5-4.7c1-1.2,2.5-1.8,4.5-1.8
			c1.7,0,3,0.5,4,1.5c0.9,1,1.4,2.4,1.4,4.2v2.1h-7.3l0,0.1c0.1,0.7,0.3,1.2,0.7,1.6c0.4,0.4,1,0.6,1.9,0.6c0.8,0,1.4-0.1,1.9-0.2
			c0.5-0.1,1.1-0.3,1.7-0.6l0.9,2.4c-0.5,0.4-1.3,0.7-2.2,1C293.7,38.5,292.7,38.6,291.7,38.6L291.7,38.6z M291.6,28.5
			c-0.6,0-1.1,0.2-1.4,0.6c-0.3,0.4-0.5,0.9-0.5,1.6l0,0.1h3.4v-0.3c0-0.7-0.1-1.2-0.3-1.5C292.5,28.6,292.1,28.5,291.6,28.5
			L291.6,28.5z M291.6,28.5"/>
		<path d="M303.2,22.5v3.2h2v2.7h-2v5.8c0,0.5,0.1,0.8,0.3,1c0.2,0.2,0.4,0.3,0.8,0.3c0.2,0,0.4,0,0.5,0c0.1,0,0.3,0,0.5-0.1
			l0.3,2.9c-0.4,0.1-0.8,0.2-1.1,0.2c-0.3,0-0.7,0.1-1.1,0.1c-1.3,0-2.3-0.3-3-1c-0.7-0.7-1-1.8-1-3.3v-5.8h-1.8v-2.7h1.8v-3.2
			H303.2z M303.2,22.5"/>
		<path d="M311.3,38.3h-4V25.7h4V38.3z M311.3,22.7h-4v-2.7h4V22.7z M311.3,22.7"/>
		<path d="M318.3,22.5v3.2h2v2.7h-2v5.8c0,0.5,0.1,0.8,0.3,1c0.2,0.2,0.4,0.3,0.8,0.3c0.2,0,0.4,0,0.5,0c0.1,0,0.3,0,0.5-0.1
			l0.3,2.9c-0.4,0.1-0.8,0.2-1.1,0.2c-0.3,0-0.7,0.1-1.1,0.1c-1.3,0-2.3-0.3-3-1c-0.7-0.7-1-1.8-1-3.3v-5.8h-1.8v-2.7h1.8v-3.2
			H318.3z M318.3,22.5"/>
		<path d="M326.3,38.3h-4V25.7h4V38.3z M326.3,22.7h-4v-2.7h4V22.7z M326.3,22.7"/>
		<path d="M333.5,33.1l0.2,1.3l0.1,0l0.3-1.4l1.7-7.5h4.2l-4.1,12.7h-4l-4.1-12.7h4.2L333.5,33.1z M333.5,33.1"/>
		<path d="M346.6,38.6c-1.9,0-3.4-0.6-4.5-1.8c-1.1-1.2-1.6-2.6-1.6-4.4V32c0-1.9,0.5-3.5,1.5-4.7c1-1.2,2.5-1.8,4.5-1.8
			c1.7,0,3,0.5,4,1.5c0.9,1,1.4,2.4,1.4,4.2v2.1h-7.3l0,0.1c0.1,0.7,0.3,1.2,0.7,1.6c0.4,0.4,1,0.6,1.9,0.6c0.8,0,1.4-0.1,1.9-0.2
			s1.1-0.3,1.7-0.6l0.9,2.4c-0.5,0.4-1.3,0.7-2.2,1C348.6,38.5,347.6,38.6,346.6,38.6L346.6,38.6z M346.4,28.5
			c-0.6,0-1.1,0.2-1.4,0.6c-0.3,0.4-0.5,0.9-0.5,1.6l0,0.1h3.4v-0.3c0-0.7-0.1-1.2-0.4-1.5C347.4,28.6,347,28.5,346.4,28.5
			L346.4,28.5z M346.4,28.5"/>
		<rect x="360" y="21.3" width="3.9" height="17.1"/>
		<path d="M378.5,24.3h-4.5v14h-4v-14h-4.4v-3h12.9V24.3z M378.5,24.3"/>
	</g>
</g>
</svg>
