<?xml version="1.0" encoding="UTF-8" standalone="no"?>
<!DOCTYPE svg PUBLIC "-//W3C//DTD SVG 1.1//EN" "http://www.w3.org/Graphics/SVG/1.1/DTD/svg11.dtd">
<svg width="100%" height="100%" viewBox="0 0 246 196" version="1.1" xmlns="http://www.w3.org/2000/svg" xmlns:xlink="http://www.w3.org/1999/xlink" xml:space="preserve" xmlns:serif="http://www.serif.com/" style="fill-rule:evenodd;clip-rule:evenodd;stroke-linejoin:round;stroke-miterlimit:1.41421;">
    <g>
        <path d="M49.11,176.261L49.11,196L45.166,196L45.166,153.14L68.041,153.14L68.041,156.855L49.11,156.855L49.11,172.589L59.943,172.589L59.943,176.261L49.11,176.261Z"/>
        <path d="M80.069,176.261L80.069,196L76.122,196L76.122,153.14L99,153.14L99,156.855L80.069,156.855L80.069,172.589L90.9,172.589L90.9,176.261L80.069,176.261Z"/>
        <rect x="107.08" y="153.14" width="3.994" height="42.86"/>
        <path d="M150.721,196L123.113,159.221L123.113,196L119.166,196L119.166,153.14L123.411,153.14L150.62,189.281L150.62,153.14L154.615,153.14L154.615,196L150.721,196Z"/>
        <rect x="162.721" y="153.14" width="3.992" height="42.86"/>
        <path d="M190.206,156.855L190.206,196L186.213,196L186.213,156.855L174.77,156.855L174.77,153.14L201.587,153.14L201.587,156.855L190.206,156.855Z"/>
        <path d="M227.272,185.518L227.272,196L223.33,196L223.237,196L223.237,185.518L204.748,153.14L209.301,153.14L225.254,180.922L241.208,153.14L245.76,153.14L227.272,185.518Z"/>
        <path d="M37.386,196L20.789,158.594C19.751,160.986 9.646,183.962 8.568,186.396C10.684,186.396 28.798,186.576 29.835,186.582L31.487,190.187C27.875,190.165 11.683,190.112 6.889,190.112C6.451,191.034 4.612,195.12 4.254,196L0,196L18.992,153.14L22.646,153.14L41.637,196L37.386,196Z"/>
        <path d="M108.664,0.724L129.069,0.724L130.785,3.697L136.631,3.697L187.686,92.125L187.683,92.13L176.69,110.869L132.009,110.864L136.539,118.675L134.57,118.675L130.04,110.864L74.616,110.859L74.615,110.859L74.578,110.859L71.74,105.878L68.218,105.878L58.074,88.309L58.085,88.304L58.083,88.303L71.104,65.751L83.145,58.798L103.07,24.287L99.064,17.35L108.664,0.723L108.664,0.724ZM120.679,31.252L85.435,92.145L119.182,92.145L115.279,85.416L152.047,85.448L120.679,31.252Z"/>
    </g>
</svg>
