<svg xmlns="http://www.w3.org/2000/svg" viewBox="0 0 2560 1600" width="2560" height="1600">
	<style>
		tspan { white-space:pre }
		.shp0 { fill: #d1d0c5 } 
		.shp1 { fill: #2c5169 } 
		.shp2 { fill: #3b6c8b } 
	</style>
	<g id="Page 1">
		<path id="Path 2" class="shp0" d="M638.34,706.25l324.06,-166.66c18.76,-9.65 18.54,-36.54 -0.37,-45.88l-324.06,-160.15c-7.31,-3.61 -15.89,-3.54 -23.13,0.18l-324.06,166.66c-18.76,9.64 -18.54,36.53 0.37,45.88l324.06,160.15c7.31,3.61 15.89,3.54 23.13,-0.18z" />
		<path id="Path 3" class="shp1" d="M969.21,595.38l-328.04,167.71c-4.2,2.15 -8.84,2.92 -13.43,2.6l0.41,102.93c4.55,0.38 9.16,-0.29 13.36,-2.33l350.83,-170.2c8.89,-4.31 14.52,-13.34 14.48,-23.22l-0.22,-54.72c-0.07,-19.16 -20.33,-31.49 -37.39,-22.77zM970.1,761.71l-326.15,162.84c-4.87,2.43 -10.31,3.1 -15.57,2.25l0.39,98.19c6.95,3.06 14.9,2.93 21.72,-0.45l232.26,-114.95c16.73,-8.28 36.42,3.47 37.07,22.12l0.16,4.63c0.36,10.27 -5.43,19.76 -14.72,24.14l-263.55,124.29c-4.01,1.89 -8.39,2.56 -12.71,2.26l0.47,118.02c4.87,0.54 9.84,-0.15 14.33,-2.4l350.14,-175.55c8.72,-4.37 14.22,-13.31 14.18,-23.07l-0.87,-219.43c-0.08,-19.05 -20.13,-31.39 -37.17,-22.88z" />
		<path id="Path 4" class="shp2" d="M262.86,853.71l365.99,170.38c0.14,0.06 0.28,0.08 0.42,0.14l0,-98.19c-2.4,-0.4 -4.77,-1.02 -7.02,-2.11l-256.51,-124.42c-8.86,-4.29 -14.48,-13.27 -14.48,-23.12c0,-18.95 19.82,-31.38 36.88,-23.13l232.19,112.29c2.84,1.37 5.87,2.04 8.93,2.31v-102.93c-3.34,-0.24 -6.65,-0.99 -9.71,-2.53l-331.4,-166.84c-16.95,-8.53 -36.98,3.62 -37.24,22.6l-2.9,211.9c-0.14,10.12 5.67,19.37 14.85,23.64zM629.27,1086.28c-3.14,-0.23 -6.26,-0.9 -9.17,-2.28l-336.94,-159.97c-17.05,-8.09 -36.71,4.34 -36.71,23.21v56c0,9.82 5.6,18.78 14.43,23.09l360.04,175.7c2.65,1.3 5.49,1.94 8.35,2.27z" />
		<path id="Path 5" class="shp1" d="M1201.34 842.01C1198.99 839.85 1197.56 837.15 1197.08 833.91C1196.58 830.68 1197.42 827.79 1199.57 825.23L1213.7 808.16C1215.86 805.62 1218.56 804.19 1221.8 803.9C1225.03 803.6 1227.93 804.53 1230.48 806.69C1234.79 810.22 1238.81 813.27 1242.54 815.81C1246.27 818.37 1250.09 820.48 1254.02 822.14C1257.94 823.81 1262.07 825.04 1266.38 825.82C1270.7 826.61 1275.51 827 1280.81 827C1291.4 827 1299.78 824.99 1305.96 820.96C1312.15 816.95 1315.24 811.5 1315.24 804.63C1315.24 798.15 1311.51 793.16 1304.05 789.62C1296.59 786.09 1284.63 782.95 1268.15 780.2C1245.78 776.28 1228.91 768.83 1217.53 757.84C1206.15 746.85 1200.46 733.02 1200.46 716.34C1200.46 706.73 1202.62 698 1206.93 690.15C1211.25 682.3 1217.09 675.54 1224.45 669.84C1231.8 664.15 1240.34 659.74 1250.05 656.6C1259.76 653.46 1269.91 651.89 1280.51 651.89C1294.63 651.89 1307.98 654.35 1320.54 659.25C1333.09 664.15 1345.45 671.61 1357.61 681.61C1360.17 683.78 1361.63 686.42 1362.03 689.56C1362.42 692.7 1361.54 695.65 1359.38 698.39L1345.26 715.46C1343.09 718.01 1340.4 719.43 1337.16 719.72C1333.93 720.02 1331.03 719.09 1328.48 716.93C1321.02 710.85 1313.37 706.04 1305.53 702.51C1297.67 698.98 1289.24 697.21 1280.21 697.21C1270.99 697.21 1263.83 698.93 1258.73 702.36C1253.63 705.8 1251.08 710.36 1251.08 716.05C1251.08 720.56 1253.73 724.44 1259.03 727.67C1264.32 730.91 1272.86 733.51 1284.63 735.47C1310.92 740.18 1330.98 747.98 1344.82 758.87C1358.65 769.76 1365.56 784.62 1365.56 803.45C1365.56 813.66 1363.45 822.98 1359.24 831.41C1355.01 839.85 1349.13 847.11 1341.58 853.19C1334.02 859.28 1325.04 863.98 1314.65 867.32C1304.25 870.65 1292.77 872.32 1280.21 872.32C1262.75 872.32 1247.74 869.72 1235.19 864.52C1222.63 859.33 1211.35 851.82 1201.34 842.01ZM1455.91 856.72C1455.91 860.06 1454.73 862.9 1452.38 865.26C1450.02 867.61 1447.18 868.79 1443.84 868.79L1417.94 868.79C1414.6 868.79 1411.81 867.61 1409.56 865.26C1407.29 862.9 1406.17 860.06 1406.17 856.72L1406.17 667.49C1406.17 664.15 1407.29 661.31 1409.56 658.95C1411.81 656.6 1414.6 655.42 1417.94 655.42L1443.84 655.42C1447.18 655.42 1450.02 656.6 1452.38 658.95C1454.73 661.31 1455.91 664.15 1455.91 667.49L1455.91 856.72ZM1688.99 842.89C1676.63 853.49 1663.58 861.04 1649.85 865.55C1636.11 870.06 1622.18 872.32 1608.06 872.32C1591.58 872.32 1576.52 869.52 1562.88 863.93C1549.25 858.34 1537.52 850.64 1527.71 840.83C1517.9 831.02 1510.25 819.4 1504.76 805.96C1499.26 792.52 1496.52 777.95 1496.52 762.26C1496.52 745.97 1499.11 731.06 1504.31 717.52C1509.51 703.98 1516.87 692.35 1526.39 682.64C1535.9 672.93 1547.33 665.38 1560.68 659.98C1574.01 654.59 1588.92 651.89 1605.41 651.89C1622.08 651.89 1636.8 654.64 1649.55 660.13C1662.31 665.62 1673.69 673.86 1683.69 684.85C1686.04 687.21 1687.37 690 1687.67 693.24C1687.96 696.48 1687.03 699.27 1684.87 701.63L1671.33 716.63C1668.98 719.19 1666.18 720.51 1662.94 720.61C1659.71 720.71 1656.91 719.68 1654.56 717.52C1647.29 711.24 1639.55 706.29 1631.3 702.66C1623.07 699.03 1614.43 697.21 1605.41 697.21C1597.36 697.21 1589.76 698.73 1582.6 701.77C1575.44 704.82 1569.21 709.18 1563.91 714.87C1558.61 720.56 1554.39 727.38 1551.26 735.32C1548.11 743.27 1546.55 752.15 1546.55 761.96C1546.55 771.38 1548.11 780.11 1551.26 788.15C1554.39 796.2 1558.71 803.06 1564.21 808.75C1569.7 814.45 1576.17 818.91 1583.63 822.14C1591.09 825.38 1599.13 827 1607.76 827C1614.04 827 1620.47 826.02 1627.04 824.06C1633.61 822.09 1639.64 819.35 1645.14 815.81L1645.14 794.33L1601.59 794.33C1598.24 794.33 1595.4 793.16 1593.05 790.8C1590.7 788.44 1589.51 785.6 1589.51 782.26L1589.51 761.07C1589.51 757.74 1590.7 754.89 1593.05 752.54C1595.4 750.19 1598.24 749.01 1601.59 749.01L1682.51 749.01C1685.85 749.01 1688.7 750.19 1691.05 752.54C1693.4 754.89 1694.59 757.74 1694.59 761.07L1694.59 828.76C1694.59 832.1 1694.19 834.85 1693.4 837C1692.61 839.17 1691.15 841.12 1688.99 842.89ZM1922.37 856.72C1922.37 860.06 1921.2 862.9 1918.84 865.26C1916.48 867.61 1913.64 868.79 1910.3 868.79L1884.7 868.79C1881.36 868.79 1878.52 867.61 1876.16 865.26C1873.81 862.9 1872.63 860.06 1872.63 856.72L1872.63 781.97L1786.41 781.97L1786.41 856.72C1786.41 860.06 1785.23 862.9 1782.87 865.26C1780.52 867.61 1777.67 868.79 1774.34 868.79L1748.44 868.79C1745.1 868.79 1742.3 867.61 1740.05 865.26C1737.79 862.9 1736.67 860.06 1736.67 856.72L1736.67 667.49C1736.67 664.15 1737.79 661.31 1740.05 658.95C1742.3 656.6 1745.1 655.42 1748.44 655.42L1774.34 655.42C1777.67 655.42 1780.52 656.6 1782.87 658.95C1785.23 661.31 1786.41 664.15 1786.41 667.49L1786.41 736.65L1872.63 736.65L1872.63 667.49C1872.63 664.15 1873.81 661.31 1876.16 658.95C1878.52 656.6 1881.36 655.42 1884.7 655.42L1910.3 655.42C1913.64 655.42 1916.48 656.6 1918.84 658.95C1921.2 661.31 1922.37 664.15 1922.37 667.49L1922.37 856.72ZM1975.19 658.95C1977.45 656.6 1980.24 655.42 1983.58 655.42L2009.48 655.42C2012.82 655.42 2015.66 656.6 2018.01 658.95C2020.37 661.31 2021.55 664.15 2021.55 667.49L2021.55 772.55C2021.55 780.6 2022.57 787.96 2024.63 794.63C2026.7 801.3 2029.69 807.04 2033.61 811.84C2037.53 816.65 2042.34 820.38 2048.03 823.03C2053.72 825.67 2060.2 827 2067.46 827C2081.97 827 2093.21 821.95 2101.15 811.84C2109.1 801.74 2113.07 788.64 2113.07 772.55L2113.07 667.49C2113.07 664.15 2114.25 661.31 2116.61 658.95C2118.96 656.6 2121.8 655.42 2125.14 655.42L2151.04 655.42C2154.37 655.42 2157.17 656.55 2159.43 658.81C2161.68 661.06 2162.81 663.86 2162.81 667.19L2162.81 775.5C2162.81 790.01 2160.46 803.26 2155.75 815.23C2151.04 827.2 2144.51 837.4 2136.18 845.83C2127.84 854.27 2117.83 860.8 2106.16 865.41C2094.49 870.01 2081.59 872.32 2067.46 872.32C2053.14 872.32 2040.09 870.01 2028.32 865.41C2016.54 860.8 2006.49 854.22 1998.15 845.68C1989.81 837.15 1983.34 826.95 1978.72 815.08C1974.11 803.21 1971.81 790.01 1971.81 775.5L1971.81 667.49C1971.81 664.15 1972.94 661.31 1975.19 658.95ZM2303.49 754.3C2312.51 754.3 2319.62 751.95 2324.82 747.24C2330.02 742.53 2332.62 736.06 2332.62 727.82C2332.62 719.58 2330.02 713.01 2324.82 708.1C2319.62 703.2 2312.51 700.74 2303.49 700.74L2262.28 700.74L2262.28 754.3L2303.49 754.3ZM2298.77 655.42C2311.53 655.42 2323.06 657.14 2333.36 660.57C2343.65 664 2352.49 668.86 2359.84 675.14C2367.2 681.42 2372.89 689.02 2376.91 697.95C2380.93 706.88 2382.94 716.83 2382.94 727.82C2382.94 738.81 2380.93 748.71 2376.91 757.54C2372.89 766.37 2367.2 773.88 2359.84 780.05C2352.49 786.23 2343.6 791.05 2333.21 794.48C2322.8 797.91 2311.33 799.63 2298.77 799.63L2261.99 799.63L2261.99 856.72C2261.99 860.06 2260.81 862.9 2258.45 865.26C2256.1 867.61 2253.26 868.79 2249.92 868.79L2224.02 868.79C2220.69 868.79 2217.89 867.61 2215.63 865.26C2213.38 862.9 2212.25 860.06 2212.25 856.72L2212.25 667.49C2212.25 664.15 2213.38 661.31 2215.63 658.95C2217.89 656.6 2220.69 655.42 2224.02 655.42L2298.77 655.42Z" />
	</g>
</svg>