<svg xmlns="http://www.w3.org/2000/svg" viewBox="0 0 623.62 255.12"><defs><style>.cls-1{fill:#fff;}.cls-2,.cls-4{fill:#d22027;}.cls-3{fill:#121212;}.cls-4{fill-rule:evenodd;}</style></defs><title>sparkfabrik</title><g id="BG"><rect class="cls-1" width="623.62" height="255.12"/></g><g id="Logo"><g id="_Group_" data-name="&lt;Group&gt;"><g id="_Group_2" data-name="&lt;Group&gt;"><path id="_Path_" data-name="&lt;Path&gt;" class="cls-2" d="M64.14,221.27a13.47,13.47,0,0,0-3.09-2.69,19.05,19.05,0,0,0-3.71-1.82,77.75,77.75,0,0,0-10.75-2.93c-2.29-.51-4.18-1-5.69-1.47a13.8,13.8,0,0,1-3.59-1.61,5,5,0,0,1-1.89-2,6.22,6.22,0,0,1-.55-2.75,6.5,6.5,0,0,1,3.06-5.61c2-1.41,5-2.12,8.7-2.12q11.59,0,12.61,9.2h6.54a15.05,15.05,0,0,0-1.6-6.49,14,14,0,0,0-4-4.77,18,18,0,0,0-6-2.95,27.8,27.8,0,0,0-7.78-1A24.33,24.33,0,0,0,39,193.24a17.53,17.53,0,0,0-5.69,2.9,13.75,13.75,0,0,0-3.68,4.45,12.66,12.66,0,0,0-1.3,5.69A10.9,10.9,0,0,0,32.11,215a17.92,17.92,0,0,0,5,3,40,40,0,0,0,7.49,2.2c2.94.62,5.41,1.23,7.42,1.8a22.54,22.54,0,0,1,4.91,2,6.3,6.3,0,0,1,3.53,6.1,7,7,0,0,1-.91,3.58A8.57,8.57,0,0,1,57,236.33,12.44,12.44,0,0,1,53,238.06a20.74,20.74,0,0,1-5.1.6,22.42,22.42,0,0,1-5.54-.67,14.81,14.81,0,0,1-4.59-2,10.52,10.52,0,0,1-3.25-3.45,11.71,11.71,0,0,1-1.51-5H26.56a18.7,18.7,0,0,0,1.5,6.89,15.31,15.31,0,0,0,4.05,5.44,19,19,0,0,0,6.66,3.57,30.8,30.8,0,0,0,9.42,1.3,24.06,24.06,0,0,0,7.64-1.16,18.52,18.52,0,0,0,6-3.2,14.36,14.36,0,0,0,3.86-4.83A13.35,13.35,0,0,0,67,229.51a13.09,13.09,0,0,0-.77-4.62A12.35,12.35,0,0,0,64.14,221.27Z"/><path id="_Compound_Path_" data-name="&lt;Compound Path&gt;" class="cls-2" d="M121.49,199.26a13.12,13.12,0,0,0-2.9-3.13,10.61,10.61,0,0,0-3.78-1.9,27,27,0,0,0-4.71-.88,54.6,54.6,0,0,0-5.67-.27h-19v50.77h6.7V223.56H105q9.33,0,14.17-4T124,207.88a16,16,0,0,0-.65-4.58A14.7,14.7,0,0,0,121.49,199.26Zm-5.14,12.85a6.94,6.94,0,0,1-2.06,3,9.41,9.41,0,0,1-3.71,1.82,21.53,21.53,0,0,1-5.53.63H92.16V199.08h12.7a28.78,28.78,0,0,1,6.76.61,6.13,6.13,0,0,1,2.15,1.11,7,7,0,0,1,1.71,1.9,9.76,9.76,0,0,1,1.11,2.5,10.29,10.29,0,0,1,.4,2.89A11.54,11.54,0,0,1,116.35,212.11Z"/><polygon id="_Path_2" data-name="&lt;Path&gt;" class="cls-2" points="150.56 193.08 130.79 243.85 137.99 243.85 154.02 200.31 170.06 243.85 177.26 243.85 157.49 193.08 150.56 193.08"/><path id="_Compound_Path_2" data-name="&lt;Compound Path&gt;" class="cls-2" d="M221.68,220.84a19,19,0,0,0,4.73-1.85,12.39,12.39,0,0,0,3.57-2.9,12.89,12.89,0,0,0,2.27-4,14.3,14.3,0,0,0,.8-4.85,15.19,15.19,0,0,0-.63-4.37,15.59,15.59,0,0,0-1.73-3.87,12.25,12.25,0,0,0-2.67-3,10,10,0,0,0-3.41-1.85,24,24,0,0,0-4.29-.84,48.7,48.7,0,0,0-5.36-.27H192.48v50.77h6.71V222.14h12.44a11,11,0,0,1,3.67.6,11.38,11.38,0,0,1,3.2,1.68A12.49,12.49,0,0,1,221,227a14,14,0,0,1,1.75,3.29l4.76,13.54h7.28L229.71,230C227.91,225.1,225.22,222,221.68,220.84Zm-2.05-5.22a25.87,25.87,0,0,1-5.43.47h-15V198.64h16q10.89,0,10.9,8.65a10.94,10.94,0,0,1-.67,4.09,6,6,0,0,1-2.11,2.73A9.38,9.38,0,0,1,219.63,215.62Z"/><polygon id="_Path_3" data-name="&lt;Path&gt;" class="cls-2" points="293.41 193.08 284.34 193.08 259.55 218.27 259.55 193.08 252.84 193.08 252.84 243.85 259.55 243.85 259.55 226.26 267.46 218.53 285.5 243.85 294.33 243.85 272.13 213.92 293.41 193.08"/><polygon id="_Path_4" data-name="&lt;Path&gt;" class="cls-3" points="596.14 193.08 587.07 193.08 562.28 218.27 562.28 193.08 555.57 193.08 555.57 243.85 562.28 243.85 562.28 226.26 570.19 218.53 588.23 243.85 597.06 243.85 574.86 213.92 596.14 193.08"/><polygon id="_Path_5" data-name="&lt;Path&gt;" class="cls-3" points="309.25 243.85 315.97 243.85 315.97 220.84 339.86 220.84 339.86 214.81 315.97 214.81 315.97 199.08 343.5 199.08 343.5 193.08 309.25 193.08 309.25 243.85"/><polygon id="_Path_6" data-name="&lt;Path&gt;" class="cls-3" points="370.41 193.08 350.65 243.85 357.85 243.85 373.88 200.31 389.92 243.85 397.11 243.85 377.34 193.08 370.41 193.08"/><path id="_Compound_Path_3" data-name="&lt;Compound Path&gt;" class="cls-3" d="M447.85,221.52a12,12,0,0,0-3.06-2.81,14.32,14.32,0,0,0-4.28-1.82q7.33-3.51,7.33-10.88a11.84,11.84,0,0,0-1.21-5.42,10.94,10.94,0,0,0-3.46-4.06,16.23,16.23,0,0,0-5.48-2.55,26.65,26.65,0,0,0-7.27-.9H412.33v50.77h19q9.33,0,14.15-3.78c3.22-2.54,4.82-6.2,4.82-10.95a13.28,13.28,0,0,0-.62-4.07A11.35,11.35,0,0,0,447.85,221.52Zm-28.8-22.44h10.66a25.85,25.85,0,0,1,5.4.48,10.32,10.32,0,0,1,3.55,1.43,5.28,5.28,0,0,1,1.95,2.36,8.14,8.14,0,0,1,.6,3.28c0,2.75-.88,4.73-2.64,5.91s-4.49,1.77-8.19,1.77H419.05Zm12.25,38.73H419.05V220.35h11.37a29.72,29.72,0,0,1,6.2.54,10.44,10.44,0,0,1,4,1.62,5.72,5.72,0,0,1,2.13,2.73,10.6,10.6,0,0,1,.62,3.88Q443.34,237.81,431.3,237.81Z"/><path id="_Compound_Path_4" data-name="&lt;Compound Path&gt;" class="cls-3" d="M497.93,220.84a18.8,18.8,0,0,0,4.73-1.85,12.44,12.44,0,0,0,3.58-2.9,12.89,12.89,0,0,0,2.27-4,14.3,14.3,0,0,0,.81-4.85,15.92,15.92,0,0,0-.63-4.37,15.25,15.25,0,0,0-1.74-3.87,12.21,12.21,0,0,0-2.66-3,10.13,10.13,0,0,0-3.43-1.85,23.63,23.63,0,0,0-4.29-.84,48.32,48.32,0,0,0-5.34-.27H468.75v50.77h6.7V222.14h12.44a11.4,11.4,0,0,1,6.86,2.28,12.29,12.29,0,0,1,2.54,2.6,14.43,14.43,0,0,1,1.76,3.29l4.74,13.54h7.29L506,230Q503.26,222.64,497.93,220.84Zm-2-5.22a25.9,25.9,0,0,1-5.42.47h-15V198.64h16q10.89,0,10.89,8.65a11.15,11.15,0,0,1-.67,4.09,6,6,0,0,1-2.11,2.73A9.38,9.38,0,0,1,495.89,215.62Z"/><rect id="_Path_7" data-name="&lt;Path&gt;" class="cls-3" x="529.96" y="193.08" width="6.74" height="50.77"/></g><g id="_Group_3" data-name="&lt;Group&gt;"><path id="_Path_8" data-name="&lt;Path&gt;" class="cls-4" d="M226.25,124.2a65.51,65.51,0,0,0,44.5,18.47c-1.62-16.76-3.24-33.61-4.93-51.21C254.29,100.63,238,114.71,226.25,124.2Z"/><path id="_Path_9" data-name="&lt;Path&gt;" class="cls-4" d="M273.31,142.67a65.5,65.5,0,0,0,44.74-18.86c-11.61-9.29-28.22-23.57-40-32.81Z"/><path id="_Path_10" data-name="&lt;Path&gt;" class="cls-4" d="M224.47,31.52a65.48,65.48,0,0,0-18.24,44.61l50.94-4.61C247.9,59.69,233.72,43.14,224.47,31.52Z"/><path id="_Path_11" data-name="&lt;Path&gt;" class="cls-4" d="M206.25,78.83a65.57,65.57,0,0,0,18.4,43.77C234,111,247.88,95,256.75,83.78Z"/><path id="_Path_12" data-name="&lt;Path&gt;" class="cls-4" d="M319.44,122.39a65.47,65.47,0,0,0,18.23-44.6l-50.93,4.6C296,94.22,310.18,110.77,319.44,122.39Z"/><path id="_Path_13" data-name="&lt;Path&gt;" class="cls-4" d="M270.59,11.25A65.49,65.49,0,0,0,225.85,30.1c11.62,9.3,28.23,23.57,40,32.82C267.46,45.14,269,28.15,270.59,11.25Z"/><path id="_Path_14" data-name="&lt;Path&gt;" class="cls-4" d="M353,141.8a65.55,65.55,0,0,0,44.74-18.86c-11.62-9.29-28.22-23.56-40-32.81Z"/><path id="_Path_15" data-name="&lt;Path&gt;" class="cls-4" d="M304.18,30.65A65.51,65.51,0,0,0,286,75.26l50.93-4.61C327.61,58.83,313.44,42.28,304.18,30.65Z"/><path id="_Path_16" data-name="&lt;Path&gt;" class="cls-4" d="M366.45,81.52c9.28,11.83,23.45,28.38,32.71,40a65.51,65.51,0,0,0,18.23-44.61Z"/><path id="_Path_17" data-name="&lt;Path&gt;" class="cls-4" d="M345.54,62.05l4.77-51.67a65.49,65.49,0,0,0-44.74,18.85C317.19,38.53,333.79,52.8,345.54,62.05Z"/><path id="_Path_18" data-name="&lt;Path&gt;" class="cls-4" d="M397.37,28.85a65.52,65.52,0,0,0-44.5-18.48c1.62,16.77,3.24,33.62,4.93,51.21C369.34,52.41,385.63,38.34,397.37,28.85Z"/><path id="_Path_19" data-name="&lt;Path&gt;" class="cls-4" d="M417.37,74.21A65.48,65.48,0,0,0,399,30.45c-9.34,11.56-23.23,27.64-32.1,38.82Z"/></g></g></g></svg>