<svg xmlns="http://www.w3.org/2000/svg" viewBox="0 0 623.62 255.12"><defs><style>.cls-1{fill:#fff;}.cls-2{fill:#47b27a;}</style></defs><g id="BG"><rect class="cls-1" width="623.62" height="255.12"/></g><g id="Logo"><path d="M436,231H407.16a4,4,0,0,1-4-4V212.43h27.81a4.33,4.33,0,0,0,0-8.66H403.13V189.44a4,4,0,0,1,4-4H436a4.54,4.54,0,0,0,0-9.08H407.16a13.12,13.12,0,0,0-13.11,13.11V227a13.13,13.13,0,0,0,13.11,13.12H436a4.54,4.54,0,0,0,0-9.08Zm-84.74-27.13c-6.09-1.1-10.33-2.39-12.7-3.9a6.93,6.93,0,0,1-3.56-6.11,8,8,0,0,1,3.66-6.78c2.44-1.76,5.86-2.64,10.29-2.64s8.08.86,10.78,2.59a16,16,0,0,1,4,3.73,4.93,4.93,0,1,0,7.58-6.3,25.62,25.62,0,0,0-7.46-5.8,32.55,32.55,0,0,0-15-3.17,30.86,30.86,0,0,0-13.13,2.6,20.24,20.24,0,0,0-8.62,7,17.16,17.16,0,0,0-3,9.81,15.26,15.26,0,0,0,2.36,8.66,17.53,17.53,0,0,0,7.55,6,59.53,59.53,0,0,0,14,4c5.84,1.1,9.92,2.34,12.26,3.76s3.52,3.27,3.52,5.57a7.41,7.41,0,0,1-3.9,6.69Q356,232,349.13,232a24.7,24.7,0,0,1-12.08-2.69,18.19,18.19,0,0,1-5-4.09,4.9,4.9,0,0,0-7.16-.19l0,0a4.91,4.91,0,0,0-.24,6.71q8.23,9.18,24.56,9.19a36,36,0,0,0,13.23-2.26,20.06,20.06,0,0,0,8.9-6.5,15.93,15.93,0,0,0,3.17-9.81,15.55,15.55,0,0,0-2.31-8.71,17.26,17.26,0,0,0-7.36-5.87,56.83,56.83,0,0,0-13.61-3.89Zm-142.07,0c-6.1-1.1-10.33-2.39-12.7-3.9a6.92,6.92,0,0,1-3.56-6.11,8,8,0,0,1,3.65-6.78q3.66-2.64,10.3-2.65t10.77,2.6a15.63,15.63,0,0,1,4,3.73,4.93,4.93,0,1,0,7.58-6.3,25.58,25.58,0,0,0-7.46-5.8,32.47,32.47,0,0,0-15-3.17,31.08,31.08,0,0,0-13.13,2.59,20.37,20.37,0,0,0-8.61,7,17.16,17.16,0,0,0-3,9.81,15.34,15.34,0,0,0,2.35,8.66,17.64,17.64,0,0,0,7.56,6,60.06,60.06,0,0,0,13.94,4q8.76,1.63,12.27,3.76c2.34,1.41,3.51,3.26,3.51,5.58a7.42,7.42,0,0,1-3.89,6.68q-3.9,2.36-10.73,2.36A24.54,24.54,0,0,1,195,229.3a18.34,18.34,0,0,1-5-4.08,4.89,4.89,0,0,0-7.15-.19l0,0a4.89,4.89,0,0,0-.24,6.71q8.24,9.18,24.56,9.18a35.73,35.73,0,0,0,13.22-2.26,19.91,19.91,0,0,0,8.9-6.49,15.88,15.88,0,0,0,3.18-9.81,15.51,15.51,0,0,0-2.31-8.71,17.18,17.18,0,0,0-7.36-5.87,56.51,56.51,0,0,0-13.61-3.89Zm94.75-23.21v34.93q0,12.5-6.63,18.9T278,240.93q-12.7,0-19.34-6.4T252,215.63V180.7a5.2,5.2,0,0,1,10.39,0v33.67c0,6,1.27,10.47,3.8,13.33S272.62,232,278,232s9.25-1.43,11.78-4.28,3.8-7.29,3.8-13.33V180.7a5.2,5.2,0,0,1,10.39,0Z"/><path class="cls-2" d="M428.24,54.07a4.16,4.16,0,0,0-6,0,4.24,4.24,0,1,0,6,0Zm-5.48-14.42a15.69,15.69,0,1,0,11.7,11.69,15.69,15.69,0,0,0-11.7-11.69ZM348,103.43c-7.38-2.73-10.23-2.19-19.67-2.06-6.54.09-6.78-.13-14.25-.13-2.3,0-3.15,11.05,5.19,13.35,3.66,1,7.6,1.63,10.35,4.45,1.22,1.24,1.9,3.11-.91,3.11H308c-3.63,0-7,.09-9.82-2.26-4.18-3.54-6.14-8.4-8.23-13.23A138.14,138.14,0,0,0,282.65,92c-5.48-9.4-12.71-17.91-22.41-23.11-12.12-6.49-32.68-9.72-49,2.79-17.15,13.17-13.48,37.85,1.53,49.92a30.94,30.94,0,0,0,21.25,6.32c14.84-.86,25.79-11.8,23.07-25.26a16.65,16.65,0,0,0-7.49-11.1,18.83,18.83,0,0,0-9.42-2.24c-3.5,0-7.23.72-9.75,3.16a9.08,9.08,0,0,0-1.08,11.38c1.31,1.88,3.46,3.47,3.1,5.93a4.09,4.09,0,0,1-3.26,3.26c-2.78.62-5.33-1-7.21-2.91a18.29,18.29,0,0,1-3.68-19.27c3.47-8.38,13.13-13,22.19-12.69,11.68.39,22.7,8.1,27.49,18.77s3.35,23.75-3.25,33.41c-14.67,21.44-50.9,18.91-67.74.83-10.55-11.35-16.3-22.36-15.49-42.86.56-14.48,8.93-28.75,19.58-38.79C218.47,33.15,241.34,22,264.6,17.13A143.47,143.47,0,0,1,307.67,15a190.49,190.49,0,0,1,37.38,7.34,147.35,147.35,0,0,1,17.71,6.75c5.06,2.33,11.7,4.86,15.64,8.87,0-7.27-.28-15.26-.28-20.82a2.92,2.92,0,0,1,4.14-2.65c8.23,3.82,27.72,13,40.72,19,17.42,8,18.65,26.74,19.26,43.38a2.23,2.23,0,0,1-.14,1.09c-.55,1.14-3.48.83-4.56.85-2.08,0-5.23,0-7.3.1-4.17.18-8.22.1-12.37-.1a35.29,35.29,0,0,1-20.11-8c-.5-.42-2.1-.88-2.86-.09a2,2,0,0,0-.09,2.52,35.73,35.73,0,0,0,9.55,6.6c4.58,2.35,9.56,2.94,14.62,3.24a100.45,100.45,0,0,0,16.27-.32c4.52-.46,5.68-.77,1.23,2.54a46.86,46.86,0,0,1-13.05,6.54,69.58,69.58,0,0,1-20.53,3.55,79.43,79.43,0,0,1-12.62-.65c-2.16-.27-4.31-.66-6.49-.88a17.47,17.47,0,0,0-5.35-.13,7,7,0,0,0-4.07,2.51c-1.38,1.8-1.85,6.73-1.05,8.87,1.53,4.15,4.91,6.56,8.48,8.68,3.86,2.3,8.94,3.08,9.93,7.47.2.92-8,1-8.94.93H371.86s-5.95.14-8.26-.7a1.33,1.33,0,0,1-.21-.09c-1.26-.68-1.8-2.36-2.23-3.64a22.21,22.21,0,0,0-3-5.45c-2.47-3.52-6.26-7.38-10.21-8.84Zm82.78-48.51a11.59,11.59,0,1,1-11.59-11.59,11.58,11.58,0,0,1,11.59,11.59Z"/></g></svg>