<?xml version="1.0" encoding="utf-8"?>
<!-- Generator: Adobe Illustrator 16.0.0, SVG Export Plug-In . SVG Version: 6.00 Build 0)  -->
<!DOCTYPE svg PUBLIC "-//W3C//DTD SVG 1.0//EN" "http://www.w3.org/TR/2001/REC-SVG-20010904/DTD/svg10.dtd" [
	<!ENTITY ns_flows "http://ns.adobe.com/Flows/1.0/">
	<!ENTITY ns_extend "http://ns.adobe.com/Extensibility/1.0/">
	<!ENTITY ns_ai "http://ns.adobe.com/AdobeIllustrator/10.0/">
	<!ENTITY ns_graphs "http://ns.adobe.com/Graphs/1.0/">
]>
<svg version="1.0" id="Layer_1" xmlns:x="&ns_extend;" xmlns:i="&ns_ai;" xmlns:graph="&ns_graphs;"
	 xmlns="http://www.w3.org/2000/svg" xmlns:xlink="http://www.w3.org/1999/xlink" xmlns:a="http://ns.adobe.com/AdobeSVGViewerExtensions/3.0/"
	 x="0px" y="0px" width="147.059px" height="119.853px" viewBox="0 0 147.059 119.853" enable-background="new 0 0 147.059 119.853"
	 xml:space="preserve">
<g>
	<path fill-rule="evenodd" clip-rule="evenodd" fill="#010101" d="M93.294,61.534c-2.473,2.233-5.29,3.983-8.46,5.25
		c-3.172,1.271-6.551,1.903-10.149,1.903c-3.596,0-6.963-0.625-10.104-1.877c-3.141-1.255-5.941-3.013-8.411-5.276H93.294z
		 M53.853,59.445c-2.194-2.474-3.924-5.29-5.188-8.454c-1.263-3.163-1.896-6.543-1.896-10.151c0-3.421,0.564-6.635,1.693-9.644
		c1.125-3.009,2.695-5.738,4.706-8.183h36.971L53.853,59.445z M55.988,19.967c2.467-2.215,5.301-3.964,8.505-5.241
		c3.198-1.273,6.596-1.915,10.195-1.915c3.596,0,6.961,0.63,10.102,1.892c3.139,1.259,5.928,3.017,8.366,5.264H55.988z
		 M100.683,30.571c1.249,3.164,1.877,6.546,1.877,10.151c0,3.423-0.572,6.654-1.716,9.694c-1.142,3.038-2.735,5.78-4.774,8.223
		H59.097l36.379-36.523C97.698,24.59,99.435,27.41,100.683,30.571 M83.603,73.262c2.865-0.809,5.544-1.947,8.043-3.412
		c2.499-1.464,4.77-3.22,6.812-5.265c2.042-2.044,3.794-4.321,5.261-6.825c1.462-2.5,2.595-5.18,3.404-8.035
		c0.808-2.854,1.212-5.838,1.212-8.952c0-3.112-0.404-6.107-1.212-8.976c-0.81-2.869-1.942-5.555-3.404-8.057
		c-1.467-2.504-3.219-4.777-5.261-6.824c-2.043-2.044-4.313-3.801-6.812-5.265c-2.499-1.466-5.178-2.604-8.043-3.412
		c-2.868-0.81-5.838-1.213-8.914-1.213c-3.111,0-6.098,0.403-8.963,1.213c-2.865,0.808-5.538,1.946-8.023,3.412
		c-2.484,1.464-4.754,3.221-6.812,5.265c-2.056,2.047-3.817,4.32-5.281,6.824c-1.463,2.501-2.595,5.188-3.405,8.057
		c-0.806,2.868-1.211,5.863-1.211,8.976c0,3.083,0.405,6.06,1.211,8.93c0.811,2.867,1.942,5.558,3.405,8.058
		c1.464,2.504,3.226,4.781,5.281,6.825c2.058,2.045,4.327,3.8,6.812,5.265c2.485,1.465,5.158,2.604,8.023,3.412
		c2.865,0.807,5.852,1.213,8.963,1.213C77.765,74.475,80.734,74.069,83.603,73.262 M82.885,10.869
		c2.624,0.731,5.083,1.772,7.372,3.118c2.289,1.346,4.381,2.965,6.271,4.862c1.894,1.896,3.512,3.991,4.855,6.284
		c1.344,2.294,2.383,4.763,3.116,7.408c0.728,2.645,1.099,5.392,1.099,8.232c0,2.845-0.371,5.581-1.099,8.211
		c-0.733,2.63-1.772,5.09-3.116,7.384c-1.344,2.292-2.962,4.388-4.855,6.284c-1.891,1.897-3.982,3.518-6.271,4.864
		c-2.289,1.345-4.748,2.387-7.372,3.119c-2.627,0.732-5.358,1.1-8.196,1.1c-4.275,0-8.291-0.811-12.047-2.432
		s-7.039-3.837-9.846-6.651c-2.809-2.812-5.021-6.09-6.639-9.839c-1.618-3.743-2.43-7.758-2.43-12.04
		c0-4.28,0.812-8.302,2.43-12.063c1.618-3.761,3.83-7.049,6.639-9.861c2.807-2.812,6.09-5.029,9.846-6.651
		c3.756-1.62,7.771-2.431,12.047-2.431C77.526,9.767,80.258,10.137,82.885,10.869"/>
</g>
<g>
	<path fill="#010101" d="M19.411,99.625v2.428H6.251v-1.006c0-0.623,0.188-1.15,0.564-1.584L16.1,86.894H6.717v-2.429H19.57v1.006
		c0,0.565-0.151,1.048-0.453,1.449L9.575,99.833c0.04-0.033,0.086-0.065,0.135-0.098c0.041-0.024,0.09-0.049,0.147-0.074
		c0.057-0.023,0.122-0.035,0.195-0.035H19.411z"/>
	<path fill="#010101" d="M33.504,102.053H22.637V84.477h10.867v2.43h-8.438v5.064h6.832V94.4h-6.832v5.226h8.438V102.053z"/>
	<path fill="#010101" d="M35.135,86.894v-2.429h13.356v2.429h-5.458v15.159h-2.429V86.894H35.135z"/>
	<path fill="#010101" d="M54.182,84.477h2.367l7.666,17.576h-1.398c-0.385,0-0.731-0.1-1.043-0.301
		c-0.311-0.2-0.543-0.477-0.698-0.828l-1.227-2.796H50.87l-1.214,2.796c-0.147,0.344-0.378,0.618-0.693,0.822
		c-0.314,0.205-0.664,0.307-1.048,0.307h-1.398L54.182,84.477z M55.139,88.354L51.938,95.7h6.856l-3.201-7.346
		c-0.131-0.287-0.209-0.635-0.233-1.043c-0.017,0.204-0.043,0.393-0.08,0.564C55.243,88.047,55.195,88.206,55.139,88.354z"/>
	<path fill="#010101" d="M75.498,92.315v2.428h-7.113v7.311h-2.429V84.477h10.867v2.43h-8.438v5.408H75.498z"/>
	<path fill="#010101" d="M78.87,93.259c0-0.825,0.106-1.621,0.319-2.386c0.213-0.764,0.515-1.479,0.907-2.146
		c0.393-0.666,0.86-1.271,1.404-1.814c0.543-0.544,1.148-1.012,1.814-1.404c0.668-0.393,1.383-0.695,2.146-0.908
		c0.766-0.213,1.561-0.318,2.387-0.318c0.824,0,1.621,0.105,2.385,0.318s1.48,0.516,2.146,0.908s1.271,0.86,1.814,1.404
		c0.545,0.543,1.012,1.148,1.404,1.814c0.393,0.667,0.695,1.383,0.908,2.146c0.213,0.765,0.318,1.561,0.318,2.386
		c0,0.826-0.105,1.621-0.318,2.386s-0.516,1.48-0.908,2.146s-0.859,1.271-1.404,1.814c-0.543,0.545-1.148,1.012-1.814,1.404
		s-1.383,0.695-2.146,0.908s-1.561,0.318-2.385,0.318c-1.244,0-2.408-0.234-3.496-0.705c-1.088-0.47-2.039-1.111-2.852-1.926
		c-0.813-0.812-1.455-1.764-1.925-2.852C79.105,95.667,78.87,94.502,78.87,93.259z M81.298,93.259c0,0.907,0.172,1.759,0.516,2.552
		s0.812,1.485,1.404,2.078c0.594,0.594,1.285,1.061,2.08,1.404c0.793,0.344,1.643,0.516,2.551,0.516
		c0.906,0,1.758-0.172,2.551-0.516s1.486-0.811,2.078-1.404c0.594-0.593,1.061-1.285,1.404-2.078s0.516-1.645,0.516-2.552
		s-0.172-1.758-0.516-2.552c-0.344-0.793-0.811-1.485-1.404-2.078c-0.592-0.593-1.285-1.061-2.078-1.404s-1.645-0.516-2.551-0.516
		c-0.908,0-1.758,0.172-2.551,0.516c-0.795,0.344-1.486,0.812-2.08,1.404c-0.592,0.593-1.061,1.285-1.404,2.078
		C81.47,91.501,81.298,92.352,81.298,93.259z"/>
	<path fill="#010101" d="M114.929,102.053h-1.975l-10.045-13.725c-0.064-0.09-0.121-0.189-0.166-0.301
		c-0.045-0.109-0.084-0.223-0.115-0.337c-0.033-0.122-0.062-0.253-0.086-0.393v14.755h-2.43V84.477h1.73
		c0.393,0,0.736,0.059,1.029,0.172c0.295,0.115,0.527,0.291,0.699,0.527l8.525,11.738c0.221,0.318,0.355,0.723,0.404,1.214V84.477
		h2.428V102.053z"/>
	<path fill="#010101" d="M117.419,86.894v-2.429h13.355v2.429h-5.457v15.159h-2.43V86.894H117.419z"/>
	<path fill="#010101" d="M139.435,87.467c-0.318-0.232-0.643-0.416-0.969-0.553c-0.328-0.137-0.635-0.205-0.92-0.205
		c-0.385,0-0.746,0.054-1.086,0.16c-0.34,0.105-0.637,0.254-0.895,0.441c-0.258,0.188-0.463,0.412-0.613,0.67
		c-0.152,0.258-0.227,0.537-0.227,0.84c0,0.352,0.057,0.65,0.17,0.896c0.115,0.246,0.299,0.465,0.553,0.656
		c0.254,0.193,0.582,0.375,0.988,0.547c0.404,0.172,0.896,0.355,1.477,0.553c0.287,0.113,0.574,0.223,0.865,0.324
		c0.291,0.103,0.574,0.213,0.852,0.332c0.279,0.119,0.553,0.247,0.822,0.387c0.27,0.139,0.527,0.303,0.773,0.49
		c1.234,0.941,1.852,2.21,1.852,3.806c0,0.802-0.164,1.534-0.49,2.197c-0.328,0.663-0.77,1.233-1.324,1.712
		c-0.557,0.479-1.199,0.852-1.926,1.117c-0.729,0.266-1.488,0.398-2.281,0.398c-1.578,0-2.898-0.47-3.963-1.41
		c-0.213-0.188-0.4-0.378-0.564-0.57c-0.162-0.191-0.305-0.378-0.422-0.559c-0.119-0.18-0.219-0.343-0.301-0.49
		c-0.082-0.146-0.146-0.27-0.195-0.367l0.588-0.307c0.311-0.188,0.633-0.283,0.969-0.283c0.531,0,0.98,0.193,1.35,0.577l0.195,0.159
		c0.311,0.262,0.656,0.465,1.037,0.607s0.814,0.215,1.307,0.215c0.4,0,0.812-0.066,1.238-0.197c0.426-0.13,0.811-0.32,1.158-0.57
		c0.348-0.248,0.635-0.559,0.859-0.932c0.225-0.371,0.338-0.803,0.338-1.294c0-0.474-0.107-0.866-0.32-1.177
		s-0.488-0.577-0.828-0.798c-0.338-0.221-0.719-0.409-1.141-0.563c-0.42-0.156-0.836-0.315-1.244-0.479
		c-0.605-0.237-1.195-0.482-1.771-0.736s-1.092-0.562-1.547-0.926c-0.453-0.363-0.816-0.81-1.09-1.337
		c-0.275-0.527-0.412-1.184-0.412-1.969c0-0.72,0.15-1.361,0.447-1.925c0.299-0.564,0.693-1.041,1.184-1.43
		c0.492-0.389,1.051-0.685,1.682-0.889c0.629-0.205,1.275-0.307,1.938-0.307c0.482,0,0.961,0.082,1.436,0.245
		c0.473,0.163,0.92,0.372,1.336,0.626c0.418,0.253,0.793,0.531,1.129,0.834c0.334,0.302,0.613,0.588,0.834,0.857l-0.625,0.467
		c-0.344,0.294-0.74,0.441-1.191,0.441C140.081,87.752,139.737,87.657,139.435,87.467z"/>
</g>
<g>
	<path fill="#010101" d="M13.414,113.707h-1.258v-7.832h1.258V113.707z"/>
	<path fill="#010101" d="M14.172,107.104v-1.234h6.001v1.234h-2.366v6.603H16.55v-6.603H14.172z"/>
	<path fill="#010101" d="M22.732,105.875h1.175l3.416,7.832h-0.754c-0.187,0-0.356-0.048-0.512-0.146
		c-0.154-0.096-0.271-0.229-0.347-0.4l-0.503-1.154h-3.782l-0.497,1.154c-0.073,0.163-0.188,0.295-0.345,0.396
		c-0.156,0.101-0.328,0.15-0.514,0.15h-0.76L22.732,105.875z M21.983,110.745h2.673l-1.225-2.82
		c-0.04-0.088-0.068-0.174-0.085-0.258c-0.017-0.083-0.026-0.16-0.03-0.229c-0.007,0.068-0.019,0.146-0.035,0.232
		c-0.017,0.085-0.043,0.17-0.079,0.254L21.983,110.745z"/>
	<path fill="#010101" d="M27.864,113.707v-7.832h1.257v6.603h3.312v1.229H27.864z"/>
	<path fill="#010101" d="M34.532,113.707h-1.258v-7.832h1.258V113.707z"/>
	<path fill="#010101" d="M38.686,105.875h1.175l3.416,7.832h-0.754c-0.187,0-0.356-0.048-0.512-0.146
		c-0.154-0.096-0.271-0.229-0.347-0.4l-0.503-1.154h-3.782l-0.497,1.154c-0.073,0.163-0.188,0.295-0.345,0.396
		c-0.156,0.101-0.328,0.15-0.514,0.15h-0.76L38.686,105.875z M37.937,110.745h2.673l-1.225-2.82
		c-0.04-0.088-0.068-0.174-0.085-0.258c-0.017-0.083-0.026-0.16-0.03-0.229c-0.007,0.068-0.019,0.146-0.035,0.232
		c-0.017,0.085-0.043,0.17-0.079,0.254L37.937,110.745z"/>
	<path fill="#010101" d="M50.605,113.707h-1.104l-4.109-5.668c-0.037-0.051-0.07-0.107-0.102-0.169
		c-0.031-0.062-0.06-0.122-0.085-0.181c-0.025-0.058-0.048-0.112-0.068-0.161c-0.02-0.049-0.037-0.085-0.052-0.106v6.285h-1.257
		v-7.832h1.017c0.175,0,0.328,0.025,0.459,0.077c0.131,0.051,0.235,0.129,0.312,0.234c0.069,0.095,0.165,0.228,0.287,0.398
		c0.122,0.172,0.262,0.367,0.418,0.588s0.326,0.457,0.509,0.711c0.182,0.253,0.366,0.509,0.555,0.768
		c0.188,0.259,0.372,0.515,0.555,0.768c0.182,0.254,0.352,0.49,0.508,0.711c0.157,0.221,0.296,0.416,0.418,0.588
		c0.122,0.171,0.218,0.304,0.287,0.398c0.055,0.08,0.099,0.172,0.132,0.276c0.032,0.104,0.054,0.197,0.065,0.281v-5.799h1.257
		V113.707z"/>
	<path fill="#010101" d="M54.644,107.104v-1.234h6.001v1.234h-2.366v6.603h-1.257v-6.603H54.644z"/>
	<path fill="#010101" d="M65.559,113.707h-1.263v-3.312c0-0.07-0.007-0.133-0.021-0.189s-0.035-0.111-0.061-0.164
		s-0.057-0.105-0.093-0.16s-0.078-0.113-0.126-0.176l-2.825-3.831h0.918c0.459,0,0.802,0.175,1.027,0.524l1.7,2.296
		c0.036,0.051,0.062,0.107,0.079,0.169c0.017,0.062,0.026,0.105,0.03,0.131c0-0.018,0.009-0.06,0.027-0.125
		c0.018-0.065,0.047-0.124,0.087-0.175l1.694-2.296c0.113-0.175,0.256-0.306,0.43-0.393c0.173-0.088,0.372-0.132,0.598-0.132h0.93
		l-2.831,3.831c-0.095,0.128-0.169,0.24-0.222,0.336c-0.053,0.098-0.079,0.215-0.079,0.354V113.707z"/>
	<path fill="#010101" d="M70.254,113.707h-1.258v-7.832h2.831c0.347,0,0.672,0.065,0.976,0.196c0.305,0.132,0.57,0.311,0.799,0.536
		c0.228,0.226,0.406,0.49,0.538,0.792c0.131,0.303,0.196,0.627,0.196,0.973c0,0.347-0.065,0.671-0.196,0.974
		c-0.132,0.302-0.311,0.566-0.538,0.792c-0.229,0.227-0.494,0.404-0.799,0.536c-0.304,0.131-0.629,0.196-0.976,0.196h-1.573V113.707
		z M71.844,109.613c0.172,0,0.332-0.032,0.481-0.096s0.279-0.151,0.391-0.265s0.198-0.245,0.263-0.396
		c0.063-0.151,0.095-0.312,0.095-0.484c0-0.17-0.031-0.331-0.095-0.48c-0.064-0.149-0.151-0.28-0.263-0.394
		c-0.111-0.112-0.241-0.201-0.391-0.265c-0.149-0.064-0.31-0.096-0.481-0.096h-1.59v2.476H71.844z"/>
	<path fill="#010101" d="M80.474,113.707h-4.936v-7.832h4.936v1.229h-3.679v2.039h2.979v1.229h-2.979v2.104h3.679V113.707z"/>
	<path fill="#010101" d="M89.284,109.291v1.229H86.19v3.187h-1.257v-7.832h4.936v1.229H86.19v2.187H89.284z"/>
	<path fill="#010101" d="M90.562,109.788c0-0.367,0.047-0.723,0.142-1.062c0.095-0.341,0.229-0.659,0.405-0.954
		c0.175-0.295,0.384-0.565,0.628-0.81c0.244-0.243,0.514-0.452,0.809-0.625c0.296-0.174,0.614-0.307,0.957-0.402
		c0.343-0.094,0.697-0.142,1.065-0.142s0.723,0.048,1.063,0.142c0.341,0.096,0.659,0.229,0.956,0.402
		c0.297,0.173,0.567,0.382,0.812,0.625c0.244,0.244,0.454,0.515,0.629,0.81s0.31,0.613,0.404,0.954
		c0.095,0.34,0.143,0.695,0.143,1.062c0,0.368-0.048,0.723-0.143,1.062c-0.095,0.342-0.229,0.66-0.404,0.957
		s-0.385,0.566-0.629,0.809s-0.515,0.451-0.812,0.627c-0.297,0.174-0.615,0.309-0.956,0.404c-0.341,0.094-0.695,0.142-1.063,0.142
		c-0.554,0-1.073-0.104-1.561-0.314c-0.486-0.21-0.91-0.495-1.273-0.858c-0.362-0.362-0.648-0.785-0.857-1.271
		C90.667,110.861,90.562,110.342,90.562,109.788z M91.819,109.788c0,0.379,0.072,0.735,0.216,1.068
		c0.145,0.334,0.341,0.625,0.591,0.872c0.249,0.248,0.541,0.444,0.874,0.587c0.334,0.145,0.689,0.217,1.068,0.217
		c0.376,0,0.729-0.072,1.063-0.217c0.333-0.143,0.625-0.339,0.874-0.587c0.25-0.247,0.446-0.538,0.591-0.872
		c0.144-0.333,0.216-0.689,0.216-1.068c0-0.375-0.072-0.729-0.216-1.062c-0.145-0.334-0.341-0.625-0.591-0.872
		c-0.249-0.247-0.541-0.444-0.874-0.587c-0.334-0.145-0.688-0.217-1.063-0.217c-0.379,0-0.734,0.072-1.068,0.217
		c-0.333,0.143-0.625,0.34-0.874,0.587c-0.25,0.247-0.446,0.538-0.591,0.872C91.892,109.058,91.819,109.413,91.819,109.788z"/>
	<path fill="#010101" d="M100.964,110.624c0,0.263,0.05,0.511,0.15,0.744c0.1,0.232,0.237,0.436,0.412,0.609
		c0.175,0.173,0.379,0.31,0.612,0.41c0.233,0.1,0.481,0.15,0.743,0.15c0.263,0,0.51-0.051,0.743-0.15
		c0.233-0.101,0.437-0.237,0.609-0.41c0.174-0.174,0.311-0.377,0.413-0.609c0.102-0.233,0.153-0.481,0.153-0.744v-4.749h1.262v4.749
		c0,0.438-0.082,0.849-0.248,1.232c-0.166,0.385-0.393,0.721-0.681,1.009s-0.625,0.515-1.011,0.681
		c-0.387,0.166-0.8,0.248-1.241,0.248c-0.438,0-0.849-0.082-1.235-0.248c-0.386-0.166-0.722-0.393-1.008-0.681
		s-0.513-0.624-0.681-1.009c-0.168-0.384-0.252-0.795-0.252-1.232v-4.749h1.258V110.624z"/>
	<path fill="#010101" d="M114.381,113.707h-1.104l-4.109-5.668c-0.037-0.051-0.07-0.107-0.102-0.169
		c-0.031-0.062-0.06-0.122-0.085-0.181c-0.025-0.058-0.048-0.112-0.068-0.161c-0.02-0.049-0.037-0.085-0.052-0.106v6.285h-1.257
		v-7.832h1.017c0.175,0,0.328,0.025,0.459,0.077c0.131,0.051,0.235,0.129,0.312,0.234c0.069,0.095,0.165,0.228,0.287,0.398
		c0.122,0.172,0.262,0.367,0.418,0.588s0.326,0.457,0.509,0.711c0.182,0.253,0.366,0.509,0.555,0.768
		c0.188,0.259,0.372,0.515,0.555,0.768c0.182,0.254,0.352,0.49,0.508,0.711c0.157,0.221,0.296,0.416,0.418,0.588
		c0.122,0.171,0.218,0.304,0.287,0.398c0.055,0.08,0.099,0.172,0.132,0.276c0.032,0.104,0.054,0.197,0.065,0.281v-5.799h1.257
		V113.707z"/>
	<path fill="#010101" d="M116.07,113.707v-7.832h3.012c0.36,0,0.708,0.046,1.044,0.14c0.335,0.093,0.647,0.225,0.937,0.396
		c0.29,0.171,0.555,0.375,0.796,0.614c0.24,0.239,0.445,0.503,0.614,0.792c0.17,0.29,0.302,0.602,0.396,0.936
		c0.095,0.333,0.143,0.68,0.143,1.041c0,0.36-0.048,0.707-0.143,1.041s-0.227,0.645-0.396,0.935
		c-0.169,0.29-0.374,0.554-0.614,0.792c-0.241,0.239-0.506,0.443-0.796,0.613c-0.289,0.169-0.602,0.3-0.937,0.393
		c-0.336,0.094-0.684,0.14-1.044,0.14H116.07z M119.082,112.45c0.364,0,0.708-0.069,1.032-0.208
		c0.324-0.138,0.607-0.327,0.851-0.568c0.242-0.24,0.434-0.522,0.573-0.845c0.141-0.322,0.211-0.668,0.211-1.035
		c0-0.365-0.07-0.708-0.211-1.03c-0.14-0.323-0.331-0.604-0.573-0.845c-0.243-0.24-0.526-0.431-0.851-0.57
		c-0.324-0.141-0.668-0.211-1.032-0.211h-1.755v5.312H119.082z"/>
	<path fill="#010101" d="M125.459,113.707h-1.257v-7.832h2.842c0.324,0,0.629,0.062,0.913,0.183c0.284,0.123,0.533,0.289,0.746,0.5
		c0.213,0.212,0.381,0.459,0.503,0.744c0.122,0.283,0.183,0.586,0.183,0.906c0,0.248-0.037,0.484-0.111,0.709
		c-0.075,0.224-0.179,0.43-0.312,0.617c-0.134,0.188-0.291,0.353-0.473,0.494c-0.183,0.143-0.383,0.256-0.602,0.34l2.476,3.339
		h-0.935c-0.229,0-0.432-0.044-0.606-0.132c-0.175-0.087-0.315-0.217-0.421-0.387c-0.021-0.037-0.082-0.123-0.181-0.258
		c-0.098-0.135-0.217-0.295-0.354-0.48c-0.139-0.186-0.286-0.384-0.443-0.594c-0.156-0.209-0.304-0.406-0.442-0.59
		s-0.258-0.344-0.358-0.479c-0.1-0.135-0.163-0.219-0.188-0.251h-0.979V113.707z M125.459,107.137v2.143h1.602
		c0.146,0,0.284-0.028,0.416-0.085c0.131-0.057,0.243-0.133,0.339-0.229c0.095-0.097,0.17-0.209,0.227-0.339
		s0.085-0.269,0.085-0.419c0-0.145-0.028-0.283-0.085-0.414c-0.057-0.132-0.132-0.246-0.227-0.342
		c-0.096-0.097-0.208-0.174-0.339-0.23c-0.132-0.057-0.271-0.084-0.416-0.084H125.459z"/>
	<path fill="#010101" d="M134.04,113.707h-1.263v-3.312c0-0.07-0.007-0.133-0.021-0.189s-0.035-0.111-0.061-0.164
		s-0.057-0.105-0.093-0.16s-0.078-0.113-0.126-0.176l-2.825-3.831h0.918c0.459,0,0.802,0.175,1.027,0.524l1.7,2.296
		c0.036,0.051,0.062,0.107,0.079,0.169c0.017,0.062,0.026,0.105,0.03,0.131c0-0.018,0.009-0.06,0.027-0.125
		c0.018-0.065,0.047-0.124,0.087-0.175l1.694-2.296c0.113-0.175,0.256-0.306,0.43-0.393c0.173-0.088,0.372-0.132,0.598-0.132h0.93
		l-2.831,3.831c-0.095,0.128-0.169,0.24-0.222,0.336c-0.053,0.098-0.079,0.215-0.079,0.354V113.707z"/>
</g>
</svg>
